<svg xmlns="http://www.w3.org/2000/svg" width="537.8955078125" height="260.20269775390625" viewBox="-7.3289594650268555 -166.78237915039062 537.8955078125 260.20269775390625"><title>Neo4j Graph Visualization</title><desc>Created using Neo4j (http://www.neo4j.com/)</desc><g class="layer relationships"><g class="relationship" transform="translate(89.7023312190777 64.420292934335) rotate(309.65865666091383)"><path class="outline" fill="#6DCE9E" stroke="none" d="M 20.90063509461097,13.799038105676656 L 22.40063509461097,11.20096189432334 A 215.82553021106264 215.82553021106264 0 0 0 99.02641682551744,37.83631249857166 L 98.59152411364927,40.80462318466297 A 218.82553021106264 218.82553021106264 0 0 1 20.90063509461097,13.799038105676656 Z M 154.81438999530087,41.74013690657017 L 154.47849240001307,38.75900074639904 A 215.82553021106264 215.82553021106264 0 0 0 231.9480014458688,14.687700493237504 L 230.53526865453034,12.041158209374082 L 240.5939946931283,11.772773261153818 L 234.77346702854572,19.98078506096435 L 233.36073423720725,17.33424277710093 A 218.82553021106264 218.82553021106264 0 0 1 154.81438999530087,41.74013690657017"/><text text-anchor="middle" pointer-events="none" font-size="8px" fill="#000000" x="126.6977382621109" y="44.586021049787604" font-family="sans-serif">IS_CHILD_OF</text></g><g class="relationship" transform="translate(89.7023312190777 64.420292934335) rotate(309.65865666091383)"><path class="outline" fill="#68BDF6" stroke="none" d="M 25 1.5 L 90.82425686266168 1.5 L 90.82425686266168 -1.5 L 25 -1.5 Z M 162.82425686266168 1.5 L 228.64851372532337 1.5 L 228.64851372532337 4.5 L 237.64851372532337 0 L 228.64851372532337 -4.5 L 228.64851372532337 -1.5 L 162.82425686266168 -1.5 Z"/><text text-anchor="middle" pointer-events="none" font-size="8px" fill="#000000" x="126.82425686266168" y="3" font-family="sans-serif">FIRST_CHILD_OF</text></g><g class="relationship" transform="translate(432.39547495711383 59.68244297365291) rotate(228.44056887364638)"><path class="outline" fill="#6DCE9E" stroke="none" d="M 23.759917089572927,7.919364866996621 L 24.536374224880486,5.021587388129416 A 411.1191387451074 411.1191387451074 0 0 0 99.56110438582039,17.83073677944168 L 99.3321143209339,20.82198460437752 A 414.1191387451074 414.1191387451074 0 0 1 23.759917089572927,7.919364866996621 Z M 155.49051640119058,21.30187813332384 L 155.3126785982531,18.30715381949352 A 411.1191387451074 411.1191387451074 0 0 0 230.54535397569265,6.782007425472647 L 229.81853169389768,3.871383889065651 L 239.6406357258111,6.056852348291262 L 231.99899853928258,12.603254498286638 L 231.27217625748762,9.692630961879642 A 414.1191387451074 414.1191387451074 0 0 1 155.49051640119058,21.30187813332384"/><text text-anchor="middle" pointer-events="none" font-size="8px" fill="#000000" x="127.41598850487708" y="23.51506779703095" transform="rotate(180 127.41598850487708 20.51506779703095)" font-family="sans-serif">IS_CHILD_OF</text></g><g class="relationship" transform="translate(432.39547495711383 59.68244297365291) rotate(228.44056887364638)"><path class="outline" fill="#68BDF6" stroke="none" d="M 23.759917089572927,-7.919364866996621 L 24.536374224880486,-5.021587388129416 A 411.1191387451074 411.1191387451074 0 0 1 93.60388468630799,-17.331100022587293 L 93.33142386704824,-20.31870192076053 A 414.1191387451074 414.1191387451074 0 0 0 23.759917089572927,-7.919364866996621 Z M 161.49893137212857,-20.90121752883175 L 161.27756685616006,-17.909395717448263 A 411.1191387451074 411.1191387451074 0 0 1 230.54535397569265,-6.782007425472647 L 229.81853169389768,-3.871383889065651 L 239.6406357258111,-6.056852348291262 L 231.99899853928258,-12.603254498286638 L 231.27217625748762,-9.692630961879642 A 414.1191387451074 414.1191387451074 0 0 0 161.49893137212857,-20.90121752883175"/><text text-anchor="middle" pointer-events="none" font-size="8px" fill="#000000" x="127.4159885048771" y="-17.51506779703095" transform="rotate(180 127.4159885048771 -20.51506779703095)" font-family="sans-serif">LAST_CHILD_OF</text></g><g class="relationship" transform="translate(257.32788789122486 -137.7823641018033) rotate(489.65865666091383)"><path class="outline" fill="#DE9BF9" stroke="none" d="M 20.90063509461097,13.799038105676656 L 22.40063509461097,11.20096189432334 A 215.82553021106264 215.82553021106264 0 0 0 113.33327262946163,39.44710542353931 L 113.09724687911493,42.43780631884351 A 218.82553021106264 218.82553021106264 0 0 1 20.90063509461097,13.799038105676656 Z M 140.26236210592273,42.88981703820744 L 140.12596629466364,39.89291927841134 A 215.82553021106264 215.82553021106264 0 0 0 231.9480014458688,14.687700493237504 L 230.53526865453034,12.041158209374082 L 240.5939946931283,11.772773261153818 L 234.77346702854572,19.98078506096435 L 233.36073423720725,17.33424277710093 A 218.82553021106264 218.82553021106264 0 0 1 140.26236210592273,42.88981703820744"/><text text-anchor="middle" pointer-events="none" font-size="8px" fill="#000000" x="126.6977382621109" y="44.586021049787604" transform="rotate(180 126.6977382621109 41.586021049787604)" font-family="sans-serif">NEXT</text></g><g class="relationship" transform="translate(21.67103928078606 63.538305032665036) rotate(360.7427663356782)"><path class="outline" fill="#FFD86E" stroke="none" d="M 25 1.5 L 29.518504469816712 1.5 L 29.518504469816712 -1.5 L 25 -1.5 Z M 29.518504469816712 1.5 L 34.037008939633424 1.5 L 34.037008939633424 4.5 L 43.037008939633424 0 L 34.037008939633424 -4.5 L 34.037008939633424 -1.5 L 29.518504469816712 -1.5 Z"/><text text-anchor="middle" pointer-events="none" font-size="8px" fill="#000000" x="29.518504469816712" y="3" font-family="sans-serif"/></g><g class="relationship" transform="translate(89.7023312190777 64.420292934335) rotate(358.16845936728464)"><path class="outline" fill="#DE9BF9" stroke="none" d="M 20.90063509461097,-13.799038105676656 L 22.40063509461097,-11.20096189432334 A 12.81559538787056 12.81559538787056 0 0 1 28.02520076093603,-12.893969896973086 L 27.841854142092668,-15.888361991766068 A 15.81559538787056 15.81559538787056 0 0 0 20.90063509461097,-13.799038105676656 Z M 27.841854142092668,-15.888361991766068 L 28.02520076093603,-12.893969896973086 A 12.81559538787056 12.81559538787056 0 0 1 33.81430105890626,-11.899820626551515 L 32.64247841964803,-9.138148723134695 L 42.685228088785834,-9.76518866048524 L 36.157946337422715,-17.423164433385153 L 34.986123698164484,-14.661492529968333 A 15.81559538787056 15.81559538787056 0 0 0 27.841854142092668,-15.888361991766068"/><text text-anchor="middle" pointer-events="none" font-size="8px" fill="#000000" x="27.933527451514347" y="-11.391165944369577" font-family="sans-serif"/></g><g class="relationship" transform="translate(89.7023312190777 64.420292934335) rotate(358.16845936728464)"><path class="outline" fill="#FF756E" stroke="none" d="M 25 1.5 L 28.349580308629676 1.5 L 28.349580308629676 -1.5 L 25 -1.5 Z M 28.349580308629676 1.5 L 31.699160617259352 1.5 L 31.699160617259352 4.5 L 40.69916061725935 0 L 31.699160617259352 -4.5 L 31.699160617259352 -1.5 L 28.349580308629676 -1.5 Z"/><text text-anchor="middle" pointer-events="none" font-size="8px" fill="#000000" x="28.349580308629676" y="3" font-family="sans-serif"/></g><g class="relationship" transform="translate(89.7023312190777 64.420292934335) rotate(358.16845936728464)"><path class="outline" fill="#FFD86E" stroke="none" d="M 20.90063509461097,13.799038105676656 L 22.40063509461097,11.20096189432334 A 12.81559538787056 12.81559538787056 0 0 0 28.025200760936027,12.893969896973086 L 27.841854142092664,15.888361991766068 A 15.81559538787056 15.81559538787056 0 0 1 20.90063509461097,13.799038105676656 Z M 27.841854142092664,15.888361991766068 L 28.025200760936027,12.893969896973086 A 12.81559538787056 12.81559538787056 0 0 0 33.81430105890626,11.899820626551515 L 32.64247841964803,9.138148723134695 L 42.685228088785834,9.76518866048524 L 36.157946337422715,17.423164433385153 L 34.986123698164484,14.661492529968333 A 15.81559538787056 15.81559538787056 0 0 1 27.841854142092664,15.888361991766068"/><text text-anchor="middle" pointer-events="none" font-size="8px" fill="#000000" x="27.933527451514347" y="17.391165944369575" font-family="sans-serif"/></g><g class="relationship" transform="translate(155.36792729676893 62.320483996849134) rotate(297.0005607808349)"><path class="outline" fill="#6DCE9E" stroke="none" d="M 25 1.5 L 79.79089831951583 1.5 L 79.79089831951583 -1.5 L 25 -1.5 Z M 135.79089831951583 1.5 L 190.58179663903167 1.5 L 190.58179663903167 4.5 L 199.58179663903167 0 L 190.58179663903167 -4.5 L 190.58179663903167 -1.5 L 135.79089831951583 -1.5 Z"/><text text-anchor="middle" pointer-events="none" font-size="8px" fill="#000000" x="107.79089831951583" y="3" font-family="sans-serif">IS_CHILD_OF</text></g><g class="relationship" transform="translate(155.36792729676893 62.320483996849134) rotate(358.376334571234)"><path class="outline" fill="#DE9BF9" stroke="none" d="M 20.90063509461097,-13.799038105676656 L 22.40063509461097,-11.20096189432334 A 14.842298916967628 14.842298916967628 0 0 1 28.936414023029496,-13.163022372183761 L 28.757458484870956,-16.1576801014347 A 17.84229891696763 17.84229891696763 0 0 0 20.90063509461097,-13.799038105676656 Z M 28.757458484870956,-16.1576801014347 L 28.936414023029496,-13.163022372183761 A 14.842298916967628 14.842298916967628 0 0 1 35.65934408615853,-11.993279286622911 L 34.47942723519342,-9.2350559046597 L 44.52397265753072,-9.832640424709204 L 38.01917778808873,-17.50972605054934 L 36.839260937123626,-14.751502668586127 A 17.84229891696763 17.84229891696763 0 0 0 28.757458484870956,-16.1576801014347"/><text text-anchor="middle" pointer-events="none" font-size="8px" fill="#000000" x="28.846936253950226" y="-11.66035123680923" font-family="sans-serif"/></g><g class="relationship" transform="translate(155.36792729676893 62.320483996849134) rotate(358.376334571234)"><path class="outline" fill="#FFD86E" stroke="none" d="M 25 1.5 L 29.25458375361208 1.5 L 29.25458375361208 -1.5 L 25 -1.5 Z M 29.25458375361208 1.5 L 33.50916750722416 1.5 L 33.50916750722416 4.5 L 42.50916750722416 0 L 33.50916750722416 -4.5 L 33.50916750722416 -1.5 L 29.25458375361208 -1.5 Z"/><text text-anchor="middle" pointer-events="none" font-size="8px" fill="#000000" x="29.25458375361208" y="3" font-family="sans-serif"/></g><g class="relationship" transform="translate(155.36792729676893 62.320483996849134) rotate(358.376334571234)"><path class="outline" fill="#FF756E" stroke="none" d="M 20.90063509461097,13.799038105676656 L 22.40063509461097,11.20096189432334 A 14.842298916967628 14.842298916967628 0 0 0 28.936414023029492,13.163022372183761 L 28.757458484870952,16.1576801014347 A 17.84229891696763 17.84229891696763 0 0 1 20.90063509461097,13.799038105676656 Z M 28.757458484870952,16.1576801014347 L 28.936414023029492,13.163022372183761 A 14.842298916967628 14.842298916967628 0 0 0 35.65934408615853,11.993279286622911 L 34.47942723519342,9.2350559046597 L 44.52397265753072,9.832640424709204 L 38.01917778808873,17.50972605054934 L 36.839260937123626,14.751502668586127 A 17.84229891696763 17.84229891696763 0 0 1 28.757458484870952,16.1576801014347"/><text text-anchor="middle" pointer-events="none" font-size="8px" fill="#000000" x="28.846936253950222" y="17.66035123680923" font-family="sans-serif"/></g><g class="relationship" transform="translate(222.84998967267964 60.40764448132589) rotate(279.86863282065735)"><path class="outline" fill="#6DCE9E" stroke="none" d="M 25 1.5 L 68.08330498615213 1.5 L 68.08330498615213 -1.5 L 25 -1.5 Z M 124.08330498615213 1.5 L 167.16660997230426 1.5 L 167.16660997230426 4.5 L 176.16660997230426 0 L 167.16660997230426 -4.5 L 167.16660997230426 -1.5 L 124.08330498615213 -1.5 Z"/><text text-anchor="middle" pointer-events="none" font-size="8px" fill="#000000" x="96.08330498615213" y="3" font-family="sans-serif">IS_CHILD_OF</text></g><g class="relationship" transform="translate(222.84998967267964 60.40764448132589) rotate(359.0345792039483)"><path class="outline" fill="#DE9BF9" stroke="none" d="M 20.90063509461097,-13.799038105676656 L 22.40063509461097,-11.20096189432334 A 18.46260630385735 18.46260630385735 0 0 1 30.576132319601506,-13.64426864338802 L 30.4045737796703,-16.639359237573224 A 21.46260630385735 21.46260630385735 0 0 0 20.90063509461097,-13.799038105676656 Z M 30.4045737796703,-16.639359237573224 L 30.576132319601506,-13.64426864338802 A 18.46260630385735 18.46260630385735 0 0 1 38.97714700801839,-12.150463116936622 L 37.783619619643524,-9.398101880979564 L 47.830994410077,-9.946061569790551 L 41.36420178476812,-17.655185588850742 L 40.17067439639325,-14.902824352893683 A 21.46260630385735 21.46260630385735 0 0 0 30.4045737796703,-16.639359237573224"/><text text-anchor="middle" pointer-events="none" font-size="8px" fill="#000000" x="30.490353049635903" y="-12.14181394048062" font-family="sans-serif"/></g><g class="relationship" transform="translate(222.84998967267964 60.40764448132589) rotate(359.0345792039483)"><path class="outline" fill="#FFD86E" stroke="none" d="M 25 1.5 L 30.883669021526238 1.5 L 30.883669021526238 -1.5 L 25 -1.5 Z M 30.883669021526238 1.5 L 36.767338043052476 1.5 L 36.767338043052476 4.5 L 45.767338043052476 0 L 36.767338043052476 -4.5 L 36.767338043052476 -1.5 L 30.883669021526238 -1.5 Z"/><text text-anchor="middle" pointer-events="none" font-size="8px" fill="#000000" x="30.883669021526238" y="3" font-family="sans-serif"/></g><g class="relationship" transform="translate(222.84998967267964 60.40764448132589) rotate(359.0345792039483)"><path class="outline" fill="#FF756E" stroke="none" d="M 20.90063509461097,13.799038105676656 L 22.40063509461097,11.20096189432334 A 18.46260630385735 18.46260630385735 0 0 0 30.576132319601506,13.64426864338802 L 30.4045737796703,16.639359237573224 A 21.46260630385735 21.46260630385735 0 0 1 20.90063509461097,13.799038105676656 Z M 30.4045737796703,16.639359237573224 L 30.576132319601506,13.64426864338802 A 18.46260630385735 18.46260630385735 0 0 0 38.97714700801839,12.150463116936622 L 37.783619619643524,9.398101880979564 L 47.830994410077,9.946061569790551 L 41.36420178476812,17.655185588850742 L 40.17067439639325,14.902824352893683 A 21.46260630385735 21.46260630385735 0 0 1 30.4045737796703,16.639359237573224"/><text text-anchor="middle" pointer-events="none" font-size="8px" fill="#000000" x="30.490353049635903" y="18.14181394048062" font-family="sans-serif"/></g><g class="relationship" transform="translate(293.60728200604365 59.21528742468135) rotate(259.5652383564685)"><path class="outline" fill="#6DCE9E" stroke="none" d="M 25 1.5 L 67.65521597037348 1.5 L 67.65521597037348 -1.5 L 25 -1.5 Z M 123.65521597037348 1.5 L 166.31043194074695 1.5 L 166.31043194074695 4.5 L 175.31043194074695 0 L 166.31043194074695 -4.5 L 166.31043194074695 -1.5 L 123.65521597037348 -1.5 Z"/><text text-anchor="middle" pointer-events="none" font-size="8px" fill="#000000" x="95.65521597037348" y="3" transform="rotate(180 95.65521597037348 0)" font-family="sans-serif">IS_CHILD_OF</text></g><g class="relationship" transform="translate(293.60728200604365 59.21528742468135) rotate(361.04062292220596)"><path class="outline" fill="#DE9BF9" stroke="none" d="M 20.90063509461097,-13.799038105676656 L 22.40063509461097,-11.20096189432334 A 15.628483449884389 15.628483449884389 0 0 1 29.291224477876384,-13.26746358669202 L 29.113922756060834,-16.262219686851303 A 18.62848344988439 18.62848344988439 0 0 0 20.90063509461097,-13.799038105676656 Z M 29.113922756060834,-16.262219686851303 L 29.291224477876384,-13.26746358669202 A 15.628483449884389 15.628483449884389 0 0 1 36.3775137960034,-12.028449868797175 L 35.19455122713767,-9.271531378768389 L 45.23975055052262,-9.858021407214387 L 38.74343893373486,-17.542286848854744 L 37.56047636486913,-14.78536835882596 A 18.62848344988439 18.62848344988439 0 0 0 29.113922756060834,-16.262219686851303"/><text text-anchor="middle" pointer-events="none" font-size="8px" fill="#000000" x="29.20257361696861" y="-11.764841636771664" font-family="sans-serif"/></g><g class="relationship" transform="translate(293.60728200604365 59.21528742468135) rotate(361.04062292220596)"><path class="outline" fill="#FFD86E" stroke="none" d="M 25 1.5 L 29.60703565038125 1.5 L 29.60703565038125 -1.5 L 25 -1.5 Z M 29.60703565038125 1.5 L 34.2140713007625 1.5 L 34.2140713007625 4.5 L 43.2140713007625 0 L 34.2140713007625 -4.5 L 34.2140713007625 -1.5 L 29.60703565038125 -1.5 Z"/><text text-anchor="middle" pointer-events="none" font-size="8px" fill="#000000" x="29.60703565038125" y="3" font-family="sans-serif"/></g><g class="relationship" transform="translate(293.60728200604365 59.21528742468135) rotate(361.04062292220596)"><path class="outline" fill="#FF756E" stroke="none" d="M 20.90063509461097,13.799038105676656 L 22.40063509461097,11.20096189432334 A 15.628483449884389 15.628483449884389 0 0 0 29.291224477876384,13.26746358669202 L 29.11392275606083,16.262219686851303 A 18.62848344988439 18.62848344988439 0 0 1 20.90063509461097,13.799038105676656 Z M 29.11392275606083,16.262219686851303 L 29.291224477876384,13.26746358669202 A 15.628483449884389 15.628483449884389 0 0 0 36.3775137960034,12.028449868797175 L 35.19455122713767,9.271531378768389 L 45.23975055052262,9.858021407214387 L 38.74343893373486,17.542286848854744 L 37.56047636486913,14.78536835882596 A 18.62848344988439 18.62848344988439 0 0 1 29.11392275606083,16.262219686851303"/><text text-anchor="middle" pointer-events="none" font-size="8px" fill="#000000" x="29.202573616968607" y="17.764841636771664" font-family="sans-serif"/></g><g class="relationship" transform="translate(361.8101027621448 60.454143484376985) rotate(242.20815111754547)"><path class="outline" fill="#6DCE9E" stroke="none" d="M 25 1.5 L 79.54267732018322 1.5 L 79.54267732018322 -1.5 L 25 -1.5 Z M 135.5426773201832 1.5 L 190.08535464036643 1.5 L 190.08535464036643 4.5 L 199.08535464036643 0 L 190.08535464036643 -4.5 L 190.08535464036643 -1.5 L 135.5426773201832 -1.5 Z"/><text text-anchor="middle" pointer-events="none" font-size="8px" fill="#000000" x="107.54267732018322" y="3" transform="rotate(180 107.54267732018322 0)" font-family="sans-serif">IS_CHILD_OF</text></g><g class="relationship" transform="translate(361.8101027621448 60.454143484376985) rotate(359.3736177989956)"><path class="outline" fill="#DE9BF9" stroke="none" d="M 20.90063509461097,-13.799038105676656 L 22.40063509461097,-11.20096189432334 A 18.26596475116032 18.26596475116032 0 0 1 30.48669579076628,-13.618110081190324 L 30.314749491676054,-16.61317843938003 A 21.26596475116032 21.26596475116032 0 0 0 20.90063509461097,-13.799038105676656 Z M 30.314749491676054,-16.61317843938003 L 30.48669579076628,-13.618110081190324 A 18.26596475116032 18.26596475116032 0 0 1 38.7962544201652,-12.142231250200478 L 37.60343974288197,-9.389561065514762 L 47.65067231286396,-9.940122310693631 L 41.181883774731666,-17.64757161957191 L 39.989069097448436,-14.894901434886194 A 21.26596475116032 21.26596475116032 0 0 0 30.314749491676054,-16.61317843938003"/><text text-anchor="middle" pointer-events="none" font-size="8px" fill="#000000" x="30.400722641221165" y="-12.115644260285176" font-family="sans-serif"/></g><g class="relationship" transform="translate(361.8101027621448 60.454143484376985) rotate(359.3736177989956)"><path class="outline" fill="#FFD86E" stroke="none" d="M 25 1.5 L 30.79479525928914 1.5 L 30.79479525928914 -1.5 L 25 -1.5 Z M 30.79479525928914 1.5 L 36.58959051857828 1.5 L 36.58959051857828 4.5 L 45.58959051857828 0 L 36.58959051857828 -4.5 L 36.58959051857828 -1.5 L 30.79479525928914 -1.5 Z"/><text text-anchor="middle" pointer-events="none" font-size="8px" fill="#000000" x="30.79479525928914" y="3" font-family="sans-serif"/></g><g class="relationship" transform="translate(361.8101027621448 60.454143484376985) rotate(359.3736177989956)"><path class="outline" fill="#FF756E" stroke="none" d="M 20.90063509461097,13.799038105676656 L 22.40063509461097,11.20096189432334 A 18.26596475116032 18.26596475116032 0 0 0 30.486695790766277,13.618110081190324 L 30.31474949167605,16.61317843938003 A 21.26596475116032 21.26596475116032 0 0 1 20.90063509461097,13.799038105676656 Z M 30.31474949167605,16.61317843938003 L 30.486695790766277,13.618110081190324 A 18.26596475116032 18.26596475116032 0 0 0 38.7962544201652,12.142231250200478 L 37.60343974288197,9.389561065514762 L 47.65067231286396,9.940122310693631 L 41.181883774731666,17.64757161957191 L 39.989069097448436,14.894901434886194 A 21.26596475116032 21.26596475116032 0 0 1 30.31474949167605,16.61317843938003"/><text text-anchor="middle" pointer-events="none" font-size="8px" fill="#000000" x="30.400722641221165" y="18.115644260285176" font-family="sans-serif"/></g><g class="relationship" transform="translate(432.39547495711383 59.68244297365291) rotate(359.7745153792059)"><path class="outline" fill="#FFD86E" stroke="none" d="M 25 1.5 L 30.085759170516496 1.5 L 30.085759170516496 -1.5 L 25 -1.5 Z M 30.085759170516496 1.5 L 35.17151834103299 1.5 L 35.17151834103299 4.5 L 44.17151834103299 0 L 35.17151834103299 -4.5 L 35.17151834103299 -1.5 L 30.085759170516496 -1.5 Z"/><text text-anchor="middle" pointer-events="none" font-size="8px" fill="#000000" x="30.085759170516496" y="3" font-family="sans-serif"/></g></g><g class="layer nodes"><g class="node" transform="translate(257.32788789122486,-137.7823641018033)"><circle class="outline" cx="0" cy="0" r="25" fill="#68BDF6" stroke="#5CA8DB" stroke-width="2px"/><text text-anchor="middle" pointer-events="none" font-family="sans-serif" dy="1.5625" font-size="25" fill="#FFFFFF"/><text text-anchor="middle" pointer-events="none" y="5" font-size="10px" fill="#FFFFFF" font-family="sans-serif"> add</text></g><g class="node" transform="translate(89.7023312190777,64.420292934335)"><circle class="outline" cx="0" cy="0" r="25" fill="#FFD86E" stroke="#EDBA39" stroke-width="2px"/><text text-anchor="middle" pointer-events="none" font-family="sans-serif" dy="1.5625" font-size="25" fill="#604A0E"/><text text-anchor="middle" pointer-events="none" y="5" font-size="10px" fill="#604A0E" font-family="sans-serif"> zu</text></g><g class="node" transform="translate(432.39547495711383,59.68244297365291)"><circle class="outline" cx="0" cy="0" r="25" fill="#FFD86E" stroke="#EDBA39" stroke-width="2px"/><text text-anchor="middle" pointer-events="none" font-family="sans-serif" dy="1.5625" font-size="25" fill="#604A0E"/><text text-anchor="middle" pointer-events="none" y="5" font-size="10px" fill="#604A0E" font-family="sans-serif"> Dichtung</text></g><g class="node" transform="translate(21.67103928078606,63.538305032665036)"><circle class="outline" cx="0" cy="0" r="25" fill="#FFD86E" stroke="#EDBA39" stroke-width="2px"/><text text-anchor="middle" pointer-events="none" font-family="sans-serif" dy="1.5625" font-size="25" fill="#604A0E"/><text text-anchor="middle" pointer-events="none" y="5" font-size="10px" fill="#604A0E" font-family="sans-serif"> Philoſop…</text></g><g class="node" transform="translate(155.36792729676893,62.320483996849134)"><circle class="outline" cx="0" cy="0" r="25" fill="#FFD86E" stroke="#EDBA39" stroke-width="2px"/><text text-anchor="middle" pointer-events="none" font-family="sans-serif" dy="1.5625" font-size="25" fill="#604A0E"/><text text-anchor="middle" pointer-events="none" y="5" font-size="10px" fill="#604A0E" font-family="sans-serif"> metaph…</text></g><g class="node" transform="translate(222.84998967267964,60.40764448132589)"><circle class="outline" cx="0" cy="0" r="25" fill="#FFD86E" stroke="#EDBA39" stroke-width="2px"/><text text-anchor="middle" pointer-events="none" font-family="sans-serif" dy="1.5625" font-size="25" fill="#604A0E"/><text text-anchor="middle" pointer-events="none" y="5" font-size="10px" fill="#604A0E" font-family="sans-serif"> Specula…</text></g><g class="node" transform="translate(293.60728200604365,59.21528742468135)"><circle class="outline" cx="0" cy="0" r="25" fill="#FFD86E" stroke="#EDBA39" stroke-width="2px"/><text text-anchor="middle" pointer-events="none" font-family="sans-serif" dy="1.5625" font-size="25" fill="#604A0E"/><text text-anchor="middle" pointer-events="none" y="5" font-size="10px" fill="#604A0E" font-family="sans-serif"> u.</text></g><g class="node" transform="translate(361.8101027621448,60.454143484376985)"><circle class="outline" cx="0" cy="0" r="25" fill="#FFD86E" stroke="#EDBA39" stroke-width="2px"/><text text-anchor="middle" pointer-events="none" font-family="sans-serif" dy="1.5625" font-size="25" fill="#604A0E"/><text text-anchor="middle" pointer-events="none" y="5" font-size="10px" fill="#604A0E" font-family="sans-serif"> zur</text></g><g class="node" transform="translate(501.56645764292875,59.41022269050575)"><circle class="outline" cx="0" cy="0" r="25" fill="#FFD86E" stroke="#EDBA39" stroke-width="2px"/><text text-anchor="middle" pointer-events="none" font-family="sans-serif" dy="1.5625" font-size="25" fill="#604A0E"/><text text-anchor="middle" pointer-events="none" y="5" font-size="10px" fill="#604A0E" font-family="sans-serif"> vernach…</text></g></g></svg>