<svg xmlns="http://www.w3.org/2000/svg" width="850.09765625" height="344.21710205078125" viewBox="-220.67466735839844 -68.8636474609375 850.09765625 344.21710205078125"><title>Neo4j Graph Visualization</title><desc>Created using Neo4j (http://www.neo4j.com/)</desc><g class="layer relationships"><g class="relationship" transform="translate(-172.40121178365064 243.65569477404435) rotate(279.1949048545161)"><path class="outline" fill="#68BDF6" stroke="none" d="M 20.40063509461097,-14.665063509461095 L 22.90063509461097,-10.334936490538901 A 110.36843119700137 110.36843119700137 0 0 1 47.067629608245134,-20.67343100793056 L 45.66246235396467,-25.47192087324214 A 115.36843119700137 115.36843119700137 0 0 0 20.40063509461097,-14.665063509461095 Z M 103.27764584271934,-27.33725308847103 L 102.18580490806241,-22.45792082130501 A 110.36843119700137 110.36843119700137 0 0 1 126.97092059840668,-13.704285409408321 L 125.64211481467575,-11.014624614972856 L 137.9403483311125,-11.073381531091119 L 130.51440268835583,-20.876714194569562 L 129.1855969046249,-18.187053400134097 A 115.36843119700137 115.36843119700137 0 0 0 103.27764584271934,-27.33725308847103"/><text text-anchor="middle" pointer-events="none" font-size="8px" fill="#000000" x="74.43256923436765" y="-24.56239538533366" font-family="sans-serif">NEXT_WORD</text></g><g class="relationship" transform="translate(-146.7776702032955 85.36198100960547) rotate(317.80577282948593)"><path class="outline" fill="#68BDF6" stroke="none" d="M 20.40063509461097,-14.665063509461095 L 22.90063509461097,-10.334936490538901 A 71.44274162525899 71.44274162525899 0 0 1 29.034500620691585,-13.491738681634473 L 26.96378604469272,-18.04279802477052 A 76.44274162525899 76.44274162525899 0 0 0 20.40063509461097,-14.665063509461095 Z M 84.3930757405351,-20.43137164120232 L 82.70743042710359,-15.724079438958398 A 71.44274162525899 71.44274162525899 0 0 1 89.0822503486885,-13.087532960492698 L 87.80317382886979,-10.373870627694377 L 100.09824266879797,-10.65897099848933 L 92.4931210682051,-20.32396584795489 L 91.21404454838638,-17.61030351515657 A 76.44274162525899 76.44274162525899 0 0 0 84.3930757405351,-20.43137164120232"/><text text-anchor="middle" pointer-events="none" font-size="8px" fill="#000000" x="55.54926865264212" y="-19.342576598479667" font-family="sans-serif">NEXT_WORD</text></g><g class="relationship" transform="translate(-55.86368129355095 2.942899552007553) rotate(352.6270254717226)"><path class="outline" fill="#68BDF6" stroke="none" d="M 20.40063509461097,-14.665063509461095 L 22.90063509461097,-10.334936490538901 A 85.62446527748995 85.62446527748995 0 0 1 35.462058799892226,-16.284643574540098 L 33.695577173675495,-20.962200914032437 A 90.62446527748995 90.62446527748995 0 0 0 20.40063509461097,-14.665063509461095 Z M 91.25523206251779,-23.1324276876081 L 89.84598985342163,-18.335132992042517 A 85.62446527748995 85.62446527748995 0 0 1 102.81976801631765,-13.348204070453821 L 101.51966412091674,-10.644552861225204 L 113.81657569632335,-10.834199128340973 L 106.28671173738677,-20.5579406283968 L 104.98660784198586,-17.854289419168182 A 90.62446527748995 90.62446527748995 0 0 0 91.25523206251779,-23.1324276876081"/><text text-anchor="middle" pointer-events="none" font-size="8px" fill="#000000" x="62.39258585112584" y="-21.243867998895368" font-family="sans-serif">NEXT_WORD</text></g><g class="relationship" transform="translate(79.35597724496785 -14.554215040723562) rotate(361.5786861622471)"><path class="outline" fill="#68BDF6" stroke="none" d="M 20.40063509461097,-14.665063509461095 L 22.90063509461097,-10.334936490538901 A 78.780626673872 78.780626673872 0 0 1 32.33178075799134,-14.970667943593384 L 30.430350867265947,-19.595012694004637 A 83.780626673872 83.780626673872 0 0 0 20.40063509461097,-14.665063509461095 Z M 87.94217665277962,-21.866093311581082 L 86.41131986406857,-17.106211223497667 A 78.780626673872 78.780626673872 0 0 1 96.17864806648112,-13.228607012764767 L 94.88818995263979,-10.520338588767416 L 107.18434738267251,-10.753817615344365 L 99.61986970339133,-20.450656143424368 L 98.32941158955,-17.74238771942702 A 83.780626673872 83.780626673872 0 0 0 87.94217665277962,-21.866093311581082"/><text text-anchor="middle" pointer-events="none" font-size="8px" fill="#000000" x="59.08376286516525" y="-20.326239638609735" font-family="sans-serif">NEXT_WORD</text></g><g class="relationship" transform="translate(209.05997806104685 -10.97954085014149) rotate(378.77439555657)"><path class="outline" fill="#68BDF6" stroke="none" d="M 20.40063509461097,-14.665063509461095 L 22.90063509461097,-10.334936490538901 A 102.04091796544753 102.04091796544753 0 0 1 43.12271341540526,-19.24701808261038 L 41.61359426614602,-24.013836664572466 A 107.04091796544753 107.04091796544753 0 0 0 20.40063509461097,-14.665063509461095 Z M 99.22315121792508,-25.972428378148265 L 98.04126406572605,-21.11412180492063 A 102.04091796544753 102.04091796544753 0 0 1 118.82192999133869,-13.596038697893976 L 117.50184673035093,-10.902086177143111 L 129.799825284915,-11.0006938415646 L 122.34215202063936,-20.77991208656295 L 121.0220687596516,-18.085959565812082 A 107.04091796544753 107.04091796544753 0 0 0 99.22315121792508,-25.972428378148265"/><text text-anchor="middle" pointer-events="none" font-size="8px" fill="#000000" x="70.36899685869528" y="-23.445463164658335" font-family="sans-serif">NEXT_WORD</text></g><g class="relationship" transform="translate(353.2086997300664 38.020814885044544) rotate(412.8449466713832)"><path class="outline" fill="#68BDF6" stroke="none" d="M 25 2.5 L 48.46136468256441 2.5 L 48.46136468256441 -2.5 L 25 -2.5 Z M 105.46136468256441 2.5 L 128.92272936512882 2.5 L 128.92272936512882 5.5 L 139.92272936512882 0 L 128.92272936512882 -5.5 L 128.92272936512882 -2.5 L 105.46136468256441 -2.5 Z"/><text text-anchor="middle" pointer-events="none" font-size="8px" fill="#000000" x="76.96136468256441" y="3" font-family="sans-serif">NEXT_WORD</text></g><g class="relationship" transform="translate(452.8177529974595 169.4648834785614) rotate(384.0856230746276)"><path class="outline" fill="#68BDF6" stroke="none" d="M 20.40063509461097,-14.665063509461095 L 22.90063509461097,-10.334936490538901 A 111.73037998384538 111.73037998384538 0 0 1 47.71572632711477,-20.902844979469165 L 46.3262162062368,-25.705892098119747 A 116.73037998384538 116.73037998384538 0 0 0 20.40063509461097,-14.665063509461095 Z M 103.94155191095354,-27.556764957869547 L 102.86318110346092,-22.674438012493226 A 111.73037998384538 111.73037998384538 0 0 1 128.30538798570203,-13.721027954356988 L 126.97523329797077,-11.032033996255446 L 139.27349473851703,-11.084622397760374 L 131.85246715298533,-20.89167850929443 L 130.5223124652541,-18.20268455119289 A 116.73037998384538 116.73037998384538 0 0 0 103.94155191095354,-27.556764957869547"/><text text-anchor="middle" pointer-events="none" font-size="8px" fill="#000000" x="75.09810542881462" y="-24.745072108491087" font-family="sans-serif">NEXT_WORD</text></g><g class="relationship" transform="translate(79.35597724496785 -14.554215040723562) rotate(361.5786861622471)"><path class="outline" fill="#6DCE9E" stroke="none" d="M 25 2.5 L 45.876625457991864 2.5 L 45.876625457991864 -2.5 L 25 -2.5 Z M 72.87662545799186 2.5 L 93.75325091598373 2.5 L 93.75325091598373 5.5 L 104.75325091598373 0 L 93.75325091598373 -5.5 L 93.75325091598373 -2.5 L 72.87662545799186 -2.5 Z"/><text text-anchor="middle" pointer-events="none" font-size="8px" fill="#000000" x="59.376625457991864" y="3" font-family="sans-serif">NEXT</text></g><g class="relationship" transform="translate(79.35597724496785 -14.554215040723562) rotate(361.5786861622471)"><path class="outline" fill="#DE9BF9" stroke="none" d="M 20.40063509461097,14.665063509461095 L 22.90063509461097,10.334936490538901 A 78.780626673872 78.780626673872 0 0 0 30.548186425691974,14.211507420759702 L 28.533556475027808,18.787670241495746 A 83.780626673872 83.780626673872 0 0 1 20.40063509461097,14.665063509461095 Z M 89.89672753391731,21.21083637335545 L 88.24922379717458,16.490059801919486 A 78.780626673872 78.780626673872 0 0 0 96.17864806648112,13.228607012764767 L 94.88818995263979,10.520338588767416 L 107.18434738267251,10.753817615344365 L 99.61986970339133,20.450656143424368 L 98.32941158955,17.74238771942702 A 83.780626673872 83.780626673872 0 0 1 89.89672753391731,21.21083637335545"/><text text-anchor="middle" pointer-events="none" font-size="8px" fill="#000000" x="59.08376286516523" y="26.326239638609735" font-family="sans-serif">NEXT_SIBLING</text></g><g class="relationship" transform="translate(-172.40121178365064 243.65569477404435) rotate(279.1949048545161)"><path class="outline" fill="#6DCE9E" stroke="none" d="M 25 2.5 L 61.17709414237069 2.5 L 61.17709414237069 -2.5 L 25 -2.5 Z M 88.17709414237069 2.5 L 124.35418828474138 2.5 L 124.35418828474138 5.5 L 135.35418828474138 0 L 124.35418828474138 -5.5 L 124.35418828474138 -2.5 L 88.17709414237069 -2.5 Z"/><text text-anchor="middle" pointer-events="none" font-size="8px" fill="#000000" x="74.67709414237069" y="3" font-family="sans-serif">NEXT</text></g><g class="relationship" transform="translate(-172.40121178365064 243.65569477404435) rotate(279.1949048545161)"><path class="outline" fill="#DE9BF9" stroke="none" d="M 20.40063509461097,14.665063509461095 L 22.90063509461097,10.334936490538901 A 110.36843119700137 110.36843119700137 0 0 0 45.19571530520454,20.107213970912355 L 43.70574507407922,24.880052613728637 A 115.36843119700137 115.36843119700137 0 0 1 20.40063509461097,14.665063509461095 Z M 105.2685495852715,26.873191844760996 L 104.09042405257091,22.013971719144237 A 110.36843119700137 110.36843119700137 0 0 0 126.97092059840668,13.704285409408321 L 125.64211481467575,11.014624614972856 L 137.9403483311125,11.073381531091119 L 130.51440268835583,20.876714194569562 L 129.1855969046249,18.187053400134097 A 115.36843119700137 115.36843119700137 0 0 1 105.2685495852715,26.873191844760996"/><text text-anchor="middle" pointer-events="none" font-size="8px" fill="#000000" x="74.43256923436765" y="30.56239538533366" font-family="sans-serif">NEXT_SIBLING</text></g><g class="relationship" transform="translate(-146.7776702032955 85.36198100960547) rotate(317.80577282948593)"><path class="outline" fill="#6DCE9E" stroke="none" d="M 25 2.5 L 42.356047721058665 2.5 L 42.356047721058665 -2.5 L 25 -2.5 Z M 69.35604772105867 2.5 L 86.71209544211733 2.5 L 86.71209544211733 5.5 L 97.71209544211733 0 L 86.71209544211733 -5.5 L 86.71209544211733 -2.5 L 69.35604772105867 -2.5 Z"/><text text-anchor="middle" pointer-events="none" font-size="8px" fill="#000000" x="55.856047721058665" y="3" font-family="sans-serif">NEXT</text></g><g class="relationship" transform="translate(-146.7776702032955 85.36198100960547) rotate(317.80577282948593)"><path class="outline" fill="#DE9BF9" stroke="none" d="M 20.40063509461097,14.665063509461095 L 22.90063509461097,10.334936490538901 A 71.44274162525899 71.44274162525899 0 0 0 27.286662094405887,12.667769185049437 L 25.09362308862424,17.16116210344866 A 76.44274162525899 76.44274162525899 0 0 1 20.40063509461097,14.665063509461095 Z M 86.32999021709279,19.708078000612886 L 84.51765436147397,15.048095302529305 A 71.44274162525899 71.44274162525899 0 0 0 89.0822503486885,13.087532960492698 L 87.80317382886979,10.373870627694377 L 100.09824266879797,10.65897099848933 L 92.4931210682051,20.32396584795489 L 91.21404454838638,17.61030351515657 A 76.44274162525899 76.44274162525899 0 0 1 86.32999021709279,19.708078000612886"/><text text-anchor="middle" pointer-events="none" font-size="8px" fill="#000000" x="55.54926865264213" y="25.342576598479667" font-family="sans-serif">NEXT_SIBLING</text></g><g class="relationship" transform="translate(-55.86368129355095 2.942899552007553) rotate(352.6270254717226)"><path class="outline" fill="#6DCE9E" stroke="none" d="M 25 2.5 L 49.17350121994758 2.5 L 49.17350121994758 -2.5 L 25 -2.5 Z M 76.17350121994758 2.5 L 100.34700243989516 2.5 L 100.34700243989516 5.5 L 111.34700243989516 0 L 100.34700243989516 -5.5 L 100.34700243989516 -2.5 L 76.17350121994758 -2.5 Z"/><text text-anchor="middle" pointer-events="none" font-size="8px" fill="#000000" x="62.67350121994758" y="3" font-family="sans-serif">NEXT</text></g><g class="relationship" transform="translate(-55.86368129355095 2.942899552007553) rotate(352.6270254717226)"><path class="outline" fill="#DE9BF9" stroke="none" d="M 20.40063509461097,14.665063509461095 L 22.90063509461097,10.334936490538901 A 85.62446527748995 85.62446527748995 0 0 0 33.65206122973808,15.57752677157805 L 31.779885654701445,20.21379236106236 A 90.62446527748995 90.62446527748995 0 0 1 20.40063509461097,14.665063509461095 Z M 93.22184047727629,22.530397205797556 L 91.70409509474142,17.766318181075775 A 85.62446527748995 85.62446527748995 0 0 0 102.81976801631765,13.348204070453821 L 101.51966412091674,10.644552861225204 L 113.81657569632335,10.834199128340973 L 106.28671173738677,20.5579406283968 L 104.98660784198586,17.854289419168182 A 90.62446527748995 90.62446527748995 0 0 1 93.22184047727629,22.530397205797556"/><text text-anchor="middle" pointer-events="none" font-size="8px" fill="#000000" x="62.392585851125844" y="27.243867998895368" font-family="sans-serif">NEXT_SIBLING</text></g><g class="relationship" transform="translate(209.05997806104685 -10.97954085014149) rotate(378.77439555657)"><path class="outline" fill="#6DCE9E" stroke="none" d="M 25 2.5 L 57.12471481225275 2.5 L 57.12471481225275 -2.5 L 25 -2.5 Z M 84.12471481225275 2.5 L 116.2494296245055 2.5 L 116.2494296245055 5.5 L 127.2494296245055 0 L 116.2494296245055 -5.5 L 116.2494296245055 -2.5 L 84.12471481225275 -2.5 Z"/><text text-anchor="middle" pointer-events="none" font-size="8px" fill="#000000" x="70.62471481225275" y="3" font-family="sans-serif">NEXT</text></g><g class="relationship" transform="translate(209.05997806104685 -10.97954085014149) rotate(378.77439555657)"><path class="outline" fill="#DE9BF9" stroke="none" d="M 20.40063509461097,14.665063509461095 L 22.90063509461097,10.334936490538901 A 102.04091796544753 102.04091796544753 0 0 0 41.26733315909333,18.640039703194233 L 39.66730046783029,23.37711637418971 A 107.04091796544753 107.04091796544753 0 0 1 20.40063509461097,14.665063509461095 Z M 101.20819504303273,25.46936447569695 L 99.9335842920998,20.63455657531391 A 102.04091796544753 102.04091796544753 0 0 0 118.82192999133869,13.596038697893976 L 117.50184673035093,10.902086177143111 L 129.799825284915,11.0006938415646 L 122.34215202063936,20.77991208656295 L 121.0220687596516,18.085959565812082 A 107.04091796544753 107.04091796544753 0 0 1 101.20819504303273,25.46936447569695"/><text text-anchor="middle" pointer-events="none" font-size="8px" fill="#000000" x="70.3689968586953" y="29.44546316465835" font-family="sans-serif">NEXT_SIBLING</text></g><g class="relationship" transform="translate(452.8177529974595 169.4648834785614) rotate(384.0856230746276)"><path class="outline" fill="#6DCE9E" stroke="none" d="M 25 2.5 L 61.840888861348276 2.5 L 61.840888861348276 -2.5 L 25 -2.5 Z M 88.84088886134828 2.5 L 125.68177772269655 2.5 L 125.68177772269655 5.5 L 136.68177772269655 0 L 125.68177772269655 -5.5 L 125.68177772269655 -2.5 L 88.84088886134828 -2.5 Z"/><text text-anchor="middle" pointer-events="none" font-size="8px" fill="#000000" x="75.34088886134828" y="3" font-family="sans-serif">NEXT</text></g><g class="relationship" transform="translate(452.8177529974595 169.4648834785614) rotate(384.0856230746276)"><path class="outline" fill="#DE9BF9" stroke="none" d="M 20.40063509461097,14.665063509461095 L 22.90063509461097,10.334936490538901 A 111.73037998384538 111.73037998384538 0 0 0 45.84140953981387,20.342782510707707 L 44.36802264399018,25.12076650557573 A 116.73037998384538 116.73037998384538 0 0 1 20.40063509461097,14.665063509461095 Z M 105.9332631141366,27.09852869851275 L 104.76957984542099,22.2358297308497 A 111.73037998384538 111.73037998384538 0 0 0 128.30538798570203,13.721027954356988 L 126.97523329797077,11.032033996255446 L 139.27349473851703,11.084622397760374 L 131.85246715298533,20.89167850929443 L 130.5223124652541,18.20268455119289 A 116.73037998384538 116.73037998384538 0 0 1 105.9332631141366,27.09852869851275"/><text text-anchor="middle" pointer-events="none" font-size="8px" fill="#000000" x="75.09810542881462" y="30.745072108491087" font-family="sans-serif">NEXT_SIBLING</text></g><g class="relationship" transform="translate(353.2086997300664 38.020814885044544) rotate(320.27126944134534)"><path class="outline" fill="#6DCE9E" stroke="none" d="M 25 2.5 L 41.927817601160456 2.5 L 41.927817601160456 -2.5 L 25 -2.5 Z M 68.92781760116046 2.5 L 85.85563520232091 2.5 L 85.85563520232091 5.5 L 96.85563520232091 0 L 85.85563520232091 -5.5 L 85.85563520232091 -2.5 L 68.92781760116046 -2.5 Z"/><text text-anchor="middle" pointer-events="none" font-size="8px" fill="#000000" x="55.427817601160456" y="3" font-family="sans-serif">NEXT</text></g><g class="relationship" transform="translate(446.9253284127104 -39.863646587835504) rotate(406.28969129800373)"><path class="outline" fill="#DE9BF9" stroke="none" d="M 23.501098044470403,-8.88529069328569 L 24.79519326998301,-4.055661561840347 A 170.5275348526392 170.5275348526392 0 0 1 35.912734335793246,-6.639149253548084 L 34.94461406427905,-11.544528254184371 A 175.5275348526392 175.5275348526392 0 0 0 23.501098044470403,-8.88529069328569 Z M 96.49538294131108,-12.68841148331802 L 95.71019513700953,-7.750448329144433 A 170.5275348526392 170.5275348526392 0 0 1 106.91605122492817,-5.581827260345261 L 106.24779989085143,-2.6572007620544706 L 118.19655783039168,-5.56876111730619 L 108.69805478246614,-13.380831255787369 L 108.0298034483894,-10.456204757496579 A 175.5275348526392 175.5275348526392 0 0 0 96.49538294131108,-12.68841148331802"/><text text-anchor="middle" pointer-events="none" font-size="8px" fill="#000000" x="65.71591171825932" y="-9.336374072260014" font-family="sans-serif">NEXT_SIBLING</text></g><g class="relationship" transform="translate(446.9253284127104 -39.863646587835504) rotate(406.28969129800373)"><path class="outline" fill="#6DCE9E" stroke="none" d="M 23.501098044470403,8.88529069328569 L 24.79519326998301,4.055661561840347 A 170.5275348526392 170.5275348526392 0 0 0 52.48284933166077,9.071146780853468 L 52.000577724122934,14.047833841194205 A 175.5275348526392 175.5275348526392 0 0 1 23.501098044470403,8.88529069328569 Z M 79.35818410201705,14.556258150034779 L 79.06115899121204,9.565088338903223 A 170.5275348526392 170.5275348526392 0 0 0 106.91605122492817,5.581827260345261 L 106.24779989085143,2.6572007620544706 L 118.19655783039168,5.56876111730619 L 108.69805478246614,13.380831255787369 L 108.0298034483894,10.456204757496579 A 175.5275348526392 175.5275348526392 0 0 1 79.35818410201705,14.556258150034779"/><text text-anchor="middle" pointer-events="none" font-size="8px" fill="#000000" x="65.71591171825938" y="15.336374072260014" font-family="sans-serif">NEXT</text></g><g class="relationship" transform="translate(452.8177529974595 169.4648834785614) rotate(311.0741118081749)"><path class="outline" fill="#FB95AF" stroke="none" d="M 23.501098044470403,8.88529069328569 L 24.79519326998301,4.055661561840347 A 167.3424646962757 167.3424646962757 0 0 0 37.54886404421638,6.944048858157288 L 36.63583380413294,11.859979673444798 A 172.3424646962757 172.3424646962757 0 0 1 23.501098044470403,8.88529069328569 Z M 93.19310532714388,12.922123610580712 L 92.46529586986418,7.9753778728361056 A 167.3424646962757 167.3424646962757 0 0 0 105.31842311223157,5.567885508866288 L 104.6513154598136,2.64299792468713 L 116.59893396457011,5.559230436816383 L 107.0973768520128,13.367585733344043 L 106.43026919959483,10.442698149164885 A 172.3424646962757 172.3424646962757 0 0 1 93.19310532714388,12.922123610580712"/><text text-anchor="middle" pointer-events="none" font-size="8px" fill="#000000" x="64.9175358953327" y="15.227775051113952" font-family="sans-serif">IS_CHILD_OF</text></g><g class="relationship" transform="translate(452.8177529974595 169.4648834785614) rotate(311.0741118081749)"><path class="outline" fill="#FB95AF" stroke="none" d="M 23.501098044470403,-8.88529069328569 L 24.79519326998301,-4.055661561840347 A 167.3424646962757 167.3424646962757 0 0 1 29.83590840695848,-5.322754057698404 L 28.69242394082857,-10.190242452725101 A 172.3424646962757 172.3424646962757 0 0 0 23.501098044470403,-8.88529069328569 Z M 101.1936072091341,-11.551812595165217 L 100.23368717202459,-6.6448223238934645 A 167.3424646962757 167.3424646962757 0 0 1 105.31842311223157,-5.567885508866288 L 104.6513154598136,-2.64299792468713 L 116.59893396457011,-5.559230436816383 L 107.0973768520128,-13.367585733344043 L 106.43026919959483,-10.442698149164885 A 172.3424646962757 172.3424646962757 0 0 0 101.1936072091341,-11.551812595165217"/><text text-anchor="middle" pointer-events="none" font-size="8px" fill="#000000" x="64.9175358953327" y="-9.227775051113952" font-family="sans-serif">FIRST_CHILD_OF</text></g><g class="relationship" transform="translate(600.4229668379826 235.4474424973271) rotate(252.29788723387833)"><path class="outline" fill="#FB95AF" stroke="none" d="M 25 2.5 L 56.909101907826795 2.5 L 56.909101907826795 -2.5 L 25 -2.5 Z M 112.9091019078268 2.5 L 144.8182038156536 2.5 L 144.8182038156536 5.5 L 155.8182038156536 0 L 144.8182038156536 -5.5 L 144.8182038156536 -2.5 L 112.9091019078268 -2.5 Z"/><text text-anchor="middle" pointer-events="none" font-size="8px" fill="#000000" x="84.9091019078268" y="3" transform="rotate(180 84.9091019078268 0)" font-family="sans-serif">IS_CHILD_OF</text></g><g class="relationship" transform="translate(353.2086997300664 38.020814885044544) rotate(524.135727079652)"><path class="outline" fill="#FB95AF" stroke="none" d="M 23.501098044470403,8.88529069328569 L 24.79519326998301,4.055661561840347 A 391.64873498128884 391.64873498128884 0 0 0 88.23820565820664,15.560405921937615 L 87.75405831100463,20.536910854739062 A 396.64873498128884 396.64873498128884 0 0 1 23.501098044470403,8.88529069328569 Z M 156.0966049103924,21.269541653264923 L 155.7192526412826,16.283801460976747 A 391.64873498128884 391.64873498128884 0 0 0 219.39431815631994,6.141760476088178 L 218.68016055828258,3.228003635655967 L 230.67322456960252,5.951313316978026 L 221.29873841775293,13.911778717240743 L 220.58458081971557,10.998021876808531 A 396.64873498128884 396.64873498128884 0 0 1 156.0966049103924,21.269541653264923"/><text text-anchor="middle" pointer-events="none" font-size="8px" fill="#000000" x="121.9363206964324" y="22.87812315245941" transform="rotate(180 121.9363206964324 19.87812315245941)" font-family="sans-serif">LAST_CHILD_OF</text></g><g class="relationship" transform="translate(353.2086997300664 38.020814885044544) rotate(524.135727079652)"><path class="outline" fill="#FB95AF" stroke="none" d="M 23.501098044470403,-8.88529069328569 L 24.79519326998301,-4.055661561840347 A 391.64873498128884 391.64873498128884 0 0 1 94.17629841072744,-16.092511161583616 L 93.76795997368065,-21.0758092382423 A 396.64873498128884 396.64873498128884 0 0 0 23.501098044470403,-8.88529069328569 Z M 150.07253266667885,-21.6793931856555 L 149.7711175141213,-16.68848656402764 A 391.64873498128884 391.64873498128884 0 0 1 219.39431815631994,-6.141760476088178 L 218.68016055828258,-3.228003635655967 L 230.67322456960252,-5.951313316978026 L 221.29873841775293,-13.911778717240743 L 220.58458081971557,-10.998021876808531 A 396.64873498128884 396.64873498128884 0 0 0 150.07253266667885,-21.6793931856555"/><text text-anchor="middle" pointer-events="none" font-size="8px" fill="#000000" x="121.93632069643229" y="-16.87812315245941" transform="rotate(180 121.93632069643229 -19.87812315245941)" font-family="sans-serif">IS_CHILD_OF</text></g><g class="relationship" transform="translate(79.35597724496785 -14.554215040723562) rotate(436.83068948837604)"><path class="outline" fill="#FB95AF" stroke="none" d="M 25 2.5 L 29.285832223884192 2.5 L 29.285832223884192 -2.5 L 25 -2.5 Z M 85.2858322238842 2.5 L 89.57166444776838 2.5 L 89.57166444776838 5.5 L 100.57166444776838 0 L 89.57166444776838 -5.5 L 89.57166444776838 -2.5 L 85.2858322238842 -2.5 Z"/><text text-anchor="middle" pointer-events="none" font-size="8px" fill="#000000" x="57.28583222388419" y="3" font-family="sans-serif">IS_CHILD_OF</text></g><g class="relationship" transform="translate(-172.40121178365064 243.65569477404435) rotate(334.13272223523745)"><path class="outline" fill="#FB95AF" stroke="none" d="M 25 2.5 L 122.29233721429003 2.5 L 122.29233721429003 -2.5 L 25 -2.5 Z M 178.29233721429003 2.5 L 275.58467442858006 2.5 L 275.58467442858006 5.5 L 286.58467442858006 0 L 275.58467442858006 -5.5 L 275.58467442858006 -2.5 L 178.29233721429003 -2.5 Z"/><text text-anchor="middle" pointer-events="none" font-size="8px" fill="#000000" x="150.29233721429003" y="3" font-family="sans-serif">IS_CHILD_OF</text></g><g class="relationship" transform="translate(-146.7776702032955 85.36198100960547) rotate(365.01472751347603)"><path class="outline" fill="#FB95AF" stroke="none" d="M 25 2.5 L 94.36069669538247 2.5 L 94.36069669538247 -2.5 L 25 -2.5 Z M 150.36069669538247 2.5 L 219.72139339076494 2.5 L 219.72139339076494 5.5 L 230.72139339076494 0 L 219.72139339076494 -5.5 L 219.72139339076494 -2.5 L 150.36069669538247 -2.5 Z"/><text text-anchor="middle" pointer-events="none" font-size="8px" fill="#000000" x="122.36069669538247" y="3" font-family="sans-serif">IS_CHILD_OF</text></g><g class="relationship" transform="translate(-55.86368129355095 2.942899552007553) rotate(392.59985318485343)"><path class="outline" fill="#FB95AF" stroke="none" d="M 25 2.5 L 63.732972563008644 2.5 L 63.732972563008644 -2.5 L 25 -2.5 Z M 119.73297256300864 2.5 L 158.4659451260173 2.5 L 158.4659451260173 5.5 L 169.4659451260173 0 L 158.4659451260173 -5.5 L 158.4659451260173 -2.5 L 119.73297256300864 -2.5 Z"/><text text-anchor="middle" pointer-events="none" font-size="8px" fill="#000000" x="91.73297256300864" y="3" font-family="sans-serif">IS_CHILD_OF</text></g><g class="relationship" transform="translate(209.05997806104685 -10.97954085014149) rotate(490.421849671127)"><path class="outline" fill="#FB95AF" stroke="none" d="M 25 2.5 L 44.45611408769278 2.5 L 44.45611408769278 -2.5 L 25 -2.5 Z M 100.45611408769278 2.5 L 119.91222817538556 2.5 L 119.91222817538556 5.5 L 130.91222817538556 0 L 119.91222817538556 -5.5 L 119.91222817538556 -2.5 L 100.45611408769278 -2.5 Z"/><text text-anchor="middle" pointer-events="none" font-size="8px" fill="#000000" x="72.45611408769278" y="3" transform="rotate(180 72.45611408769278 0)" font-family="sans-serif">IS_CHILD_OF</text></g><g class="relationship" transform="translate(107.96488878362472 107.71504966940807) rotate(376.0982664515371)"><path class="outline" fill="#FB95AF" stroke="none" d="M 20.40063509461097,14.665063509461095 L 22.90063509461097,10.334936490538901 A 163.58921976329205 163.58921976329205 0 0 0 65.56937141355036,27.50394310481522 L 64.37351408201835,32.3588298432079 A 168.58921976329205 168.58921976329205 0 0 1 20.40063509461097,14.665063509461095 Z M 136.8641251037551,34.154172287878595 L 135.91006409758091,29.24603948644605 A 163.58921976329205 163.58921976329205 0 0 0 179.37640087715815,14.210301588337725 L 178.0068517832332,11.54115654182388 L 190.304556959313,11.412909116041169 L 183.0285317942913,21.328021712374643 L 181.65898270036635,18.6588766658608 A 168.58921976329205 168.58921976329205 0 0 1 136.8641251037551,34.154172287878595"/><text text-anchor="middle" pointer-events="none" font-size="8px" fill="#000000" x="100.58304875658469" y="37.70082150033869" font-family="sans-serif">FIRST_CHILD_OF</text></g><g class="relationship" transform="translate(312.17781433118324 166.65138851548372) rotate(196.09826645153709)"><path class="outline" fill="#6DCE9E" stroke="none" d="M 25 2.5 L 87.27371617346424 2.5 L 87.27371617346424 -2.5 L 25 -2.5 Z M 114.27371617346424 2.5 L 176.54743234692847 2.5 L 176.54743234692847 5.5 L 187.54743234692847 0 L 176.54743234692847 -5.5 L 176.54743234692847 -2.5 L 114.27371617346424 -2.5 Z"/><text text-anchor="middle" pointer-events="none" font-size="8px" fill="#000000" x="100.77371617346424" y="3" transform="rotate(180 100.77371617346424 0)" font-family="sans-serif">NEXT</text></g><g class="relationship" transform="translate(107.96488878362472 107.71504966940807) rotate(376.0982664515371)"><path class="outline" fill="#FB95AF" stroke="none" d="M 20.40063509461097,-14.665063509461095 L 22.90063509461097,-10.334936490538901 A 163.58921976329205 163.58921976329205 0 0 1 73.2626879389733,-29.203561549615415 L 72.30197191249044,-34.11039604004395 A 168.58921976329205 168.58921976329205 0 0 0 20.40063509461097,-14.665063509461095 Z M 128.85868033489646,-35.51111066681352 L 128.14204390367723,-30.562733940507286 A 163.58921976329205 163.58921976329205 0 0 1 179.37640087715815,-14.210301588337725 L 178.0068517832332,-11.54115654182388 L 190.304556959313,-11.412909116041169 L 183.0285317942913,-21.328021712374643 L 181.65898270036635,-18.6588766658608 A 168.58921976329205 168.58921976329205 0 0 0 128.85868033489646,-35.51111066681352"/><text text-anchor="middle" pointer-events="none" font-size="8px" fill="#000000" x="100.5830487565847" y="-31.70082150033869" font-family="sans-serif">IS_CHILD_OF</text></g><g class="relationship" transform="translate(107.96488878362472 107.71504966940807) rotate(336.47235585324245)"><path class="outline" fill="#DE9BF9" stroke="none" d="M 25 2.5 L 148.8469983679278 2.5 L 148.8469983679278 -2.5 L 25 -2.5 Z M 209.8469983679278 2.5 L 333.6939967358556 2.5 L 333.6939967358556 5.5 L 344.6939967358556 0 L 333.6939967358556 -5.5 L 333.6939967358556 -2.5 L 209.8469983679278 -2.5 Z"/><text text-anchor="middle" pointer-events="none" font-size="8px" fill="#000000" x="179.3469983679278" y="3" font-family="sans-serif">NEXT_SIBLING</text></g><g class="relationship" transform="translate(545.4419029119988 63.19093190720129) rotate(516.0811059347753)"><path class="outline" fill="#FB95AF" stroke="none" d="M 25 2.5 L 94.08938151648128 2.5 L 94.08938151648128 -2.5 L 25 -2.5 Z M 150.0893815164813 2.5 L 219.17876303296256 2.5 L 219.17876303296256 5.5 L 230.17876303296256 0 L 219.17876303296256 -5.5 L 219.17876303296256 -2.5 L 150.0893815164813 -2.5 Z"/><text text-anchor="middle" pointer-events="none" font-size="8px" fill="#000000" x="122.08938151648128" y="3" transform="rotate(180 122.08938151648128 0)" font-family="sans-serif">IS_CHILD_OF</text></g><g class="relationship" transform="translate(446.9253284127104 -39.863646587835504) rotate(483.12375803128407)"><path class="outline" fill="#FB95AF" stroke="none" d="M 25 2.5 L 89.79370652518779 2.5 L 89.79370652518779 -2.5 L 25 -2.5 Z M 145.7937065251878 2.5 L 210.58741305037557 2.5 L 210.58741305037557 5.5 L 221.58741305037557 0 L 210.58741305037557 -5.5 L 210.58741305037557 -2.5 L 145.7937065251878 -2.5 Z"/><text text-anchor="middle" pointer-events="none" font-size="8px" fill="#000000" x="117.79370652518779" y="3" transform="rotate(180 117.79370652518779 0)" font-family="sans-serif">IS_CHILD_OF</text></g></g><g class="layer nodes"><g class="node" transform="translate(79.35597724496785,-14.554215040723562)"><circle class="outline" cx="0" cy="0" r="25" fill="#FFD86E" stroke="#EDBA39" stroke-width="2px"/><text text-anchor="middle" pointer-events="none" font-family="sans-serif" dy="1.5625" font-size="25" fill="#604A0E"/><text text-anchor="middle" pointer-events="none" y="5" font-size="10px" fill="#604A0E" font-family="sans-serif"> Bilder</text></g><g class="node" transform="translate(-172.40121178365064,243.65569477404435)"><circle class="outline" cx="0" cy="0" r="25" fill="#FFD86E" stroke="#EDBA39" stroke-width="2px"/><text text-anchor="middle" pointer-events="none" font-family="sans-serif" dy="1.5625" font-size="25" fill="#604A0E"/><text text-anchor="middle" pointer-events="none" y="5" font-size="10px" fill="#604A0E" font-family="sans-serif"> mit</text></g><g class="node" transform="translate(-146.7776702032955,85.36198100960547)"><circle class="outline" cx="0" cy="0" r="25" fill="#FFD86E" stroke="#EDBA39" stroke-width="2px"/><text text-anchor="middle" pointer-events="none" font-family="sans-serif" dy="1.5625" font-size="25" fill="#604A0E"/><text text-anchor="middle" pointer-events="none" y="5" font-size="10px" fill="#604A0E" font-family="sans-serif"> euch</text></g><g class="node" transform="translate(-55.86368129355095,2.942899552007553)"><circle class="outline" cx="0" cy="0" r="25" fill="#FFD86E" stroke="#EDBA39" stroke-width="2px"/><text text-anchor="middle" pointer-events="none" font-family="sans-serif" dy="1.5625" font-size="25" fill="#604A0E"/><text text-anchor="middle" pointer-events="none" y="5" font-size="10px" fill="#604A0E" font-family="sans-serif"> die</text></g><g class="node" transform="translate(209.05997806104685,-10.97954085014149)"><circle class="outline" cx="0" cy="0" r="25" fill="#FFD86E" stroke="#EDBA39" stroke-width="2px"/><text text-anchor="middle" pointer-events="none" font-family="sans-serif" dy="1.5625" font-size="25" fill="#604A0E"/><text text-anchor="middle" pointer-events="none" y="5" font-size="10px" fill="#604A0E" font-family="sans-serif"> froher</text></g><g class="node" transform="translate(353.2086997300664,38.020814885044544)"><circle class="outline" cx="0" cy="0" r="25" fill="#FFD86E" stroke="#EDBA39" stroke-width="2px"/><text text-anchor="middle" pointer-events="none" font-family="sans-serif" dy="1.5625" font-size="25" fill="#604A0E"/><text text-anchor="middle" pointer-events="none" y="5" font-size="10px" fill="#604A0E" font-family="sans-serif"> Tage,</text></g><g class="node" transform="translate(452.8177529974595,169.4648834785614)"><circle class="outline" cx="0" cy="0" r="25" fill="#FFD86E" stroke="#EDBA39" stroke-width="2px"/><text text-anchor="middle" pointer-events="none" font-family="sans-serif" dy="1.5625" font-size="25" fill="#604A0E"/><text text-anchor="middle" pointer-events="none" y="5" font-size="10px" fill="#604A0E" font-family="sans-serif"> Und</text></g><g class="node" transform="translate(600.4229668379826,235.4474424973271)"><circle class="outline" cx="0" cy="0" r="25" fill="#FFD86E" stroke="#EDBA39" stroke-width="2px"/><text text-anchor="middle" pointer-events="none" font-family="sans-serif" dy="1.5625" font-size="25" fill="#604A0E"/><text text-anchor="middle" pointer-events="none" y="5" font-size="10px" fill="#604A0E" font-family="sans-serif"> manche</text></g><g class="node" transform="translate(446.9253284127104,-39.863646587835504)"><circle class="outline" cx="0" cy="0" r="25" fill="#A5ABB6" stroke="#9AA1AC" stroke-width="2px"/><text text-anchor="middle" pointer-events="none" font-family="sans-serif" dy="1.5625" font-size="25" fill="#FFFFFF"/><text text-anchor="middle" pointer-events="none" y="5" font-size="10px" fill="#FFFFFF" font-family="sans-serif"> lb</text></g><g class="node" transform="translate(545.4419029119988,63.19093190720129)"><circle class="outline" cx="0" cy="0" r="25" fill="#A5ABB6" stroke="#9AA1AC" stroke-width="2px"/><text text-anchor="middle" pointer-events="none" font-family="sans-serif" dy="1.5625" font-size="25" fill="#FFFFFF"/><text text-anchor="middle" pointer-events="none" y="5" font-size="10px" fill="#FFFFFF" font-family="sans-serif"> l</text></g><g class="node" transform="translate(107.96488878362472,107.71504966940807)"><circle class="outline" cx="0" cy="0" r="25" fill="#A5ABB6" stroke="#9AA1AC" stroke-width="2px"/><text text-anchor="middle" pointer-events="none" font-family="sans-serif" dy="1.5625" font-size="25" fill="#FFFFFF"/><text text-anchor="middle" pointer-events="none" y="5" font-size="10px" fill="#FFFFFF" font-family="sans-serif"> l</text></g><g class="node" transform="translate(312.17781433118324,166.65138851548372)"><circle class="outline" cx="0" cy="0" r="25" fill="#A5ABB6" stroke="#9AA1AC" stroke-width="2px"/><text text-anchor="middle" pointer-events="none" font-family="sans-serif" dy="1.5625" font-size="25" fill="#FFFFFF"/><text text-anchor="middle" pointer-events="none" y="5" font-size="10px" fill="#FFFFFF" font-family="sans-serif"> lg</text></g></g></svg>