<svg xmlns="http://www.w3.org/2000/svg" width="369.87396240234375" height="247.94049072265625" viewBox="-186.52183532714844 46.28601837158203 369.87396240234375 247.94049072265625"><title>Neo4j Graph Visualization</title><desc>Created using Neo4j (http://www.neo4j.com/)</desc><g class="layer relationships"><g class="relationship" transform="translate(1.998875310486767 248.49530558731624) rotate(269.4361039772859)"><path class="outline" fill="#A5ABB6" stroke="none" d="M 40 0.5 L 47.608474728465964 0.5 L 47.608474728465964 -0.5 L 40 -0.5 Z M 103.60847472846596 0.5 L 111.21694945693193 0.5 L 111.21694945693193 3.5 L 118.21694945693193 0 L 111.21694945693193 -3.5 L 111.21694945693193 -0.5 L 103.60847472846596 -0.5 Z"/><text text-anchor="middle" pointer-events="none" font-size="8px" fill="#000000" x="75.60847472846596" y="3" transform="rotate(180 75.60847472846596 0)" font-family="sans-serif">IS_CHILD_OF</text></g><g class="relationship" transform="translate(1.998875310486767 248.49530558731624) rotate(360.72212442371864)"><path class="outline" fill="#A5ABB6" stroke="none" d="M 40 0.5 L 51.6820810169809 0.5 L 51.6820810169809 -0.5 L 40 -0.5 Z M 78.6820810169809 0.5 L 90.3641620339618 0.5 L 90.3641620339618 3.5 L 97.3641620339618 0 L 90.3641620339618 -3.5 L 90.3641620339618 -0.5 L 78.6820810169809 -0.5 Z"/><text text-anchor="middle" pointer-events="none" font-size="8px" fill="#000000" x="65.1820810169809" y="3" font-family="sans-serif">NEXT</text></g><g class="relationship" transform="translate(0.4417541928788751 90.28601866242533) rotate(409.02526726699983)"><path class="outline" fill="#A5ABB6" stroke="none" d="M 40 0.5 L 79.21790267439869 0.5 L 79.21790267439869 -0.5 L 40 -0.5 Z M 125.62415267439869 0.5 L 164.84205534879737 0.5 L 164.84205534879737 3.5 L 171.84205534879737 0 L 164.84205534879737 -3.5 L 164.84205534879737 -0.5 L 125.62415267439869 -0.5 Z"/><text text-anchor="middle" pointer-events="none" font-size="8px" fill="#000000" x="102.42102767439869" y="3" font-family="sans-serif">NEXT_TAG</text></g><g class="relationship" transform="translate(-142.52183778365776 248.19182046138238) rotate(360.12031764118257)"><path class="outline" fill="#A5ABB6" stroke="none" d="M 40 0.5 L 55.260515872192784 0.5 L 55.260515872192784 -0.5 L 40 -0.5 Z M 82.26051587219278 0.5 L 97.52103174438557 0.5 L 97.52103174438557 3.5 L 104.52103174438557 0 L 97.52103174438557 -3.5 L 97.52103174438557 -0.5 L 82.26051587219278 -0.5 Z"/><text text-anchor="middle" pointer-events="none" font-size="8px" fill="#000000" x="68.76051587219278" y="3" font-family="sans-serif">NEXT</text></g></g><g class="layer nodes"><g class="node" transform="translate(1.998875310486767,248.49530558731624)"><circle class="outline" cx="0" cy="0" r="40" fill="#FFD86E" stroke="#EDBA39" stroke-width="2px"/><text text-anchor="middle" pointer-events="none" font-family="sans-serif" dy="2.5" font-size="40" fill="#604A0E"/><text class="caption" text-anchor="middle" pointer-events="none" y="5" font-size="10px" fill="#604A0E" font-family="sans-serif"> oder</text></g><g class="node" transform="translate(0.4417541928788751,90.28601866242533)"><circle class="outline" cx="0" cy="0" r="40" fill="#A5ABB6" stroke="#9AA1AC" stroke-width="2px"/><text text-anchor="middle" pointer-events="none" font-family="sans-serif" dy="2.5" font-size="40" fill="#FFFFFF"/><text class="caption" text-anchor="middle" pointer-events="none" y="5" font-size="10px" fill="#FFFFFF" font-family="sans-serif"> choice</text></g><g class="node" transform="translate(139.3521275517178,250.22652193695833)"><circle class="outline" cx="0" cy="0" r="40" fill="#FFD86E" stroke="#EDBA39" stroke-width="2px"/><text text-anchor="middle" pointer-events="none" font-family="sans-serif" dy="2.5" font-size="40" fill="#604A0E"/><text class="caption" text-anchor="middle" pointer-events="none" y="5" font-size="10px" fill="#604A0E" font-family="sans-serif"> zwei</text></g><g class="node" transform="translate(-142.52183778365776,248.19182046138238)"><circle class="outline" cx="0" cy="0" r="40" fill="#FFD86E" stroke="#EDBA39" stroke-width="2px"/><text text-anchor="middle" pointer-events="none" font-family="sans-serif" dy="2.5" font-size="40" fill="#604A0E"/><text class="caption" text-anchor="middle" pointer-events="none" y="5" font-size="10px" fill="#604A0E" font-family="sans-serif"> ein</text></g></g></svg>