<svg xmlns="http://www.w3.org/2000/svg" width="595.2898559570312" height="370.71820068359375" viewBox="-205.4808349609375 -75.3082275390625 595.2898559570312 370.71820068359375"><title>Neo4j Graph Visualization</title><desc>Created using Neo4j (http://www.neo4j.com/)</desc><g class="layer relationships"><g class="relationship" transform="translate(-161.48082746956322 250.64487919300618) rotate(359.84366282520966)"><path class="outline" fill="#A5ABB6" stroke="none" d="M 40 0.5 L 68.72467222758165 0.5 L 68.72467222758165 -0.5 L 40 -0.5 Z M 95.72467222758165 0.5 L 124.4493444551633 0.5 L 124.4493444551633 3.5 L 131.4493444551633 0 L 124.4493444551633 -3.5 L 124.4493444551633 -0.5 L 95.72467222758165 -0.5 Z"/><text text-anchor="middle" pointer-events="none" font-size="8px" fill="#000000" x="82.22467222758165" y="3" font-family="sans-serif">NEXT</text></g><g class="relationship" transform="translate(9.96787874442603 250.17706335911257) rotate(360.27328549111917)"><path class="outline" fill="#A5ABB6" stroke="none" d="M 40 0.5 L 65.5130504530982 0.5 L 65.5130504530982 -0.5 L 40 -0.5 Z M 92.5130504530982 0.5 L 118.0261009061964 0.5 L 118.0261009061964 3.5 L 125.0261009061964 0 L 118.0261009061964 -3.5 L 118.0261009061964 -0.5 L 92.5130504530982 -0.5 Z"/><text text-anchor="middle" pointer-events="none" font-size="8px" fill="#000000" x="79.0130504530982" y="3" font-family="sans-serif">NEXT</text></g><g class="relationship" transform="translate(9.96787874442603 250.17706335911257) rotate(269.64433404224263)"><path class="outline" fill="#A5ABB6" stroke="none" d="M 40 0.5 L 42.72433305067888 0.5 L 42.72433305067888 -0.5 L 40 -0.5 Z M 98.72433305067888 0.5 L 101.44866610135776 0.5 L 101.44866610135776 3.5 L 108.44866610135776 0 L 101.44866610135776 -3.5 L 101.44866610135776 -0.5 L 98.72433305067888 -0.5 Z"/><text text-anchor="middle" pointer-events="none" font-size="8px" fill="#000000" x="70.72433305067888" y="3" transform="rotate(180 70.72433305067888 0)" font-family="sans-serif">IS_CHILD_OF</text></g><g class="relationship" transform="translate(9.046383332851846 101.73125737767418) rotate(359.50605520874365)"><path class="outline" fill="#A5ABB6" stroke="none" d="M 40 0.5 L 55.380677675646695 0.5 L 55.380677675646695 -0.5 L 40 -0.5 Z M 101.7869276756467 0.5 L 117.16760535129339 0.5 L 117.16760535129339 3.5 L 124.16760535129339 0 L 117.16760535129339 -3.5 L 117.16760535129339 -0.5 L 101.7869276756467 -0.5 Z"/><text text-anchor="middle" pointer-events="none" font-size="8px" fill="#000000" x="78.5838026756467" y="3" font-family="sans-serif">NEXT_TAG</text></g><g class="relationship" transform="translate(174.99210245425326 250.96419058581694) rotate(269.3214444666092)"><path class="outline" fill="#A5ABB6" stroke="none" d="M 40 0.5 L 43.82938194549669 0.5 L 43.82938194549669 -0.5 L 40 -0.5 Z M 99.82938194549669 0.5 L 103.65876389099338 0.5 L 103.65876389099338 3.5 L 110.65876389099338 0 L 103.65876389099338 -3.5 L 103.65876389099338 -0.5 L 99.82938194549669 -0.5 Z"/><text text-anchor="middle" pointer-events="none" font-size="8px" fill="#000000" x="71.82938194549669" y="3" transform="rotate(180 71.82938194549669 0)" font-family="sans-serif">IS_CHILD_OF</text></g><g class="relationship" transform="translate(174.99210245425326 250.96419058581694) rotate(360.1495214453937)"><path class="outline" fill="#A5ABB6" stroke="none" d="M 40 0.5 L 68.40875353592503 0.5 L 68.40875353592503 -0.5 L 40 -0.5 Z M 95.40875353592503 0.5 L 123.81750707185006 0.5 L 123.81750707185006 3.5 L 130.81750707185006 0 L 123.81750707185006 -3.5 L 123.81750707185006 -0.5 L 95.40875353592503 -0.5 Z"/><text text-anchor="middle" pointer-events="none" font-size="8px" fill="#000000" x="81.90875353592503" y="3" font-family="sans-serif">NEXT</text></g><g class="relationship" transform="translate(82.39392790534896 -31.308227268520625) rotate(415.39631537140724)"><path class="outline" fill="#A5ABB6" stroke="none" d="M 40 0.5 L 48.456410773716584 0.5 L 48.456410773716584 -0.5 L 40 -0.5 Z M 104.45641077371658 0.5 L 112.91282154743317 0.5 L 112.91282154743317 3.5 L 119.91282154743317 0 L 112.91282154743317 -3.5 L 112.91282154743317 -0.5 L 104.45641077371658 -0.5 Z"/><text text-anchor="middle" pointer-events="none" font-size="8px" fill="#000000" x="76.45641077371658" y="3" font-family="sans-serif">IS_CHILD_OF</text></g><g class="relationship" transform="translate(82.39392790534896 -31.308227268520625) rotate(478.8688982705901)"><path class="outline" fill="#A5ABB6" stroke="none" d="M 40 0.5 L 44.45947401367974 0.5 L 44.45947401367974 -0.5 L 40 -0.5 Z M 100.45947401367974 0.5 L 104.91894802735948 0.5 L 104.91894802735948 3.5 L 111.91894802735948 0 L 104.91894802735948 -3.5 L 104.91894802735948 -0.5 L 100.45947401367974 -0.5 Z"/><text text-anchor="middle" pointer-events="none" font-size="8px" fill="#000000" x="72.45947401367974" y="3" transform="rotate(180 72.45947401367974 0)" font-family="sans-serif">IS_CHILD_OF</text></g></g><g class="layer nodes"><g class="node" transform="translate(-161.48082746956322,250.64487919300618)"><circle class="outline" cx="0" cy="0" r="40" fill="#FFD86E" stroke="#EDBA39" stroke-width="2px"/><text text-anchor="middle" pointer-events="none" font-family="sans-serif" dy="2.5" font-size="40" fill="#604A0E"/><text class="caption" text-anchor="middle" pointer-events="none" y="5" font-size="10px" fill="#604A0E" font-family="sans-serif"> des</text></g><g class="node" transform="translate(9.96787874442603,250.17706335911257)"><circle class="outline" cx="0" cy="0" r="40" fill="#FFD86E" stroke="#EDBA39" stroke-width="2px"/><text text-anchor="middle" pointer-events="none" font-family="sans-serif" dy="2.5" font-size="40" fill="#604A0E"/><text class="caption" text-anchor="middle" pointer-events="none" y="5" font-size="10px" fill="#604A0E" font-family="sans-serif"> Nordamerikan.</text></g><g class="node" transform="translate(174.99210245425326,250.96419058581694)"><circle class="outline" cx="0" cy="0" r="40" fill="#FFD86E" stroke="#EDBA39" stroke-width="2px"/><text text-anchor="middle" pointer-events="none" font-family="sans-serif" dy="2.5" font-size="40" fill="#604A0E"/><text class="caption" text-anchor="middle" pointer-events="none" y="5" font-size="10px" fill="#604A0E" font-family="sans-serif"> Nordamerikani…</text></g><g class="node" transform="translate(9.046383332851846,101.73125737767418)"><circle class="outline" cx="0" cy="0" r="40" fill="#A5ABB6" stroke="#9AA1AC" stroke-width="2px"/><text text-anchor="middle" pointer-events="none" font-family="sans-serif" dy="2.5" font-size="40" fill="#FFFFFF"/><text class="caption" text-anchor="middle" pointer-events="none" y="5" font-size="10px" fill="#FFFFFF" font-family="sans-serif"> abbr</text></g><g class="node" transform="translate(173.20788817147795,100.31599206835959)"><circle class="outline" cx="0" cy="0" r="40" fill="#A5ABB6" stroke="#9AA1AC" stroke-width="2px"/><text text-anchor="middle" pointer-events="none" font-family="sans-serif" dy="2.5" font-size="40" fill="#FFFFFF"/><text class="caption" text-anchor="middle" pointer-events="none" y="5" font-size="10px" fill="#FFFFFF" font-family="sans-serif"> expan</text></g><g class="node" transform="translate(345.80902787327295,251.40996253940784)"><circle class="outline" cx="0" cy="0" r="40" fill="#FFD86E" stroke="#EDBA39" stroke-width="2px"/><text text-anchor="middle" pointer-events="none" font-family="sans-serif" dy="2.5" font-size="40" fill="#604A0E"/><text class="caption" text-anchor="middle" pointer-events="none" y="5" font-size="10px" fill="#604A0E" font-family="sans-serif"> Freistaats</text></g><g class="node" transform="translate(82.39392790534896,-31.308227268520625)"><circle class="outline" cx="0" cy="0" r="40" fill="#A5ABB6" stroke="#9AA1AC" stroke-width="2px"/><text text-anchor="middle" pointer-events="none" font-family="sans-serif" dy="2.5" font-size="40" fill="#FFFFFF"/><text class="caption" text-anchor="middle" pointer-events="none" y="5" font-size="10px" fill="#FFFFFF" font-family="sans-serif"> choice</text></g></g></svg>