<svg xmlns="http://www.w3.org/2000/svg" width="731.2443237304688" height="223.9555206298828" viewBox="-267.30548095703125 32.24113464355469 731.2443237304688 223.9555206298828"><title>Neo4j Graph Visualization</title><desc>Created using Neo4j (http://www.neo4j.com/)</desc><g class="layer relationships"><g class="relationship" transform="translate(-238.30546328680384 61.24113427661203) rotate(360.82232041712246)"><path class="outline" fill="#68BDF6" stroke="none" d="M 25 2.5 L 26.955230142826778 2.5 L 26.955230142826778 -2.5 L 25 -2.5 Z M 76.81069889282678 2.5 L 78.76592903565356 2.5 L 78.76592903565356 5.5 L 89.76592903565356 0 L 78.76592903565356 -5.5 L 78.76592903565356 -2.5 L 76.81069889282678 -2.5 Z"/><text text-anchor="middle" pointer-events="none" font-size="8px" fill="#000000" x="51.88296451782678" y="3" font-family="sans-serif">NEXT_TO…</text></g><g class="relationship" transform="translate(-123.55135411320276 62.88822115650376) rotate(362.80052771159444)"><path class="outline" fill="#68BDF6" stroke="none" d="M 25 2.5 L 26.489621627300195 2.5 L 26.489621627300195 -2.5 L 25 -2.5 Z M 76.3450903773002 2.5 L 77.83471200460039 2.5 L 77.83471200460039 5.5 L 88.83471200460039 0 L 77.83471200460039 -5.5 L 77.83471200460039 -2.5 L 76.3450903773002 -2.5 Z"/><text text-anchor="middle" pointer-events="none" font-size="8px" fill="#000000" x="51.417356002300195" y="3" font-family="sans-serif">NEXT_TO…</text></g><g class="relationship" transform="translate(-9.85259634199403 68.45006783313153) rotate(360.38209253556147)"><path class="outline" fill="#68BDF6" stroke="none" d="M 25 2.5 L 34.49660566823208 2.5 L 34.49660566823208 -2.5 L 25 -2.5 Z M 92.35207441823208 2.5 L 101.84868008646416 2.5 L 101.84868008646416 5.5 L 112.84868008646416 0 L 101.84868008646416 -5.5 L 101.84868008646416 -2.5 L 92.35207441823208 -2.5 Z"/><text text-anchor="middle" pointer-events="none" font-size="8px" fill="#000000" x="63.42434004323208" y="3" font-family="sans-serif">NEXT_TOKEN</text></g><g class="relationship" transform="translate(127.99301851601095 69.36934254664037) rotate(361.63884320640767)"><path class="outline" fill="#68BDF6" stroke="none" d="M 25 2.5 L 33.22047339657752 2.5 L 33.22047339657752 -2.5 L 25 -2.5 Z M 91.07594214657752 2.5 L 99.29641554315504 2.5 L 99.29641554315504 5.5 L 110.29641554315504 0 L 99.29641554315504 -5.5 L 99.29641554315504 -2.5 L 91.07594214657752 -2.5 Z"/><text text-anchor="middle" pointer-events="none" font-size="8px" fill="#000000" x="62.14820777157752" y="3" font-family="sans-serif">NEXT_TOKEN</text></g><g class="relationship" transform="translate(263.23409188320653 73.2387266468436) rotate(367.2789402639604)"><path class="outline" fill="#68BDF6" stroke="none" d="M 25 2.5 L 27.128800789354443 2.5 L 27.128800789354443 -2.5 L 25 -2.5 Z M 71.12880078935444 2.5 L 73.25760157870889 2.5 L 73.25760157870889 5.5 L 84.25760157870889 0 L 73.25760157870889 -5.5 L 73.25760157870889 -2.5 L 71.12880078935444 -2.5 Z"/><text text-anchor="middle" pointer-events="none" font-size="8px" fill="#000000" x="49.12880078935444" y="3" font-family="sans-serif">NEXT_T…</text></g><g class="relationship" transform="translate(371.61119515572864 87.08166668821373) rotate(527.3761533216893)"><path class="outline" fill="#68BDF6" stroke="none" d="M 25 2.5 L 270.68512190051797 2.5 L 270.68512190051797 -2.5 L 25 -2.5 Z M 328.54059065051797 2.5 L 574.2257125510359 2.5 L 574.2257125510359 5.5 L 585.2257125510359 0 L 574.2257125510359 -5.5 L 574.2257125510359 -2.5 L 328.54059065051797 -2.5 Z"/><text text-anchor="middle" pointer-events="none" font-size="8px" fill="#000000" x="299.61285627551797" y="3" transform="rotate(180 299.61285627551797 0)" font-family="sans-serif">NEXT_TOKEN</text></g><g class="relationship" transform="translate(-223.86285116872418 220.44613126706224) rotate(359.40118609557646)"><path class="outline" fill="#68BDF6" stroke="none" d="M 25 2.5 L 48.63113010416255 2.5 L 48.63113010416255 -2.5 L 25 -2.5 Z M 106.48659885416255 2.5 L 130.1177289583251 2.5 L 130.1177289583251 5.5 L 141.1177289583251 0 L 130.1177289583251 -5.5 L 130.1177289583251 -2.5 L 106.48659885416255 -2.5 Z"/><text text-anchor="middle" pointer-events="none" font-size="8px" fill="#000000" x="77.55886447916255" y="3" font-family="sans-serif">NEXT_TOKEN</text></g><g class="relationship" transform="translate(-57.754194575591136 218.7100209318138) rotate(362.1356821815859)"><path class="outline" fill="#68BDF6" stroke="none" d="M 25 2.5 L 28.528473185276027 2.5 L 28.528473185276027 -2.5 L 25 -2.5 Z M 86.38394193527603 2.5 L 89.91241512055205 2.5 L 89.91241512055205 5.5 L 100.91241512055205 0 L 89.91241512055205 -5.5 L 89.91241512055205 -2.5 L 86.38394193527603 -2.5 Z"/><text text-anchor="middle" pointer-events="none" font-size="8px" fill="#000000" x="57.45620756027603" y="3" font-family="sans-serif">NEXT_TOKEN</text></g><g class="relationship" transform="translate(68.07075917865694 223.40227990074987) rotate(360.19511456758016)"><path class="outline" fill="#68BDF6" stroke="none" d="M 25 2.5 L 25.236712849380424 2.5 L 25.236712849380424 -2.5 L 25 -2.5 Z M 75.09218159938042 2.5 L 75.32889444876085 2.5 L 75.32889444876085 5.5 L 86.32889444876085 0 L 75.32889444876085 -5.5 L 75.32889444876085 -2.5 L 75.09218159938042 -2.5 Z"/><text text-anchor="middle" pointer-events="none" font-size="8px" fill="#000000" x="50.164447224380424" y="3" font-family="sans-serif">NEXT_TO…</text></g><g class="relationship" transform="translate(179.39900810458596 223.7813976525371) rotate(361.2401437786029)"><path class="outline" fill="#68BDF6" stroke="none" d="M 25 2.5 L 25.30464615164084 2.5 L 25.30464615164084 -2.5 L 25 -2.5 Z M 83.16011490164084 2.5 L 83.46476105328168 2.5 L 83.46476105328168 5.5 L 94.46476105328168 0 L 83.46476105328168 -5.5 L 83.46476105328168 -2.5 L 83.16011490164084 -2.5 Z"/><text text-anchor="middle" pointer-events="none" font-size="8px" fill="#000000" x="54.23238052664084" y="3" font-family="sans-serif">NEXT_TOKEN</text></g><g class="relationship" transform="translate(298.8357863248523 226.3669617845214) rotate(360.3492676080574)"><path class="outline" fill="#68BDF6" stroke="none" d="M 25 2.5 L 33.6250605756715 2.5 L 33.6250605756715 -2.5 L 25 -2.5 Z M 91.4805293256715 2.5 L 100.105589901343 2.5 L 100.105589901343 5.5 L 111.105589901343 0 L 100.105589901343 -5.5 L 100.105589901343 -2.5 L 91.4805293256715 -2.5 Z"/><text text-anchor="middle" pointer-events="none" font-size="8px" fill="#000000" x="62.5527949506715" y="3" font-family="sans-serif">NEXT_TOKEN</text></g></g><g class="layer nodes"><g class="node" transform="translate(371.61119515572864,87.08166668821373)"><circle class="outline" cx="0" cy="0" r="25" fill="#FFD86E" stroke="#EDBA39" stroke-width="2px"/><text text-anchor="middle" pointer-events="none" font-family="sans-serif" dy="1.5625" font-size="25" fill="#604A0E"/><text text-anchor="middle" pointer-events="none" y="5" font-size="10px" fill="#604A0E" font-family="sans-serif"> Bilder</text></g><g class="node" transform="translate(-223.86285116872418,220.44613126706224)"><circle class="outline" cx="0" cy="0" r="25" fill="#FFD86E" stroke="#EDBA39" stroke-width="2px"/><text text-anchor="middle" pointer-events="none" font-family="sans-serif" dy="1.5625" font-size="25" fill="#604A0E"/><text text-anchor="middle" pointer-events="none" y="5" font-size="10px" fill="#604A0E" font-family="sans-serif"> froher</text></g><g class="node" transform="translate(-238.30546328680384,61.24113427661203)"><circle class="outline" cx="0" cy="0" r="25" fill="#FFD86E" stroke="#EDBA39" stroke-width="2px"/><text text-anchor="middle" pointer-events="none" font-family="sans-serif" dy="1.5625" font-size="25" fill="#604A0E"/><text text-anchor="middle" pointer-events="none" y="5" font-size="10px" fill="#604A0E" font-family="sans-serif"> Ihr</text></g><g class="node" transform="translate(-123.55135411320276,62.88822115650376)"><circle class="outline" cx="0" cy="0" r="25" fill="#FFD86E" stroke="#EDBA39" stroke-width="2px"/><text text-anchor="middle" pointer-events="none" font-family="sans-serif" dy="1.5625" font-size="25" fill="#604A0E"/><text text-anchor="middle" pointer-events="none" y="5" font-size="10px" fill="#604A0E" font-family="sans-serif"> bringt</text></g><g class="node" transform="translate(-9.85259634199403,68.45006783313153)"><circle class="outline" cx="0" cy="0" r="25" fill="#FFD86E" stroke="#EDBA39" stroke-width="2px"/><text text-anchor="middle" pointer-events="none" font-family="sans-serif" dy="1.5625" font-size="25" fill="#604A0E"/><text text-anchor="middle" pointer-events="none" y="5" font-size="10px" fill="#604A0E" font-family="sans-serif"> mit</text></g><g class="node" transform="translate(127.99301851601095,69.36934254664037)"><circle class="outline" cx="0" cy="0" r="25" fill="#FFD86E" stroke="#EDBA39" stroke-width="2px"/><text text-anchor="middle" pointer-events="none" font-family="sans-serif" dy="1.5625" font-size="25" fill="#604A0E"/><text text-anchor="middle" pointer-events="none" y="5" font-size="10px" fill="#604A0E" font-family="sans-serif"> euch</text></g><g class="node" transform="translate(263.23409188320653,73.2387266468436)"><circle class="outline" cx="0" cy="0" r="25" fill="#FFD86E" stroke="#EDBA39" stroke-width="2px"/><text text-anchor="middle" pointer-events="none" font-family="sans-serif" dy="1.5625" font-size="25" fill="#604A0E"/><text text-anchor="middle" pointer-events="none" y="5" font-size="10px" fill="#604A0E" font-family="sans-serif"> die</text></g><g class="node" transform="translate(-57.754194575591136,218.7100209318138)"><circle class="outline" cx="0" cy="0" r="25" fill="#FFD86E" stroke="#EDBA39" stroke-width="2px"/><text text-anchor="middle" pointer-events="none" font-family="sans-serif" dy="1.5625" font-size="25" fill="#604A0E"/><text text-anchor="middle" pointer-events="none" y="5" font-size="10px" fill="#604A0E" font-family="sans-serif"> Tage</text></g><g class="node" transform="translate(68.07075917865694,223.40227990074987)"><circle class="outline" cx="0" cy="0" r="25" fill="#FFD86E" stroke="#EDBA39" stroke-width="2px"/><text text-anchor="middle" pointer-events="none" font-family="sans-serif" dy="1.5625" font-size="25" fill="#604A0E"/><text text-anchor="middle" pointer-events="none" y="5" font-size="10px" fill="#604A0E" font-family="sans-serif"> ,</text></g><g class="node" transform="translate(179.39900810458596,223.7813976525371)"><circle class="outline" cx="0" cy="0" r="25" fill="#FFD86E" stroke="#EDBA39" stroke-width="2px"/><text text-anchor="middle" pointer-events="none" font-family="sans-serif" dy="1.5625" font-size="25" fill="#604A0E"/><text text-anchor="middle" pointer-events="none" y="5" font-size="10px" fill="#604A0E" font-family="sans-serif"> Und</text></g><g class="node" transform="translate(298.8357863248523,226.3669617845214)"><circle class="outline" cx="0" cy="0" r="25" fill="#FFD86E" stroke="#EDBA39" stroke-width="2px"/><text text-anchor="middle" pointer-events="none" font-family="sans-serif" dy="1.5625" font-size="25" fill="#604A0E"/><text text-anchor="middle" pointer-events="none" y="5" font-size="10px" fill="#604A0E" font-family="sans-serif"> manche</text></g><g class="node" transform="translate(434.9388474174964,227.1966385918077)"><circle class="outline" cx="0" cy="0" r="25" fill="#FFD86E" stroke="#EDBA39" stroke-width="2px"/><text text-anchor="middle" pointer-events="none" font-family="sans-serif" dy="1.5625" font-size="25" fill="#604A0E"/><text text-anchor="middle" pointer-events="none" y="5" font-size="10px" fill="#604A0E" font-family="sans-serif"> liebe</text></g></g></svg>