<svg xmlns="http://www.w3.org/2000/svg" width="634.7825927734375" height="380.82489013671875" viewBox="-215.722412109375 -98.36195373535156 634.7825927734375 380.82489013671875"><title>Neo4j Graph Visualization</title><desc>Created using Neo4j (http://www.neo4j.com/)</desc><g class="layer relationships"><g class="relationship" transform="translate(-171.72241671956624 238.4629419169245) rotate(359.79533545440313)"><path class="outline" fill="#A5ABB6" stroke="none" d="M 40 0.5 L 76.41050869242902 0.5 L 76.41050869242902 -0.5 L 40 -0.5 Z M 103.41050869242902 0.5 L 139.82101738485804 0.5 L 139.82101738485804 3.5 L 146.82101738485804 0 L 139.82101738485804 -3.5 L 139.82101738485804 -0.5 L 103.41050869242902 -0.5 Z"/><text text-anchor="middle" pointer-events="none" font-size="8px" fill="#000000" x="89.91050869242902" y="3" font-family="sans-serif">NEXT</text></g><g class="relationship" transform="translate(15.097408777856074 237.7956055503794) rotate(359.6950110812563)"><path class="outline" fill="#A5ABB6" stroke="none" d="M 40 0.5 L 70.19790144613538 0.5 L 70.19790144613538 -0.5 L 40 -0.5 Z M 97.19790144613538 0.5 L 127.39580289227075 0.5 L 127.39580289227075 3.5 L 134.39580289227075 0 L 127.39580289227075 -3.5 L 127.39580289227075 -0.5 L 97.19790144613538 -0.5 Z"/><text text-anchor="middle" pointer-events="none" font-size="8px" fill="#000000" x="83.69790144613538" y="3" font-family="sans-serif">NEXT</text></g><g class="relationship" transform="translate(15.097408777856074 237.7956055503794) rotate(268.639227568236)"><path class="outline" fill="#A5ABB6" stroke="none" d="M 40 0.5 L 49.00451904658043 0.5 L 49.00451904658043 -0.5 L 40 -0.5 Z M 105.00451904658043 0.5 L 114.00903809316085 0.5 L 114.00903809316085 3.5 L 121.00903809316085 0 L 114.00903809316085 -3.5 L 114.00903809316085 -0.5 L 105.00451904658043 -0.5 Z"/><text text-anchor="middle" pointer-events="none" font-size="8px" fill="#000000" x="77.00451904658043" y="3" transform="rotate(180 77.00451904658043 0)" font-family="sans-serif">IS_CHILD_OF</text></g><g class="relationship" transform="translate(11.273810155986311 76.83197474744381) rotate(360.04600856843194)"><path class="outline" fill="#A5ABB6" stroke="none" d="M 40 0.5 L 58.97757821423045 0.5 L 58.97757821423045 -0.5 L 40 -0.5 Z M 105.38382821423045 0.5 L 124.3614064284609 0.5 L 124.3614064284609 3.5 L 131.3614064284609 0 L 124.3614064284609 -3.5 L 124.3614064284609 -0.5 L 105.38382821423045 -0.5 Z"/><text text-anchor="middle" pointer-events="none" font-size="8px" fill="#000000" x="82.18070321423045" y="3" font-family="sans-serif">NEXT_TAG</text></g><g class="relationship" transform="translate(189.49074092547852 236.86729046982592) rotate(267.54495952020517)"><path class="outline" fill="#A5ABB6" stroke="none" d="M 40 0.5 L 48.522305309434 0.5 L 48.522305309434 -0.5 L 40 -0.5 Z M 104.522305309434 0.5 L 113.044610618868 0.5 L 113.044610618868 3.5 L 120.044610618868 0 L 113.044610618868 -3.5 L 113.044610618868 -0.5 L 104.522305309434 -0.5 Z"/><text text-anchor="middle" pointer-events="none" font-size="8px" fill="#000000" x="76.522305309434" y="3" transform="rotate(180 76.522305309434 0)" font-family="sans-serif">IS_CHILD_OF</text></g><g class="relationship" transform="translate(189.49074092547852 236.86729046982592) rotate(360.2099240657892)"><path class="outline" fill="#A5ABB6" stroke="none" d="M 40 0.5 L 75.78533174872663 0.5 L 75.78533174872663 -0.5 L 40 -0.5 Z M 102.78533174872663 0.5 L 138.57066349745327 0.5 L 138.57066349745327 3.5 L 145.57066349745327 0 L 138.57066349745327 -3.5 L 138.57066349745327 -0.5 L 102.78533174872663 -0.5 Z"/><text text-anchor="middle" pointer-events="none" font-size="8px" fill="#000000" x="89.28533174872663" y="3" font-family="sans-serif">NEXT</text></g><g class="relationship" transform="translate(94.48600722452244 -54.36195050745806) rotate(416.13065872150537)"><path class="outline" fill="#A5ABB6" stroke="none" d="M 40 0.5 L 47.58578219362788 0.5 L 47.58578219362788 -0.5 L 40 -0.5 Z M 103.58578219362788 0.5 L 111.17156438725576 0.5 L 111.17156438725576 3.5 L 118.17156438725576 0 L 111.17156438725576 -3.5 L 111.17156438725576 -0.5 L 103.58578219362788 -0.5 Z"/><text text-anchor="middle" pointer-events="none" font-size="8px" fill="#000000" x="75.58578219362788" y="3" font-family="sans-serif">IS_CHILD_OF</text></g><g class="relationship" transform="translate(94.48600722452244 -54.36195050745806) rotate(482.38567632914067)"><path class="outline" fill="#A5ABB6" stroke="none" d="M 40 0.5 L 46.17901223104229 0.5 L 46.17901223104229 -0.5 L 40 -0.5 Z M 102.1790122310423 0.5 L 108.35802446208459 0.5 L 108.35802446208459 3.5 L 115.35802446208459 0 L 108.35802446208459 -3.5 L 108.35802446208459 -0.5 L 102.1790122310423 -0.5 Z"/><text text-anchor="middle" pointer-events="none" font-size="8px" fill="#000000" x="74.1790122310423" y="3" transform="rotate(180 74.1790122310423 0)" font-family="sans-serif">IS_CHILD_OF</text></g></g><g class="layer nodes"><g class="node" transform="translate(-171.72241671956624,238.4629419169245)"><circle class="outline" cx="0" cy="0" r="40" fill="#FFD86E" stroke="#EDBA39" stroke-width="2px"/><text text-anchor="middle" pointer-events="none" font-family="sans-serif" dy="2.5" font-size="40" fill="#604A0E"/><text class="caption" text-anchor="middle" pointer-events="none" y="5" font-size="10px" fill="#604A0E" font-family="sans-serif"> ein</text></g><g class="node" transform="translate(15.097408777856074,237.7956055503794)"><circle class="outline" cx="0" cy="0" r="40" fill="#FFD86E" stroke="#EDBA39" stroke-width="2px"/><text text-anchor="middle" pointer-events="none" font-family="sans-serif" dy="2.5" font-size="40" fill="#604A0E"/><text class="caption" text-anchor="middle" pointer-events="none" y="5" font-size="10px" fill="#604A0E" font-family="sans-serif"> od.</text></g><g class="node" transform="translate(189.49074092547852,236.86729046982592)"><circle class="outline" cx="0" cy="0" r="40" fill="#FFD86E" stroke="#EDBA39" stroke-width="2px"/><text text-anchor="middle" pointer-events="none" font-family="sans-serif" dy="2.5" font-size="40" fill="#604A0E"/><text class="caption" text-anchor="middle" pointer-events="none" y="5" font-size="10px" fill="#604A0E" font-family="sans-serif"> oder</text></g><g class="node" transform="translate(11.273810155986311,76.83197474744381)"><circle class="outline" cx="0" cy="0" r="40" fill="#A5ABB6" stroke="#9AA1AC" stroke-width="2px"/><text text-anchor="middle" pointer-events="none" font-family="sans-serif" dy="2.5" font-size="40" fill="#FFFFFF"/><text class="caption" text-anchor="middle" pointer-events="none" y="5" font-size="10px" fill="#FFFFFF" font-family="sans-serif"> abbr</text></g><g class="node" transform="translate(182.63516133662355,76.969578113939)"><circle class="outline" cx="0" cy="0" r="40" fill="#A5ABB6" stroke="#9AA1AC" stroke-width="2px"/><text text-anchor="middle" pointer-events="none" font-family="sans-serif" dy="2.5" font-size="40" fill="#FFFFFF"/><text class="caption" text-anchor="middle" pointer-events="none" y="5" font-size="10px" fill="#FFFFFF" font-family="sans-serif"> expan</text></g><g class="node" transform="translate(375.06015888191865,237.5471950168495)"><circle class="outline" cx="0" cy="0" r="40" fill="#FFD86E" stroke="#EDBA39" stroke-width="2px"/><text text-anchor="middle" pointer-events="none" font-family="sans-serif" dy="2.5" font-size="40" fill="#604A0E"/><text class="caption" text-anchor="middle" pointer-events="none" y="5" font-size="10px" fill="#604A0E" font-family="sans-serif"> zwei</text></g><g class="node" transform="translate(94.48600722452244,-54.36195050745806)"><circle class="outline" cx="0" cy="0" r="40" fill="#A5ABB6" stroke="#9AA1AC" stroke-width="2px"/><text text-anchor="middle" pointer-events="none" font-family="sans-serif" dy="2.5" font-size="40" fill="#FFFFFF"/><text class="caption" text-anchor="middle" pointer-events="none" y="5" font-size="10px" fill="#FFFFFF" font-family="sans-serif"> choice</text></g></g></svg>