<svg xmlns="http://www.w3.org/2000/svg" width="1575.908935546875" height="562.9566040039062" viewBox="-413.9730529785156 -382.9810791015625 1575.908935546875 562.9566040039062"><title>Neo4j Graph Visualization</title><desc>Created using Neo4j (http://www.neo4j.com/)</desc><g class="layer relationships"><g class="relationship" transform="translate(-369.9730680219605 131.43707977735983) rotate(359.7313367824237)"><path class="outline" fill="#FFD86E" stroke="none" d="M 40 2.5 L 42.97287561133673 2.5 L 42.97287561133673 -2.5 L 40 -2.5 Z M 70.27287484839728 2.5 L 73.24575045973401 2.5 L 73.24575045973401 5.5 L 84.24575045973401 0 L 73.24575045973401 -5.5 L 73.24575045973401 -2.5 L 70.27287484839728 -2.5 Z"/><text text-anchor="middle" pointer-events="none" font-size="8px" fill="#000000" x="56.622875229867006" y="3" font-family="sans-serif">NEXT</text></g><g class="relationship" transform="translate(-245.7286834716797 130.85448641622452) rotate(360.7331230912255)"><path class="outline" fill="#FFD86E" stroke="none" d="M 40 2.5 L 42.64823202657325 2.5 L 42.64823202657325 -2.5 L 40 -2.5 Z M 69.9482312636338 2.5 L 72.59646329020704 2.5 L 72.59646329020704 5.5 L 83.59646329020704 0 L 72.59646329020704 -5.5 L 72.59646329020704 -2.5 L 69.9482312636338 -2.5 Z"/><text text-anchor="middle" pointer-events="none" font-size="8px" fill="#000000" x="56.29823164510352" y="3" font-family="sans-serif">NEXT</text></g><g class="relationship" transform="translate(-122.14233780825666 132.43591090332944) rotate(359.7420432675269)"><path class="outline" fill="#FFD86E" stroke="none" d="M 40 2.5 L 43.67299898215944 2.5 L 43.67299898215944 -2.5 L 40 -2.5 Z M 70.97299821921999 2.5 L 74.64599720137943 2.5 L 74.64599720137943 5.5 L 85.64599720137943 0 L 74.64599720137943 -5.5 L 74.64599720137943 -2.5 L 70.97299821921999 -2.5 Z"/><text text-anchor="middle" pointer-events="none" font-size="8px" fill="#000000" x="57.322998600689715" y="3" font-family="sans-serif">NEXT</text></g><g class="relationship" transform="translate(3.5023859885717457 131.87023012077725) rotate(289.8194280597764)"><path class="outline" fill="#6DCE9E" stroke="none" d="M 40 2.5 L 146.3641847524142 2.5 L 146.3641847524142 -2.5 L 40 -2.5 Z M 203.7641862782931 2.5 L 310.1283710307073 2.5 L 310.1283710307073 5.5 L 321.1283710307073 0 L 310.1283710307073 -5.5 L 310.1283710307073 -2.5 L 203.7641862782931 -2.5 Z"/><text text-anchor="middle" pointer-events="none" font-size="8px" fill="#000000" x="175.06418551535364" y="3" font-family="sans-serif">IS_CHILD_OF</text></g><g class="relationship" transform="translate(3.5023859885717457 131.87023012077725) rotate(360.6762316787157)"><path class="outline" fill="#FFD86E" stroke="none" d="M 40 2.5 L 41.352691849285414 2.5 L 41.352691849285414 -2.5 L 40 -2.5 Z M 68.65269108634595 2.5 L 70.00538293563137 2.5 L 70.00538293563137 5.5 L 81.00538293563137 0 L 70.00538293563137 -5.5 L 70.00538293563137 -2.5 L 68.65269108634595 -2.5 Z"/><text text-anchor="middle" pointer-events="none" font-size="8px" fill="#000000" x="55.00269146781569" y="3" font-family="sans-serif">NEXT</text></g><g class="relationship" transform="translate(124.49934110108347 133.2983592814664) rotate(270.24286269154385)"><path class="outline" fill="#6DCE9E" stroke="none" d="M 40 2.5 L 136.3842165196227 2.5 L 136.3842165196227 -2.5 L 40 -2.5 Z M 193.7842180455016 2.5 L 290.1684345651243 2.5 L 290.1684345651243 5.5 L 301.1684345651243 0 L 290.1684345651243 -5.5 L 290.1684345651243 -2.5 L 193.7842180455016 -2.5 Z"/><text text-anchor="middle" pointer-events="none" font-size="8px" fill="#000000" x="165.08421728256215" y="3" font-family="sans-serif">IS_CHILD_OF</text></g><g class="relationship" transform="translate(358.249749224846 -338.981092588755) rotate(510.5593283377664)"><path class="outline" fill="#6DCE9E" stroke="none" d="M 40 2.5 L 99.17558048524609 2.5 L 99.17558048524609 -2.5 L 40 -2.5 Z M 156.575582011125 2.5 L 215.75116249637108 2.5 L 215.75116249637108 5.5 L 226.75116249637108 0 L 215.75116249637108 -5.5 L 215.75116249637108 -2.5 L 156.575582011125 -2.5 Z"/><text text-anchor="middle" pointer-events="none" font-size="8px" fill="#000000" x="127.87558124818554" y="3" transform="rotate(180 127.87558124818554 0)" font-family="sans-serif">IS_CHILD_OF</text></g><g class="relationship" transform="translate(125.94546570007964 -207.86701039614564) rotate(359.6780798636107)"><path class="outline" fill="#FB95AF" stroke="none" d="M 40 2.5 L 212.80633272316317 2.5 L 212.80633272316317 -2.5 L 40 -2.5 Z M 260.3396655478702 2.5 L 433.14599827103336 2.5 L 433.14599827103336 5.5 L 444.14599827103336 0 L 433.14599827103336 -5.5 L 433.14599827103336 -2.5 L 260.3396655478702 -2.5 Z"/><text text-anchor="middle" pointer-events="none" font-size="8px" fill="#000000" x="236.57299913551668" y="3" font-family="sans-serif">NEXT_TAG</text></g><g class="relationship" transform="translate(358.249749224846 -338.981092588755) rotate(387.0140905009066)"><path class="outline" fill="#6DCE9E" stroke="none" d="M 40 2.5 L 107.13770767804465 2.5 L 107.13770767804465 -2.5 L 40 -2.5 Z M 164.53770920392355 2.5 L 231.6754168819682 2.5 L 231.6754168819682 5.5 L 242.6754168819682 0 L 231.6754168819682 -5.5 L 231.6754168819682 -2.5 L 164.53770920392355 -2.5 Z"/><text text-anchor="middle" pointer-events="none" font-size="8px" fill="#000000" x="135.8377084409841" y="3" font-family="sans-serif">IS_CHILD_OF</text></g><g class="relationship" transform="translate(243.31350128603498 134.07663083424518) rotate(316.77978666363856)"><path class="outline" fill="#6DCE9E" stroke="none" d="M 40 2.5 L 217.45135839722977 2.5 L 217.45135839722977 -2.5 L 40 -2.5 Z M 274.8513599231087 2.5 L 452.30271832033844 2.5 L 452.30271832033844 5.5 L 463.30271832033844 0 L 452.30271832033844 -5.5 L 452.30271832033844 -2.5 L 274.8513599231087 -2.5 Z"/><text text-anchor="middle" pointer-events="none" font-size="8px" fill="#000000" x="246.15135916016922" y="3" font-family="sans-serif">IS_CHILD_OF</text></g><g class="relationship" transform="translate(369.329113379761 135.97550652819228) rotate(304.78744035940315)"><path class="outline" fill="#6DCE9E" stroke="none" d="M 40 2.5 L 176.79084090703847 2.5 L 176.79084090703847 -2.5 L 40 -2.5 Z M 234.19084243291738 2.5 L 370.98168333995585 2.5 L 370.98168333995585 5.5 L 381.98168333995585 0 L 370.98168333995585 -5.5 L 370.98168333995585 -2.5 L 234.19084243291738 -2.5 Z"/><text text-anchor="middle" pointer-events="none" font-size="8px" fill="#000000" x="205.49084166997793" y="3" font-family="sans-serif">IS_CHILD_OF</text></g><g class="relationship" transform="translate(488.13699643495534 134.17262184409225) rotate(289.4794663465814)"><path class="outline" fill="#6DCE9E" stroke="none" d="M 40 2.5 L 148.6458118576796 2.5 L 148.6458118576796 -2.5 L 40 -2.5 Z M 206.0458133835585 2.5 L 314.6916252412381 2.5 L 314.6916252412381 5.5 L 325.6916252412381 0 L 314.6916252412381 -5.5 L 314.6916252412381 -2.5 L 206.0458133835585 -2.5 Z"/><text text-anchor="middle" pointer-events="none" font-size="8px" fill="#000000" x="177.34581262061906" y="3" font-family="sans-serif">IS_CHILD_OF</text></g><g class="relationship" transform="translate(612.3698271828812 132.0917136516046) rotate(269.61778653240856)"><path class="outline" fill="#6DCE9E" stroke="none" d="M 40 2.5 L 137.14326973446373 2.5 L 137.14326973446373 -2.5 L 40 -2.5 Z M 194.54327126034264 2.5 L 291.68654099480636 2.5 L 291.68654099480636 5.5 L 302.68654099480636 0 L 291.68654099480636 -5.5 L 291.68654099480636 -2.5 L 194.54327126034264 -2.5 Z"/><text text-anchor="middle" pointer-events="none" font-size="8px" fill="#000000" x="165.84327049740318" y="3" transform="rotate(180 165.84327049740318 0)" font-family="sans-serif">IS_CHILD_OF</text></g><g class="relationship" transform="translate(740.783687608681 129.5052308624987) rotate(248.97788823114178)"><path class="outline" fill="#6DCE9E" stroke="none" d="M 40 2.5 L 147.97115367959998 2.5 L 147.97115367959998 -2.5 L 40 -2.5 Z M 205.37115520547889 2.5 L 313.34230888507886 2.5 L 313.34230888507886 5.5 L 324.34230888507886 0 L 313.34230888507886 -5.5 L 313.34230888507886 -2.5 L 205.37115520547889 -2.5 Z"/><text text-anchor="middle" pointer-events="none" font-size="8px" fill="#000000" x="176.67115444253943" y="3" transform="rotate(180 176.67115444253943 0)" font-family="sans-serif">IS_CHILD_OF</text></g><g class="relationship" transform="translate(863.0381790582122 129.69943273474667) rotate(233.37448458904305)"><path class="outline" fill="#6DCE9E" stroke="none" d="M 40 2.5 L 177.80288882694856 2.5 L 177.80288882694856 -2.5 L 40 -2.5 Z M 235.20289035282747 2.5 L 373.005779179776 2.5 L 373.005779179776 5.5 L 384.005779179776 0 L 373.005779179776 -5.5 L 373.005779179776 -2.5 L 235.20289035282747 -2.5 Z"/><text text-anchor="middle" pointer-events="none" font-size="8px" fill="#000000" x="206.502889589888" y="3" transform="rotate(180 206.502889589888 0)" font-family="sans-serif">IS_CHILD_OF</text></g><g class="relationship" transform="translate(990.5440780541834 129.086239651367) rotate(221.75835434956355)"><path class="outline" fill="#6DCE9E" stroke="none" d="M 40 2.5 L 220.81375063216527 2.5 L 220.81375063216527 -2.5 L 40 -2.5 Z M 278.21375215804414 2.5 L 459.02750279020944 2.5 L 459.02750279020944 5.5 L 470.02750279020944 0 L 459.02750279020944 -5.5 L 459.02750279020944 -2.5 L 278.21375215804414 -2.5 Z"/><text text-anchor="middle" pointer-events="none" font-size="8px" fill="#000000" x="249.51375139510472" y="3" transform="rotate(180 249.51375139510472 0)" font-family="sans-serif">IS_CHILD_OF</text></g><g class="relationship" transform="translate(610.0838221612169 -210.58720247838727) rotate(525.3743695071346)"><path class="outline" fill="#6DCE9E" stroke="none" d="M 40 2.5 L 98.93631987665768 2.5 L 98.93631987665768 -2.5 L 40 -2.5 Z M 156.33632140253658 2.5 L 215.27264127919426 2.5 L 215.27264127919426 5.5 L 226.27264127919426 0 L 215.27264127919426 -5.5 L 215.27264127919426 -2.5 L 156.33632140253658 -2.5 Z"/><text text-anchor="middle" pointer-events="none" font-size="8px" fill="#000000" x="127.63632063959713" y="3" transform="rotate(180 127.63632063959713 0)" font-family="sans-serif">IS_CHILD_OF</text></g><g class="relationship" transform="translate(1117.9359536028862 124.17340312462585) rotate(213.39165034627)"><path class="outline" fill="#6DCE9E" stroke="none" d="M 40 2.5 L 269.92926882219217 2.5 L 269.92926882219217 -2.5 L 40 -2.5 Z M 327.3292703480711 2.5 L 557.2585391702632 2.5 L 557.2585391702632 5.5 L 568.2585391702632 0 L 557.2585391702632 -5.5 L 557.2585391702632 -2.5 L 327.3292703480711 -2.5 Z"/><text text-anchor="middle" pointer-events="none" font-size="8px" fill="#000000" x="298.6292695851316" y="3" transform="rotate(180 298.6292695851316 0)" font-family="sans-serif">IS_CHILD_OF</text></g><g class="relationship" transform="translate(124.49934110108347 133.2983592814664) rotate(360.3753007004772)"><path class="outline" fill="#FFD86E" stroke="none" d="M 40 2.5 L 40.25835494348647 2.5 L 40.25835494348647 -2.5 L 40 -2.5 Z M 67.55835418054701 2.5 L 67.81670912403348 2.5 L 67.81670912403348 5.5 L 78.81670912403348 0 L 67.81670912403348 -5.5 L 67.81670912403348 -2.5 L 67.55835418054701 -2.5 Z"/><text text-anchor="middle" pointer-events="none" font-size="8px" fill="#000000" x="53.90835456201674" y="3" font-family="sans-serif">NEXT</text></g><g class="relationship" transform="translate(243.31350128603498 134.07663083424518) rotate(360.86330041017675)"><path class="outline" fill="#FFD86E" stroke="none" d="M 40 2.5 L 43.86495935998825 2.5 L 43.86495935998825 -2.5 L 40 -2.5 Z M 71.1649585970488 2.5 L 75.02991795703704 2.5 L 75.02991795703704 5.5 L 86.02991795703704 0 L 75.02991795703704 -5.5 L 75.02991795703704 -2.5 L 71.1649585970488 -2.5 Z"/><text text-anchor="middle" pointer-events="none" font-size="8px" fill="#000000" x="57.51495897851852" y="3" font-family="sans-serif">NEXT</text></g><g class="relationship" transform="translate(369.329113379761 135.97550652819228) rotate(359.130615302162)"><path class="outline" fill="#FFD86E" stroke="none" d="M 40 2.5 L 40.26078111451702 2.5 L 40.26078111451702 -2.5 L 40 -2.5 Z M 67.56078035157756 2.5 L 67.8215614660946 2.5 L 67.8215614660946 5.5 L 78.8215614660946 0 L 67.8215614660946 -5.5 L 67.8215614660946 -2.5 L 67.56078035157756 -2.5 Z"/><text text-anchor="middle" pointer-events="none" font-size="8px" fill="#000000" x="53.9107807330473" y="3" font-family="sans-serif">NEXT</text></g><g class="relationship" transform="translate(488.13699643495534 134.17262184409225) rotate(359.04038161392975)"><path class="outline" fill="#FFD86E" stroke="none" d="M 40 2.5 L 42.97512898203753 2.5 L 42.97512898203753 -2.5 L 40 -2.5 Z M 70.27512821909808 2.5 L 73.25025720113561 2.5 L 73.25025720113561 5.5 L 84.25025720113561 0 L 73.25025720113561 -5.5 L 73.25025720113561 -2.5 L 70.27512821909808 -2.5 Z"/><text text-anchor="middle" pointer-events="none" font-size="8px" fill="#000000" x="56.625128600567805" y="3" font-family="sans-serif">NEXT</text></g><g class="relationship" transform="translate(612.3698271828812 132.0917136516046) rotate(358.8461174550323)"><path class="outline" fill="#FFD86E" stroke="none" d="M 40 2.5 L 45.06995336081086 2.5 L 45.06995336081086 -2.5 L 40 -2.5 Z M 72.3699525978714 2.5 L 77.43990595868226 2.5 L 77.43990595868226 5.5 L 88.43990595868226 0 L 77.43990595868226 -5.5 L 77.43990595868226 -2.5 L 72.3699525978714 -2.5 Z"/><text text-anchor="middle" pointer-events="none" font-size="8px" fill="#000000" x="58.71995297934113" y="3" font-family="sans-serif">NEXT</text></g><g class="relationship" transform="translate(740.783687608681 129.5052308624987) rotate(360.0910145562947)"><path class="outline" fill="#FFD86E" stroke="none" d="M 40 2.5 L 41.97732322884846 2.5 L 41.97732322884846 -2.5 L 40 -2.5 Z M 69.27732246590901 2.5 L 71.25464569475747 2.5 L 71.25464569475747 5.5 L 82.25464569475747 0 L 71.25464569475747 -5.5 L 71.25464569475747 -2.5 L 69.27732246590901 -2.5 Z"/><text text-anchor="middle" pointer-events="none" font-size="8px" fill="#000000" x="55.627322847378736" y="3" font-family="sans-serif">NEXT</text></g><g class="relationship" transform="translate(863.0381790582122 129.69943273474667) rotate(359.72445898478145)"><path class="outline" fill="#FFD86E" stroke="none" d="M 40 2.5 L 44.603687107274666 2.5 L 44.603687107274666 -2.5 L 40 -2.5 Z M 71.90368634433521 2.5 L 76.50737345160988 2.5 L 76.50737345160988 5.5 L 87.50737345160988 0 L 76.50737345160988 -5.5 L 76.50737345160988 -2.5 L 71.90368634433521 -2.5 Z"/><text text-anchor="middle" pointer-events="none" font-size="8px" fill="#000000" x="58.25368672580494" y="3" font-family="sans-serif">NEXT</text></g><g class="relationship" transform="translate(243.31350128603498 134.07663083424518) rotate(291.47202371281065)"><path class="outline" fill="#FB95AF" stroke="none" d="M 40 2.5 L 119.7933318603898 2.5 L 119.7933318603898 -2.5 L 40 -2.5 Z M 167.32666468509683 2.5 L 247.11999654548663 2.5 L 247.11999654548663 5.5 L 258.11999654548663 0 L 247.11999654548663 -5.5 L 247.11999654548663 -2.5 L 167.32666468509683 -2.5 Z"/><text text-anchor="middle" pointer-events="none" font-size="8px" fill="#000000" x="143.55999827274331" y="3" font-family="sans-serif">NEXT_TAG</text></g><g class="relationship" transform="translate(352.4393959830759 -143.3527681970243) rotate(379.2635285239468)"><path class="outline" fill="#FB95AF" stroke="none" d="M 40 2.5 L 376.1822305123393 2.5 L 376.1822305123393 -2.5 L 40 -2.5 Z M 423.7155633370463 2.5 L 759.8977938493856 2.5 L 759.8977938493856 5.5 L 770.8977938493856 0 L 759.8977938493856 -5.5 L 759.8977938493856 -2.5 L 423.7155633370463 -2.5 Z"/><text text-anchor="middle" pointer-events="none" font-size="8px" fill="#000000" x="399.9488969246928" y="3" font-family="sans-serif">NEXT_TAG</text></g><g class="relationship" transform="translate(990.5440780541834 129.086239651367) rotate(357.7914966993476)"><path class="outline" fill="#FFD86E" stroke="none" d="M 40 2.5 L 44.593286142706326 2.5 L 44.593286142706326 -2.5 L 40 -2.5 Z M 71.89328537976687 2.5 L 76.4865715224732 2.5 L 76.4865715224732 5.5 L 87.4865715224732 0 L 76.4865715224732 -5.5 L 76.4865715224732 -2.5 L 71.89328537976687 -2.5 Z"/><text text-anchor="middle" pointer-events="none" font-size="8px" fill="#000000" x="58.2432857612366" y="3" font-family="sans-serif">NEXT</text></g></g><g class="layer nodes"><g class="node" transform="translate(-245.7286834716797,130.85448641622452)"><circle class="outline" cx="0" cy="0" r="40" fill="#FFD86E" stroke="#EDBA39" stroke-width="2px"/><text text-anchor="middle" pointer-events="none" font-family="sans-serif" dy="2.5" font-size="40" fill="#604A0E"/><text class="caption" text-anchor="middle" pointer-events="none" y="5" font-size="10px" fill="#604A0E" font-family="sans-serif"> Fürsten</text></g><g class="node" transform="translate(-369.9730680219605,131.43707977735983)"><circle class="outline" cx="0" cy="0" r="40" fill="#FFD86E" stroke="#EDBA39" stroke-width="2px"/><text text-anchor="middle" pointer-events="none" font-family="sans-serif" dy="2.5" font-size="40" fill="#604A0E"/><text class="caption" text-anchor="middle" pointer-events="none" y="5" font-size="10px" fill="#604A0E" font-family="sans-serif"> einem</text></g><g class="node" transform="translate(-122.14233780825666,132.43591090332944)"><circle class="outline" cx="0" cy="0" r="40" fill="#FFD86E" stroke="#EDBA39" stroke-width="2px"/><text text-anchor="middle" pointer-events="none" font-family="sans-serif" dy="2.5" font-size="40" fill="#604A0E"/><text class="caption" text-anchor="middle" pointer-events="none" y="5" font-size="10px" fill="#604A0E" font-family="sans-serif"> haben</text></g><g class="node" transform="translate(3.5023859885717457,131.87023012077725)"><circle class="outline" cx="0" cy="0" r="40" fill="#FFD86E" stroke="#EDBA39" stroke-width="2px"/><text text-anchor="middle" pointer-events="none" font-family="sans-serif" dy="2.5" font-size="40" fill="#604A0E"/><text class="caption" text-anchor="middle" pointer-events="none" y="5" font-size="10px" fill="#604A0E" font-family="sans-serif"> zu</text></g><g class="node" transform="translate(125.94546570007964,-207.86701039614564)"><circle class="outline" cx="0" cy="0" r="40" fill="#6DCE9E" stroke="#60B58B" stroke-width="2px"/><text text-anchor="middle" pointer-events="none" font-family="sans-serif" dy="2.5" font-size="40" fill="#FFFFFF"/><text class="caption" text-anchor="middle" pointer-events="none" y="5" font-size="10px" fill="#FFFFFF" font-family="sans-serif"> del</text></g><g class="node" transform="translate(124.49934110108347,133.2983592814664)"><circle class="outline" cx="0" cy="0" r="40" fill="#FFD86E" stroke="#EDBA39" stroke-width="2px"/><text text-anchor="middle" pointer-events="none" font-family="sans-serif" dy="2.5" font-size="40" fill="#604A0E"/><text class="caption" text-anchor="middle" pointer-events="none" y="5" font-size="10px" fill="#604A0E" font-family="sans-serif"> können</text></g><g class="node" transform="translate(358.249749224846,-338.981092588755)"><circle class="outline" cx="0" cy="0" r="40" fill="#6DCE9E" stroke="#60B58B" stroke-width="2px"/><text text-anchor="middle" pointer-events="none" font-family="sans-serif" dy="2.5" font-size="40" fill="#FFFFFF"/><text class="caption" text-anchor="middle" pointer-events="none" y="5" font-size="10px" fill="#FFFFFF" font-family="sans-serif"> subst</text></g><g class="node" transform="translate(610.0838221612169,-210.58720247838727)"><circle class="outline" cx="0" cy="0" r="40" fill="#6DCE9E" stroke="#60B58B" stroke-width="2px"/><text text-anchor="middle" pointer-events="none" font-family="sans-serif" dy="2.5" font-size="40" fill="#FFFFFF"/><text class="caption" text-anchor="middle" pointer-events="none" y="5" font-size="10px" fill="#FFFFFF" font-family="sans-serif"> add</text></g><g class="node" transform="translate(243.31350128603498,134.07663083424518)"><circle class="outline" cx="0" cy="0" r="40" fill="#FFD86E" stroke="#EDBA39" stroke-width="2px"/><text text-anchor="middle" pointer-events="none" font-family="sans-serif" dy="2.5" font-size="40" fill="#604A0E"/><text class="caption" text-anchor="middle" pointer-events="none" y="5" font-size="10px" fill="#604A0E" font-family="sans-serif"> ,</text></g><g class="node" transform="translate(369.329113379761,135.97550652819228)"><circle class="outline" cx="0" cy="0" r="40" fill="#FFD86E" stroke="#EDBA39" stroke-width="2px"/><text text-anchor="middle" pointer-events="none" font-family="sans-serif" dy="2.5" font-size="40" fill="#604A0E"/><text class="caption" text-anchor="middle" pointer-events="none" y="5" font-size="10px" fill="#604A0E" font-family="sans-serif"> es</text></g><g class="node" transform="translate(488.13699643495534,134.17262184409225)"><circle class="outline" cx="0" cy="0" r="40" fill="#FFD86E" stroke="#EDBA39" stroke-width="2px"/><text text-anchor="middle" pointer-events="none" font-family="sans-serif" dy="2.5" font-size="40" fill="#604A0E"/><text class="caption" text-anchor="middle" pointer-events="none" y="5" font-size="10px" fill="#604A0E" font-family="sans-serif"> dem</text></g><g class="node" transform="translate(612.3698271828812,132.0917136516046)"><circle class="outline" cx="0" cy="0" r="40" fill="#FFD86E" stroke="#EDBA39" stroke-width="2px"/><text text-anchor="middle" pointer-events="none" font-family="sans-serif" dy="2.5" font-size="40" fill="#604A0E"/><text class="caption" text-anchor="middle" pointer-events="none" y="5" font-size="10px" fill="#604A0E" font-family="sans-serif"> Publikum</text></g><g class="node" transform="translate(740.783687608681,129.5052308624987)"><circle class="outline" cx="0" cy="0" r="40" fill="#FFD86E" stroke="#EDBA39" stroke-width="2px"/><text text-anchor="middle" pointer-events="none" font-family="sans-serif" dy="2.5" font-size="40" fill="#604A0E"/><text class="caption" text-anchor="middle" pointer-events="none" y="5" font-size="10px" fill="#604A0E" font-family="sans-serif"> öffentlich</text></g><g class="node" transform="translate(863.0381790582122,129.69943273474667)"><circle class="outline" cx="0" cy="0" r="40" fill="#FFD86E" stroke="#EDBA39" stroke-width="2px"/><text text-anchor="middle" pointer-events="none" font-family="sans-serif" dy="2.5" font-size="40" fill="#604A0E"/><text class="caption" text-anchor="middle" pointer-events="none" y="5" font-size="10px" fill="#604A0E" font-family="sans-serif"> sagen</text></g><g class="node" transform="translate(990.5440780541834,129.086239651367)"><circle class="outline" cx="0" cy="0" r="40" fill="#FFD86E" stroke="#EDBA39" stroke-width="2px"/><text text-anchor="middle" pointer-events="none" font-family="sans-serif" dy="2.5" font-size="40" fill="#604A0E"/><text class="caption" text-anchor="middle" pointer-events="none" y="5" font-size="10px" fill="#604A0E" font-family="sans-serif"> zu</text></g><g class="node" transform="translate(352.4393959830759,-143.3527681970243)"><circle class="outline" cx="0" cy="0" r="40" fill="#6DCE9E" stroke="#60B58B" stroke-width="2px"/><text text-anchor="middle" pointer-events="none" font-family="sans-serif" dy="2.5" font-size="40" fill="#FFFFFF"/><text class="caption" text-anchor="middle" pointer-events="none" y="5" font-size="10px" fill="#FFFFFF" font-family="sans-serif"> lb</text></g><g class="node" transform="translate(1117.9359536028862,124.17340312462585)"><circle class="outline" cx="0" cy="0" r="40" fill="#FFD86E" stroke="#EDBA39" stroke-width="2px"/><text text-anchor="middle" pointer-events="none" font-family="sans-serif" dy="2.5" font-size="40" fill="#604A0E"/><text class="caption" text-anchor="middle" pointer-events="none" y="5" font-size="10px" fill="#604A0E" font-family="sans-serif"> können....</text></g></g></svg>