<svg xmlns="http://www.w3.org/2000/svg" width="522.7489013671875" height="323.87274169921875" viewBox="-279.19036865234375 -76.41676330566406 522.7489013671875 323.87274169921875"><title>Neo4j Graph Visualization</title><desc>Created using Neo4j (http://www.neo4j.com/)</desc><g class="layer relationships"><g class="relationship" transform="translate(-127.77712072694482 216.8039700895759) rotate(358.9998630677296)"><path class="outline" fill="#FFD86E" stroke="none" d="M 20.90063509461097,-13.799038105676656 L 22.40063509461097,-11.20096189432334 A 76.61048211475199 76.61048211475199 0 0 1 30.972580912936774,-15.459558419291596 L 29.808250872779325,-18.224397575117294 A 79.61048211475199 79.61048211475199 0 0 0 20.90063509461097,-13.799038105676656 Z M 86.59011742042365,-20.13936270361077 L 85.61470913570331,-17.30236099791884 A 76.61048211475199 76.61048211475199 0 0 1 94.4540936374976,-13.630960569713874 L 93.13254272616302,-10.937727718891143 L 103.1945676456331,-11.012924261121501 L 97.09719546016677,-19.017426271359337 L 95.77564454883219,-16.324193420536606 A 79.61048211475199 79.61048211475199 0 0 0 86.59011742042365,-20.13936270361077"/><text text-anchor="middle" pointer-events="none" font-size="8px" fill="#000000" x="58.07310150705209" y="-19.920437832318555" font-family="sans-serif">NEXT_WORD</text></g><g class="relationship" transform="translate(-2.158086534383278 214.61098138072887) rotate(360.5489877349348)"><path class="outline" fill="#FFD86E" stroke="none" d="M 25 1.5 L 27.19734554039072 1.5 L 27.19734554039072 -1.5 L 25 -1.5 Z M 74.19734554039073 1.5 L 76.39469108078144 1.5 L 76.39469108078144 4.5 L 85.39469108078144 0 L 76.39469108078144 -4.5 L 76.39469108078144 -1.5 L 74.19734554039073 -1.5 Z"/><text text-anchor="middle" pointer-events="none" font-size="8px" fill="#000000" x="50.69734554039072" y="3" font-family="sans-serif">NEXT_W…</text></g><g class="relationship" transform="translate(-250.19034784078264 218.44748539674805) rotate(359.2307952705853)"><path class="outline" fill="#FFD86E" stroke="none" d="M 25 1.5 L 28.21212975176764 1.5 L 28.21212975176764 -1.5 L 25 -1.5 Z M 85.21212975176763 1.5 L 88.42425950353528 1.5 L 88.42425950353528 4.5 L 97.42425950353528 0 L 88.42425950353528 -4.5 L 88.42425950353528 -1.5 L 85.21212975176763 -1.5 Z"/><text text-anchor="middle" pointer-events="none" font-size="8px" fill="#000000" x="56.71212975176764" y="3" font-family="sans-serif">NEXT_WORD</text></g><g class="relationship" transform="translate(-48.28189997608047 99.13813003038555) rotate(484.04302031513726)"><path class="outline" fill="#68BDF6" stroke="none" d="M 20.90063509461097,-13.799038105676656 L 22.40063509461097,-11.20096189432334 A 93.46196755715452 93.46196755715452 0 0 1 53.11745761369475,-22.340304429569372 L 52.60342516783273,-25.295938142430472 A 96.46196755715452 96.46196755715452 0 0 0 20.90063509461097,-13.799038105676656 Z M 79.92529763470938,-26.11670599515972 L 79.58961055404335,-23.13554612291638 A 93.46196755715452 93.46196755715452 0 0 1 110.91970630164903,-13.860135715161167 L 109.57836644371464,-11.176703698970606 L 119.64067227918791,-11.177832149453272 L 113.60238601751782,-19.22699974754229 L 112.26104615958343,-16.54356773135173 A 96.46196755715452 96.46196755715452 0 0 0 79.92529763470938,-26.11670599515972"/><text text-anchor="middle" pointer-events="none" font-size="8px" fill="#000000" x="66.28018235102289" y="-22.17967135996571" transform="rotate(180 66.28018235102289 -25.17967135996571)" font-family="sans-serif">NEXT</text></g><g class="relationship" transform="translate(-2.158086534383278 214.61098138072887) rotate(248.22653929131366)"><path class="outline" fill="#6DCE9E" stroke="none" d="M 23.759917089572927,7.919364866996621 L 24.536374224880486,5.021587388129416 A 137.1627311939217 137.1627311939217 0 0 0 30.179203593233623,6.406177415408763 L 29.52616546509883,9.334238412587979 A 140.1627311939217 140.1627311939217 0 0 1 23.759917089572927,7.919364866996621 Z M 85.73943359450408,10.31848662478157 L 85.18930021654933,7.369359081513892 A 137.1627311939217 137.1627311939217 0 0 0 90.87714199663715,6.183159811290943 L 90.20260510767226,3.2599766173351554 L 99.98396002298696,5.6211407413741465 L 92.22621577456694,12.029526199202518 L 91.55167888560204,9.10634300524673 A 140.1627311939217 140.1627311939217 0 0 1 85.73943359450408,10.31848662478157"/><text text-anchor="middle" pointer-events="none" font-size="8px" fill="#000000" x="57.60920273274098" y="14.174043991429727" transform="rotate(180 57.60920273274098 11.174043991429727)" font-family="sans-serif">IS_CHILD_OF</text></g><g class="relationship" transform="translate(-2.158086534383278 214.61098138072887) rotate(248.22653929131366)"><path class="outline" fill="#68BDF6" stroke="none" d="M 23.759917089572927,-7.919364866996621 L 24.536374224880486,-5.021587388129416 A 137.1627311939217 137.1627311939217 0 0 1 25.851108005768516,-5.366895975034993 L 25.103406504796403,-8.272225984766095 A 140.1627311939217 140.1627311939217 0 0 0 23.759917089572927,-7.919364866996621 Z M 90.19666013830371,-9.411955458725089 L 89.55112565395285,-6.482231029787471 A 137.1627311939217 137.1627311939217 0 0 1 90.87714199663715,-6.183159811290943 L 90.20260510767226,-3.2599766173351554 L 99.98396002298696,-5.6211407413741465 L 92.22621577456694,-12.029526199202518 L 91.55167888560204,-9.10634300524673 A 140.1627311939217 140.1627311939217 0 0 0 90.19666013830371,-9.411955458725089"/><text text-anchor="middle" pointer-events="none" font-size="8px" fill="#000000" x="57.60920273274099" y="-8.174043991429727" transform="rotate(180 57.60920273274099 -11.174043991429727)" font-family="sans-serif">LAST_CHILD_…</text></g><g class="relationship" transform="translate(19.040869229313557 -47.416758369616076) rotate(474.67258242563526)"><path class="outline" fill="#68BDF6" stroke="none" d="M 20.90063509461097,-13.799038105676656 L 22.40063509461097,-11.20096189432334 A 113.18458602594932 113.18458602594932 0 0 1 62.71436208258832,-25.18808659861965 L 62.28289257079635,-28.156896808180704 A 116.18458602594932 116.18458602594932 0 0 0 20.90063509461097,-13.799038105676656 Z M 89.5632474423625,-28.882985172453203 L 89.29031142658802,-25.895426648960637 A 113.18458602594932 113.18458602594932 0 0 1 130.29099215877045,-14.072549644933591 L 128.931317687564,-11.398360920787624 L 138.99339556681159,-11.330620593387195 L 133.01034110118337,-19.420927093225526 L 131.6506666299769,-16.74673836907956 A 116.18458602594932 116.18458602594932 0 0 0 89.5632474423625,-28.882985172453203"/><text text-anchor="middle" pointer-events="none" font-size="8px" fill="#000000" x="75.94158713845874" y="-24.824221359308098" transform="rotate(180 75.94158713845874 -27.824221359308098)" font-family="sans-serif">NEXT</text></g><g class="relationship" transform="translate(-127.77712072694482 216.8039700895759) rotate(304.04302031513726)"><path class="outline" fill="#68BDF6" stroke="none" d="M 25 1.5 L 30.5013028737213 1.5 L 30.5013028737213 -1.5 L 25 -1.5 Z M 102.5013028737213 1.5 L 108.0026057474426 1.5 L 108.0026057474426 4.5 L 117.0026057474426 0 L 108.0026057474426 -4.5 L 108.0026057474426 -1.5 L 102.5013028737213 -1.5 Z"/><text text-anchor="middle" pointer-events="none" font-size="8px" fill="#000000" x="66.5013028737213" y="3" font-family="sans-serif">FIRST_CHILD_OF</text></g><g class="relationship" transform="translate(-127.77712072694482 216.8039700895759) rotate(304.04302031513726)"><path class="outline" fill="#6DCE9E" stroke="none" d="M 20.90063509461097,-13.799038105676656 L 22.40063509461097,-11.20096189432334 A 93.46196755715452 93.46196755715452 0 0 1 39.298440646778346,-18.83321055631488 L 38.340836853294135,-21.67627140242857 A 96.46196755715452 96.46196755715452 0 0 0 20.90063509461097,-13.799038105676656 Z M 94.37944529342545,-23.35970976761027 L 93.59422930437948,-20.464293415762654 A 93.46196755715452 93.46196755715452 0 0 1 110.91970630164903,-13.860135715161167 L 109.57836644371464,-11.176703698970606 L 119.64067227918791,-11.177832149453272 L 113.60238601751782,-19.22699974754229 L 112.26104615958343,-16.54356773135173 A 96.46196755715452 96.46196755715452 0 0 0 94.37944529342545,-23.35970976761027"/><text text-anchor="middle" pointer-events="none" font-size="8px" fill="#000000" x="66.28018235102289" y="-22.17967135996571" font-family="sans-serif">IS_CHILD_OF</text></g><g class="relationship" transform="translate(-48.28189997608047 99.13813003038555) rotate(360.15571781151016)"><path class="outline" fill="#FF756E" stroke="none" d="M 25 1.5 L 28.595883726653597 1.5 L 28.595883726653597 -1.5 L 25 -1.5 Z M 89.5958837266536 1.5 L 93.1917674533072 1.5 L 93.1917674533072 4.5 L 102.1917674533072 0 L 93.1917674533072 -4.5 L 93.1917674533072 -1.5 L 89.5958837266536 -1.5 Z"/><text text-anchor="middle" pointer-events="none" font-size="8px" fill="#000000" x="59.0958837266536" y="3" font-family="sans-serif">NEXT_SIBLING</text></g><g class="relationship" transform="translate(-2.158086534383278 214.61098138072887) rotate(305.15151986733105)"><path class="outline" fill="#68BDF6" stroke="none" d="M 25 1.5 L 52.402774469520196 1.5 L 52.402774469520196 -1.5 L 25 -1.5 Z M 79.4027744695202 1.5 L 106.80554893904039 1.5 L 106.80554893904039 4.5 L 115.80554893904039 0 L 106.80554893904039 -4.5 L 106.80554893904039 -1.5 L 79.4027744695202 -1.5 Z"/><text text-anchor="middle" pointer-events="none" font-size="8px" fill="#000000" x="65.9027744695202" y="3" font-family="sans-serif">NEXT</text></g><g class="relationship" transform="translate(108.23153703319193 215.66872777292852) rotate(255.83576895967303)"><path class="outline" fill="#68BDF6" stroke="none" d="M 16.617009357883866,18.738329701443508 L 18.73832970144351,16.617009357883862 A 55.09767123124237 55.09767123124237 0 0 0 24.304818401953057,21.482076552913284 L 22.48658647807347,23.868293783381866 A 58.09767123124237 58.09767123124237 0 0 1 16.617009357883866,18.738329701443508 Z M 88.08217811164573,27.176334586082476 L 86.51323855807556,24.619299451939213 A 55.09767123124237 55.09767123124237 0 0 0 92.5409389623641,20.338936955468668 L 90.64379858271961,18.014962261130893 L 100.46143323519968,15.809503163704086 L 96.33521972165308,24.98688634414422 L 94.43807934200859,22.662911649806446 A 58.09767123124237 58.09767123124237 0 0 1 88.08217811164573,27.176334586082476"/><text text-anchor="middle" pointer-events="none" font-size="8px" fill="#000000" x="54.847621218434206" y="37.182909056249656" transform="rotate(180 54.847621218434206 34.182909056249656)" font-family="sans-serif">LAST_CHILD_OF</text></g><g class="relationship" transform="translate(108.23153703319193 215.66872777292852) rotate(255.83576895967303)"><path class="outline" fill="#6DCE9E" stroke="none" d="M 23.759917089572927,7.919364866996621 L 24.536374224880486,5.021587388129416 A 128.12771339383352 128.12771339383352 0 0 0 27.973591814107195,5.891797068804976 L 27.27761416676165,8.80994975747555 A 131.12771339383352 131.12771339383352 0 0 1 23.759917089572927,7.919364866996621 Z M 83.47691249077354,9.828528923342759 L 82.88713680186085,6.887072713101389 A 128.12771339383352 128.12771339383352 0 0 0 86.35363063683792,6.141988733876959 L 85.68268998189664,3.2179780229617334 L 95.46113309705424,5.591172124510715 L 87.69551194672049,11.99001015570741 L 87.02457129177921,9.065999444792183 A 131.12771339383352 131.12771339383352 0 0 1 83.47691249077354,9.828528923342759"/><text text-anchor="middle" pointer-events="none" font-size="8px" fill="#000000" x="55.34922652782258" y="13.86614761534804" transform="rotate(180 55.34922652782258 10.86614761534804)" font-family="sans-serif">IS_CHILD_OF</text></g><g class="relationship" transform="translate(108.23153703319193 215.66872777292852) rotate(255.83576895967303)"><path class="outline" fill="#68BDF6" stroke="none" d="M 23.759917089572927,-7.919364866996621 L 24.536374224880486,-5.021587388129416 A 128.12771339383352 128.12771339383352 0 0 1 26.533421575508328,-5.539498564647175 L 25.803723583037165,-8.449402487422546 A 131.12771339383352 131.12771339383352 0 0 0 23.759917089572927,-7.919364866996621 Z M 84.96290018508404,-9.52162770292773 L 84.3391273877985,-6.587192919640401 A 128.12771339383352 128.12771339383352 0 0 1 86.35363063683792,-6.141988733876959 L 85.68268998189664,-3.2179780229617334 L 95.46113309705424,-5.591172124510715 L 87.69551194672049,-11.99001015570741 L 87.02457129177921,-9.065999444792183 A 131.12771339383352 131.12771339383352 0 0 0 84.96290018508404,-9.52162770292773"/><text text-anchor="middle" pointer-events="none" font-size="8px" fill="#000000" x="55.34922652782258" y="-7.866147615348041" transform="rotate(180 55.34922652782258 -10.86614761534804)" font-family="sans-serif">FIRST_CHIL…</text></g><g class="relationship" transform="translate(78.90939773450764 99.4838099296) rotate(435.83576895967303)"><path class="outline" fill="#68BDF6" stroke="none" d="M 16.617009357883866,18.738329701443508 L 18.73832970144351,16.617009357883862 A 55.09767123124237 55.09767123124237 0 0 0 42.000318804710815,30.47115961759546 L 41.145584974706594,33.34682129447025 A 58.09767123124237 58.09767123124237 0 0 1 16.617009357883866,18.738329701443508 Z M 68.56425361112127,34.72956779230907 L 68.00316466947179,31.782504983416345 A 55.09767123124237 55.09767123124237 0 0 0 92.5409389623641,20.338936955468668 L 90.64379858271961,18.014962261130893 L 100.46143323519968,15.809503163704086 L 96.33521972165308,24.98688634414422 L 94.43807934200859,22.662911649806446 A 58.09767123124237 58.09767123124237 0 0 1 68.56425361112127,34.72956779230907"/><text text-anchor="middle" pointer-events="none" font-size="8px" fill="#000000" x="54.847621218434206" y="37.182909056249656" font-family="sans-serif">NEXT</text></g><g class="relationship" transform="translate(108.23153703319193 215.66872777292852) rotate(360.14269367160273)"><path class="outline" fill="#68BDF6" stroke="none" d="M 23.759917089572927,-7.919364866996621 L 24.536374224880486,-5.021587388129416 A 100.95957394387455 100.95957394387455 0 0 1 35.37897595433346,-7.297533508924474 L 34.9247052538304,-10.26294041703413 A 103.95957394387455 103.95957394387455 0 0 0 23.759917089572927,-7.919364866996621 Z M 62.23518597784788,-10.816026071109391 L 61.90134800241229,-7.83465856505498 A 100.95957394387455 100.95957394387455 0 0 1 72.82720562793487,-5.999562340027939 L 72.16870728007349,-3.07272446855917 L 81.93696841627187,-5.487486232178179 L 74.14420232365764,-11.853238082965476 L 73.48570397579626,-8.926400211496707 A 103.95957394387455 103.95957394387455 0 0 0 62.23518597784788,-10.816026071109391"/><text text-anchor="middle" pointer-events="none" font-size="8px" fill="#000000" x="48.59207210260778" y="-6.940696816138342" font-family="sans-serif">NEXT</text></g><g class="relationship" transform="translate(19.040869229313557 -47.416758369616076) rotate(413.4089143134124)"><path class="outline" fill="#FF756E" stroke="none" d="M 25 1.5 L 128.99734482590966 1.5 L 128.99734482590966 -1.5 L 25 -1.5 Z M 189.99734482590966 1.5 L 293.99468965181933 1.5 L 293.99468965181933 4.5 L 302.99468965181933 0 L 293.99468965181933 -4.5 L 293.99468965181933 -1.5 L 189.99734482590966 -1.5 Z"/><text text-anchor="middle" pointer-events="none" font-size="8px" fill="#000000" x="159.49734482590966" y="3" font-family="sans-serif">NEXT_SIBLING</text></g><g class="relationship" transform="translate(108.23153703319193 215.66872777292852) rotate(360.14269367160273)"><path class="outline" fill="#FFD86E" stroke="none" d="M 23.759917089572927,7.919364866996621 L 24.536374224880486,5.021587388129416 A 100.95957394387455 100.95957394387455 0 0 0 25.727207959868544,5.332902634200366 L 24.986136286933775,8.2399308032372 A 103.95957394387455 103.95957394387455 0 0 1 23.759917089572927,7.919364866996621 Z M 72.2475114611281,9.197057441353365 L 71.62474409409981,6.2624091137739555 A 100.95957394387455 100.95957394387455 0 0 0 72.82720562793487,5.999562340027939 L 72.16870728007349,3.07272446855917 L 81.93696841627187,5.487486232178179 L 74.14420232365764,11.853238082965476 L 73.48570397579626,8.926400211496707 A 103.95957394387455 103.95957394387455 0 0 1 72.2475114611281,9.197057441353365"/><text text-anchor="middle" pointer-events="none" font-size="8px" fill="#000000" x="48.5920721026078" y="12.940696816138342" font-family="sans-serif">NEXT_W…</text></g><g class="relationship" transform="translate(-250.19034784078264 218.44748539674805) rotate(315.360516633423)"><path class="outline" fill="#68BDF6" stroke="none" d="M 23.759917089572927,-7.919364866996621 L 24.536374224880486,-5.021587388129416 A 633.4561060599883 633.4561060599883 0 0 1 171.20885135009752,-26.370400859795495 L 171.12702392498804,-29.369284697575836 A 636.4561060599883 636.4561060599883 0 0 0 23.759917089572927,-7.919364866996621 Z M 198.18827888951438,-29.532138031512773 L 198.14255036202854,-26.532486568130025 A 633.4561060599883 633.4561060599883 0 0 1 345.0613471303454,-6.950491295805797 L 344.3198223415426,-4.0435786745543485 L 354.15284738850113,-6.179373240023143 L 346.544396707951,-12.764316538308696 L 345.80287191914823,-9.857403917057248 A 636.4561060599883 636.4561060599883 0 0 0 198.18827888951438,-29.532138031512773"/><text text-anchor="middle" pointer-events="none" font-size="8px" fill="#000000" x="184.6658125203217" y="-25.09458339187006" font-family="sans-serif">NEXT</text></g><g class="relationship" transform="translate(78.90939773450764 99.4838099296) rotate(247.82691453747339)"><path class="outline" fill="#6DCE9E" stroke="none" d="M 23.759917089572927,7.919364866996621 L 24.536374224880486,5.021587388129416 A 205.18501595821942 205.18501595821942 0 0 0 47.103019299719676,9.727690490856077 L 46.65650796921837,12.69427567111535 A 208.18501595821942 208.18501595821942 0 0 1 23.759917089572927,7.919364866996621 Z M 102.8850991881099,13.477047185647365 L 102.52134195590867,10.499182065125382 A 205.18501595821942 205.18501595821942 0 0 0 125.21024601625754,6.42309216332759 L 124.5147554366519,3.504823352254867 L 134.31279773927852,5.7957548300470165 L 126.60122717546882,12.259629785473036 L 125.90573659586317,9.341360974400313 A 208.18501595821942 208.18501595821942 0 0 1 102.8850991881099,13.477047185647365"/><text text-anchor="middle" pointer-events="none" font-size="8px" fill="#000000" x="74.76513191541312" y="16.493072312083825" transform="rotate(180 74.76513191541312 13.493072312083825)" font-family="sans-serif">IS_CHILD_OF</text></g><g class="relationship" transform="translate(-48.28189997608047 99.13813003038555) rotate(294.67258242563526)"><path class="outline" fill="#6DCE9E" stroke="none" d="M 25 1.5 L 48.13915080068068 1.5 L 48.13915080068068 -1.5 L 25 -1.5 Z M 104.13915080068068 1.5 L 127.27830160136136 1.5 L 127.27830160136136 4.5 L 136.27830160136136 0 L 127.27830160136136 -4.5 L 127.27830160136136 -1.5 L 104.13915080068068 -1.5 Z"/><text text-anchor="middle" pointer-events="none" font-size="8px" fill="#000000" x="76.13915080068068" y="3" font-family="sans-serif">IS_CHILD_OF</text></g><g class="relationship" transform="translate(-48.28189997608047 99.13813003038555) rotate(294.67258242563526)"><path class="outline" fill="#68BDF6" stroke="none" d="M 20.90063509461097,-13.799038105676656 L 22.40063509461097,-11.20096189432334 A 113.18458602594932 113.18458602594932 0 0 1 41.19249371905807,-19.866118277808 L 40.19057899597392,-22.693867716437097 A 116.18458602594932 116.18458602594932 0 0 0 20.90063509461097,-13.799038105676656 Z M 111.91488263437297,-24.6028671613699 L 111.06480546872982,-21.72582548415143 A 113.18458602594932 113.18458602594932 0 0 1 130.29099215877045,-14.072549644933591 L 128.931317687564,-11.398360920787624 L 138.99339556681159,-11.330620593387195 L 133.01034110118337,-19.420927093225526 L 131.6506666299769,-16.74673836907956 A 116.18458602594932 116.18458602594932 0 0 0 111.91488263437297,-24.6028671613699"/><text text-anchor="middle" pointer-events="none" font-size="8px" fill="#000000" x="75.94158713845874" y="-24.824221359308098" font-family="sans-serif">FIRST_CHILD_OF</text></g><g class="relationship" transform="translate(-250.19034784078264 218.44748539674805) rotate(315.360516633423)"><path class="outline" fill="#FF756E" stroke="none" d="M 23.759917089572927,7.919364866996621 L 24.536374224880486,5.021587388129416 A 633.4561060599883 633.4561060599883 0 0 0 154.26353920347765,25.680923641188997 L 154.10146006723375,28.676542167235652 A 636.4561060599883 636.4561060599883 0 0 1 23.759917089572927,7.919364866996621 Z M 215.22094708558822,29.044356307507314 L 215.09493335995333,26.047004052441025 A 633.4561060599883 633.4561060599883 0 0 0 345.0613471303454,6.950491295805797 L 344.3198223415426,4.0435786745543485 L 354.15284738850113,6.179373240023143 L 346.544396707951,12.764316538308696 L 345.80287191914823,9.857403917057248 A 636.4561060599883 636.4561060599883 0 0 1 215.22094708558822,29.044356307507314"/><text text-anchor="middle" pointer-events="none" font-size="8px" fill="#000000" x="184.66581252032182" y="31.09458339187006" font-family="sans-serif">NEXT_SIBLING</text></g><g class="relationship" transform="translate(78.90939773450764 99.4838099296) rotate(247.82691453747339)"><path class="outline" fill="#68BDF6" stroke="none" d="M 23.759917089572927,-7.919364866996621 L 24.536374224880486,-5.021587388129416 A 205.18501595821942 205.18501595821942 0 0 1 41.22660280888863,-8.755785368775236 L 40.69417268265964,-11.708160372172301 A 208.18501595821942 208.18501595821942 0 0 0 23.759917089572927,-7.919364866996621 Z M 108.87257448004226,-12.657288025496484 L 108.42253617812463,-9.691235846790391 A 205.18501595821942 205.18501595821942 0 0 1 125.21024601625754,-6.42309216332759 L 124.5147554366519,-3.504823352254867 L 134.31279773927852,-5.7957548300470165 L 126.60122717546882,-12.259629785473036 L 125.90573659586317,-9.341360974400313 A 208.18501595821942 208.18501595821942 0 0 0 108.87257448004226,-12.657288025496484"/><text text-anchor="middle" pointer-events="none" font-size="8px" fill="#000000" x="74.76513191541308" y="-10.493072312083825" transform="rotate(180 74.76513191541308 -13.493072312083825)" font-family="sans-serif">LAST_CHILD_OF</text></g><g class="relationship" transform="translate(-127.77712072694482 216.8039700895759) rotate(358.9998630677296)"><path class="outline" fill="#FF756E" stroke="none" d="M 25 1.5 L 27.819087367911273 1.5 L 27.819087367911273 -1.5 L 25 -1.5 Z M 88.81908736791127 1.5 L 91.63817473582255 1.5 L 91.63817473582255 4.5 L 100.63817473582255 0 L 91.63817473582255 -4.5 L 91.63817473582255 -1.5 L 88.81908736791127 -1.5 Z"/><text text-anchor="middle" pointer-events="none" font-size="8px" fill="#000000" x="58.31908736791127" y="3" font-family="sans-serif">NEXT_SIBLING</text></g><g class="relationship" transform="translate(-127.77712072694482 216.8039700895759) rotate(358.9998630677296)"><path class="outline" fill="#68BDF6" stroke="none" d="M 20.90063509461097,13.799038105676656 L 22.40063509461097,11.20096189432334 A 76.61048211475199 76.61048211475199 0 0 0 44.994685636093465,19.83649914808626 L 44.37944904905462,22.77273550471166 A 79.61048211475199 79.61048211475199 0 0 1 20.90063509461097,13.799038105676656 Z M 71.74559099492294,23.695657041356966 L 71.32957612289805,20.724641789586272 A 76.61048211475199 76.61048211475199 0 0 0 94.4540936374976,13.630960569713874 L 93.13254272616302,10.937727718891143 L 103.1945676456331,11.012924261121501 L 97.09719546016677,19.017426271359337 L 95.77564454883219,16.324193420536606 A 79.61048211475199 79.61048211475199 0 0 1 71.74559099492294,23.695657041356966"/><text text-anchor="middle" pointer-events="none" font-size="8px" fill="#000000" x="58.073101507052094" y="25.920437832318555" font-family="sans-serif">NEXT</text></g></g><g class="layer nodes"><g class="node" transform="translate(-250.19034784078264,218.44748539674805)"><circle class="outline" cx="0" cy="0" r="25" fill="#FFD86E" stroke="#EDBA39" stroke-width="2px"/><text text-anchor="middle" pointer-events="none" font-family="sans-serif" dy="1.5625" font-size="25" fill="#604A0E"/><text text-anchor="middle" pointer-events="none" y="5" font-size="10px" fill="#604A0E" font-family="sans-serif"> u.</text></g><g class="node" transform="translate(-127.77712072694482,216.8039700895759)"><circle class="outline" cx="0" cy="0" r="25" fill="#FFD86E" stroke="#EDBA39" stroke-width="2px"/><text text-anchor="middle" pointer-events="none" font-family="sans-serif" dy="1.5625" font-size="25" fill="#604A0E"/><text text-anchor="middle" pointer-events="none" y="5" font-size="10px" fill="#604A0E" font-family="sans-serif"> ſeine</text></g><g class="node" transform="translate(-48.28189997608047,99.13813003038555)"><circle class="outline" cx="0" cy="0" r="25" fill="#68BDF6" stroke="#5CA8DB" stroke-width="2px"/><text text-anchor="middle" pointer-events="none" font-family="sans-serif" dy="1.5625" font-size="25" fill="#FFFFFF"/><text text-anchor="middle" pointer-events="none" y="5" font-size="10px" fill="#FFFFFF" font-family="sans-serif"> del</text></g><g class="node" transform="translate(78.90939773450764,99.4838099296)"><circle class="outline" cx="0" cy="0" r="25" fill="#68BDF6" stroke="#5CA8DB" stroke-width="2px"/><text text-anchor="middle" pointer-events="none" font-family="sans-serif" dy="1.5625" font-size="25" fill="#FFFFFF"/><text text-anchor="middle" pointer-events="none" y="5" font-size="10px" fill="#FFFFFF" font-family="sans-serif"> add</text></g><g class="node" transform="translate(108.23153703319193,215.66872777292852)"><circle class="outline" cx="0" cy="0" r="25" fill="#FFD86E" stroke="#EDBA39" stroke-width="2px"/><text text-anchor="middle" pointer-events="none" font-family="sans-serif" dy="1.5625" font-size="25" fill="#604A0E"/><text text-anchor="middle" pointer-events="none" y="5" font-size="10px" fill="#604A0E" font-family="sans-serif"> dieſe</text></g><g class="node" transform="translate(214.55849129970113,215.93353287710795)"><circle class="outline" cx="0" cy="0" r="25" fill="#FFD86E" stroke="#EDBA39" stroke-width="2px"/><text text-anchor="middle" pointer-events="none" font-family="sans-serif" dy="1.5625" font-size="25" fill="#604A0E"/><text text-anchor="middle" pointer-events="none" y="5" font-size="10px" fill="#604A0E" font-family="sans-serif"> zum</text></g><g class="node" transform="translate(19.040869229313557,-47.416758369616076)"><circle class="outline" cx="0" cy="0" r="25" fill="#68BDF6" stroke="#5CA8DB" stroke-width="2px"/><text text-anchor="middle" pointer-events="none" font-family="sans-serif" dy="1.5625" font-size="25" fill="#FFFFFF"/><text text-anchor="middle" pointer-events="none" y="5" font-size="10px" fill="#FFFFFF" font-family="sans-serif"> subst</text></g><g class="node" transform="translate(-2.158086534383278,214.61098138072887)"><circle class="outline" cx="0" cy="0" r="25" fill="#FFD86E" stroke="#EDBA39" stroke-width="2px"/><text text-anchor="middle" pointer-events="none" font-family="sans-serif" dy="1.5625" font-size="25" fill="#604A0E"/><text text-anchor="middle" pointer-events="none" y="5" font-size="10px" fill="#604A0E" font-family="sans-serif"> Fehler</text></g></g></svg>