<svg xmlns="http://www.w3.org/2000/svg" width="581.4784545898438" height="359.8408203125" viewBox="-346.142333984375 -75.87004852294922 581.4784545898438 359.8408203125"><title>Neo4j Graph Visualization</title><desc>Created using Neo4j (http://www.neo4j.com/)</desc><g class="layer relationships"><g class="relationship" transform="translate(-309.64233887323894 142.14219394907306) rotate(394.43956239004643)"><path class="outline" fill="#FFD86E" stroke="none" d="M 32.5 2.5 L 52.191622410932524 2.5 L 52.191622410932524 -2.5 L 32.5 -2.5 Z M 109.30490366093252 2.5 L 128.99652607186505 2.5 L 128.99652607186505 5.5 L 139.99652607186505 0 L 128.99652607186505 -5.5 L 128.99652607186505 -2.5 L 109.30490366093252 -2.5 Z"/><text text-anchor="middle" pointer-events="none" font-size="8px" fill="#000000" x="80.74826303593252" y="3" font-family="sans-serif">NEXT_WORD</text></g><g class="relationship" transform="translate(-167.38045271263516 239.69529360710047) rotate(300.356185775147)"><path class="outline" fill="#DE9BF9" stroke="none" d="M 26.89582562299426,18.415063509461092 L 29.39582562299426,14.0849364905389 A 138.06876852052076 138.06876852052076 0 0 0 61.763707199930565,27.6249284486462 L 60.43587241599554,32.44539054128548 A 143.06876852052076 143.06876852052076 0 0 1 26.89582562299426,18.415063509461092 Z M 134.01840012349118,33.08570971086225 L 132.77465592242427,28.24286959763195 A 138.06876852052076 138.06876852052076 0 0 0 165.37326935966993,15.26821962265371 L 163.9187102976805,12.644432677190263 L 176.20595404469378,12.121325516578635 L 169.25209352497512,22.264984810556232 L 167.79753446298568,19.641197865092785 A 143.06876852052076 143.06876852052076 0 0 1 134.01840012349118,33.08570971086225"/><text text-anchor="middle" pointer-events="none" font-size="8px" fill="#000000" x="97.20701910508771" y="38.07732196737287" font-family="sans-serif">FIRST_CHILD_OF</text></g><g class="relationship" transform="translate(-67.28058748112932 68.77988552048916) rotate(306.2958766743253)"><path class="outline" fill="#DE9BF9" stroke="none" d="M 20.40063509461097,14.665063509461095 L 22.90063509461097,10.334936490538901 A 93.01394525400268 93.01394525400268 0 0 0 31.590203755159813,14.761541287363997 L 29.557314823119533,19.329622130561518 A 98.01394525400268 98.01394525400268 0 0 1 20.40063509461097,14.665063509461095 Z M 102.7260884912765,21.959567372278286 L 101.02640786504931,17.257324740423996 A 93.01394525400268 93.01394525400268 0 0 0 110.01135788691482,13.466004833287798 L 108.70175586795663,10.766941560235338 L 120.99925823723899,10.913350157984851 L 113.50362993746997,20.663506894761024 L 112.19402791851178,17.964443621708565 A 98.01394525400268 98.01394525400268 0 0 1 102.7260884912765,21.959567372278286"/><text text-anchor="middle" pointer-events="none" font-size="8px" fill="#000000" x="65.97671329596118" y="28.234802893296717" font-family="sans-serif">FIRST_CHILD_OF</text></g><g class="relationship" transform="translate(70.03142927011051 67.37644772754749) rotate(245.37289933266953)"><path class="outline" fill="#FB95AF" stroke="none" d="M 23.501098044470403,8.88529069328569 L 24.79519326998301,4.055661561840347 A 136.6763620549803 136.6763620549803 0 0 0 24.865976194541872,4.07460745451354 L 23.574470404521065,8.904929679204429 A 141.6763620549803 141.6763620549803 0 0 1 23.501098044470403,8.88529069328569 Z M 91.01776121640673,10.31363674745262 L 89.92907846143537,5.433598852207524 A 136.6763620549803 136.6763620549803 0 0 0 90.0005907620619,5.417625120101903 L 89.3458114382256,2.4899530009812416 L 101.28103796870126,5.456494365302628 L 91.74666895895875,13.22475077109033 L 91.09188963512244,10.297078651969668 A 141.6763620549803 141.6763620549803 0 0 1 91.01776121640673,10.31363674745262"/><text text-anchor="middle" pointer-events="none" font-size="8px" fill="#000000" x="57.26325671986404" y="14.182445762939608" transform="rotate(180 57.26325671986404 11.182445762939608)" font-family="sans-serif">LAST_CHILD_…</text></g><g class="relationship" transform="translate(-12.518408153882973 143.4194665838936) rotate(317.3494391366921)"><path class="outline" fill="#FB95AF" stroke="none" d="M 21.213203435596427,24.74873734152916 L 24.748737341529164,21.213203435596423 A 42.85267935573112 42.85267935573112 0 0 0 25.551757064970822,21.995484778318843 L 22.10991855166168,25.622294347113694 A 47.85267935573112 47.85267935573112 0 0 1 21.213203435596427,24.74873734152916 Z M 86.46269719699313,27.010692834772925 L 83.18048394227685,23.23881317728585 A 42.85267935573112 42.85267935573112 0 0 0 84.01649587309997,22.491893618746055 L 81.98864098962838,20.281055639250404 L 93.81278086747703,16.898790695596592 L 89.42410889569089,28.38746156406779 L 87.3962540122193,26.17662358457214 A 47.85267935573112 47.85267935573112 0 0 1 86.46269719699313,27.010692834772925"/><text text-anchor="middle" pointer-events="none" font-size="8px" fill="#000000" x="54.071910054361766" y="39.253911106826344" font-family="sans-serif">LAST_CHILD_…</text></g><g class="relationship" transform="translate(-12.518408153882973 143.4194665838936) rotate(359.29628314262277)"><path class="outline" fill="#FFD86E" stroke="none" d="M 30.745541741638416,-10.826433531554594 L 32.03963696715102,-5.996804400109253 A 276.9039255153799 276.9039255153799 0 0 1 71.92572382191116,-13.602129308575343 L 71.35184386204571,-18.569086303724873 A 281.9039255153799 281.9039255153799 0 0 0 30.745541741638416,-10.826433531554594 Z M 128.87115173499075,-19.306749581088923 L 128.42483824122144,-14.326708992370868 A 276.9039255153799 276.9039255153799 0 0 1 168.49284578228975,-7.74676497758627 L 167.7909575828986,-4.830028281284139 L 179.77245383489017,-7.603788826737238 L 170.36454764733276,-15.524729501058623 L 169.66265944794162,-12.607992804756492 A 281.9039255153799 281.9039255153799 0 0 0 128.87115173499075,-19.306749581088923"/><text text-anchor="middle" pointer-events="none" font-size="8px" fill="#000000" x="100.12469196212395" y="-14.909102788051825" font-family="sans-serif">NEXT_WORD</text></g><g class="relationship" transform="translate(-309.64233887323894 142.14219394907306) rotate(329.994198137843)"><path class="outline" fill="#68BDF6" stroke="none" d="M 30.745541741638416,-10.826433531554594 L 32.03963696715102,-5.996804400109253 A 605.142080021498 605.142080021498 0 0 1 173.61424235055634,-26.42940107377933 L 173.48991047531658,-31.42785499322281 A 610.142080021498 610.142080021498 0 0 0 30.745541741638416,-10.826433531554594 Z M 200.9359232506064,-31.493052710069946 L 200.83534019476716,-26.49406450755555 A 605.142080021498 605.142080021498 0 0 1 342.50542208259594,-6.734312631793606 L 341.74274091287396,-3.8328789459493944 L 353.7795799054597,-6.355676414349885 L 344.5392385351879,-14.47146912737817 L 343.7765573654659,-11.570035441533957 A 610.142080021498 610.142080021498 0 0 0 200.9359232506064,-31.493052710069946"/><text text-anchor="middle" pointer-events="none" font-size="8px" fill="#000000" x="187.21848892420007" y="-26.114806314675207" font-family="sans-serif">NEXT</text></g><g class="relationship" transform="translate(70.03142927011051 67.37644772754749) rotate(245.37289933266953)"><path class="outline" fill="#FF756E" stroke="none" d="M 23.501098044470403,-8.88529069328569 L 24.79519326998301,-4.055661561840347 A 136.6763620549803 136.6763620549803 0 0 1 29.31542390030801,-5.184641890640108 L 28.186691235020216,-10.055572250469965 A 141.6763620549803 141.6763620549803 0 0 0 23.501098044470403,-8.88529069328569 Z M 86.36151642594243,-11.270686258906125 L 85.43716047619554,-6.356872457166418 A 136.6763620549803 136.6763620549803 0 0 1 90.0005907620619,-5.417625120101903 L 89.3458114382256,-2.4899530009812416 L 101.28103796870126,-5.456494365302628 L 91.74666895895875,-13.22475077109033 L 91.09188963512244,-10.297078651969668 A 141.6763620549803 141.6763620549803 0 0 0 86.36151642594243,-11.270686258906125"/><text text-anchor="middle" pointer-events="none" font-size="8px" fill="#000000" x="57.26325671986402" y="-8.182445762939608" transform="rotate(180 57.26325671986402 -11.182445762939608)" font-family="sans-serif">IS_CHILD_OF</text></g><g class="relationship" transform="translate(-67.28058748112932 68.77988552048916) rotate(306.2958766743253)"><path class="outline" fill="#FF756E" stroke="none" d="M 25 2.5 L 37.46056983967142 2.5 L 37.46056983967142 -2.5 L 25 -2.5 Z M 95.03088233967142 2.5 L 107.49145217934284 2.5 L 107.49145217934284 5.5 L 118.49145217934284 0 L 107.49145217934284 -5.5 L 107.49145217934284 -2.5 L 95.03088233967142 -2.5 Z"/><text text-anchor="middle" pointer-events="none" font-size="8px" fill="#000000" x="66.24572608967142" y="3" font-family="sans-serif">IS_CHILD_OF</text></g><g class="relationship" transform="translate(-309.64233887323894 142.14219394907306) rotate(329.994198137843)"><path class="outline" fill="#6DCE9E" stroke="none" d="M 30.745541741638416,10.826433531554594 L 32.03963696715102,5.996804400109253 A 605.142080021498 605.142080021498 0 0 0 155.6952957702477,25.71788330456036 L 155.4229081972479,30.710458292487488 A 610.142080021498 610.142080021498 0 0 1 30.745541741638416,10.826433531554594 Z M 219.006129944936,30.861499572023376 L 218.75746493174594,25.867686829116906 A 605.142080021498 605.142080021498 0 0 0 342.50542208259594,6.734312631793606 L 341.74274091287396,3.8328789459493944 L 353.7795799054597,6.355676414349885 L 344.5392385351879,14.47146912737817 L 343.7765573654659,11.570035441533957 A 610.142080021498 610.142080021498 0 0 1 219.006129944936,30.861499572023376"/><text text-anchor="middle" pointer-events="none" font-size="8px" fill="#000000" x="187.21848892420013" y="32.11480631467521" font-family="sans-serif">NEXT_SIBLING</text></g><g class="relationship" transform="translate(17.659920656189172 -46.87004714663679) rotate(486.2958766743253)"><path class="outline" fill="#68BDF6" stroke="none" d="M 20.40063509461097,14.665063509461095 L 22.90063509461097,10.334936490538901 A 93.01394525400268 93.01394525400268 0 0 0 52.84438380387627,21.309835124369542 L 51.95402140324349,26.229921993068032 A 98.01394525400268 98.01394525400268 0 0 1 20.40063509461097,14.665063509461095 Z M 79.89177510755722,27.234103951237046 L 79.35694471384257,22.262790598614927 A 93.01394525400268 93.01394525400268 0 0 0 110.01135788691482,13.466004833287798 L 108.70175586795663,10.766941560235338 L 120.99925823723899,10.913350157984851 L 113.50362993746997,20.663506894761024 L 112.19402791851178,17.964443621708565 A 98.01394525400268 98.01394525400268 0 0 1 79.89177510755722,27.234103951237046"/><text text-anchor="middle" pointer-events="none" font-size="8px" fill="#000000" x="65.97671329596118" y="28.234802893296717" transform="rotate(180 65.97671329596118 25.234802893296717)" font-family="sans-serif">NEXT</text></g><g class="relationship" transform="translate(-167.38045271263516 239.69529360710047) rotate(300.356185775147)"><path class="outline" fill="#FF756E" stroke="none" d="M 32.5 2.5 L 68.50026637844455 2.5 L 68.50026637844455 -2.5 L 32.5 -2.5 Z M 126.07057887844455 2.5 L 162.0708452568891 2.5 L 162.0708452568891 5.5 L 173.0708452568891 0 L 162.0708452568891 -5.5 L 162.0708452568891 -2.5 L 126.07057887844455 -2.5 Z"/><text text-anchor="middle" pointer-events="none" font-size="8px" fill="#000000" x="97.28542262844455" y="3" font-family="sans-serif">IS_CHILD_OF</text></g><g class="relationship" transform="translate(-67.28058748112932 68.77988552048916) rotate(359.4144120493929)"><path class="outline" fill="#6DCE9E" stroke="none" d="M 25 2.5 L 31.48381309400159 2.5 L 31.48381309400159 -2.5 L 25 -2.5 Z M 94.83537559400159 2.5 L 101.31918868800318 2.5 L 101.31918868800318 5.5 L 112.31918868800318 0 L 101.31918868800318 -5.5 L 101.31918868800318 -2.5 L 94.83537559400159 -2.5 Z"/><text text-anchor="middle" pointer-events="none" font-size="8px" fill="#000000" x="63.15959434400159" y="3" font-family="sans-serif">NEXT_SIBLING</text></g><g class="relationship" transform="translate(-12.518408153882973 143.4194665838936) rotate(317.3494391366921)"><path class="outline" fill="#FF756E" stroke="none" d="M 30.745541741638416,10.826433531554594 L 32.03963696715102,5.996804400109253 A 88.90582425923762 88.90582425923762 0 0 0 33.07157562885311,6.266687279613691 L 31.835515895969937,11.111494431270486 A 93.90582425923762 93.90582425923762 0 0 1 30.745541741638416,10.826433531554594 Z M 76.83619609663879,11.464077143603987 L 75.67620209400287,6.600496784049028 A 88.90582425923762 88.90582425923762 0 0 0 76.71224289977259,6.346816633179808 L 75.98128678162348,3.4372284916483666 L 87.98986285051214,6.091300984575929 L 78.6614592148369,14.105718343930317 L 77.93050309668779,11.196130202398875 A 93.90582425923762 93.90582425923762 0 0 1 76.83619609663879,11.464077143603987"/><text text-anchor="middle" pointer-events="none" font-size="8px" fill="#000000" x="54.33401001372736" y="14.523391416124923" font-family="sans-serif">IS_CHIL…</text></g><g class="relationship" transform="translate(-12.518408153882973 143.4194665838936) rotate(317.3494391366921)"><path class="outline" fill="#DE9BF9" stroke="none" d="M 30.745541741638416,-10.826433531554594 L 32.03963696715102,-5.996804400109253 A 88.90582425923762 88.90582425923762 0 0 1 34.33479300030481,-6.579144668720559 L 33.169775709352564,-11.441524200573497 A 93.90582425923762 93.90582425923762 0 0 0 30.745541741638416,-10.826433531554594 Z M 75.49692880444684,-11.77315968646117 L 74.40824386611853,-6.893122278299515 A 88.90582425923762 88.90582425923762 0 0 1 76.71224289977259,-6.346816633179808 L 75.98128678162348,-3.4372284916483666 L 87.98986285051214,-6.091300984575929 L 78.6614592148369,-14.105718343930317 L 77.93050309668779,-11.196130202398875 A 93.90582425923762 93.90582425923762 0 0 0 75.49692880444684,-11.77315968646117"/><text text-anchor="middle" pointer-events="none" font-size="8px" fill="#000000" x="54.33401001372733" y="-8.523391416124923" font-family="sans-serif">FIRST_…</text></g><g class="relationship" transform="translate(-67.28058748112932 68.77988552048916) rotate(480.356185775147)"><path class="outline" fill="#68BDF6" stroke="none" d="M 20.40063509461097,14.665063509461095 L 22.90063509461097,10.334936490538901 A 145.8716117613742 145.8716117613742 0 0 0 76.16036893656059,28.54491959685363 L 75.48593777750393,33.49922505894351 A 150.8716117613742 150.8716117613742 0 0 1 20.40063509461097,14.665063509461095 Z M 103.21730586677455,34.69737714840029 L 102.97269838875708,29.703364014487036 A 145.8716117613742 145.8716117613742 0 0 0 157.60457652891733,16.154909323037703 L 156.3342511762093,13.437139373563099 L 168.62833747091426,13.7618579876704 L 160.99211080280543,23.402295854969985 L 159.7217854500974,20.68452590549538 A 150.8716117613742 150.8716117613742 0 0 1 103.21730586677455,34.69737714840029"/><text text-anchor="middle" pointer-events="none" font-size="8px" fill="#000000" x="89.43192237528532" y="35.23973555372105" transform="rotate(180 89.43192237528532 32.23973555372105)" font-family="sans-serif">NEXT</text></g><g class="relationship" transform="translate(-309.64233887323894 142.14219394907306) rotate(360.2463008627337)"><path class="outline" fill="#FFD86E" stroke="none" d="M 32.5 2.5 L 114.5066974092407 2.5 L 114.5066974092407 -2.5 L 32.5 -2.5 Z M 171.6199786592407 2.5 L 253.6266760684814 2.5 L 253.6266760684814 5.5 L 264.6266760684814 0 L 253.6266760684814 -5.5 L 253.6266760684814 -2.5 L 171.6199786592407 -2.5 Z"/><text text-anchor="middle" pointer-events="none" font-size="8px" fill="#000000" x="143.0633380342407" y="3" font-family="sans-serif">NEXT_WORD</text></g><g class="relationship" transform="translate(70.03142927011051 67.37644772754749) rotate(497.3494391366921)"><path class="outline" fill="#68BDF6" stroke="none" d="M 15.90990257669732,19.445436482630054 L 19.445436482630058,15.909902576697316 A 43.879271272814094 43.879271272814094 0 0 0 33.43754081759313,25.320073771481546 L 31.49639350116969,29.9278874717023 A 48.879271272814094 48.879271272814094 0 0 1 15.90990257669732,19.445436482630054 Z M 59.737184446857846,32.87583980232741 L 58.78950075063531,27.96647165439697 A 43.879271272814094 43.879271272814094 0 0 0 74.4233718549685,21.648847106456945 L 72.78588305396511,19.135158496746406 L 85.00480409140997,17.739462010869985 L 78.7900086576442,28.352016732351714 L 77.15251985664081,25.838328122641176 A 48.879271272814094 48.879271272814094 0 0 1 59.737184446857846,32.87583980232741"/><text text-anchor="middle" pointer-events="none" font-size="8px" fill="#000000" x="45.657568488623646" y="34.01120408156675" transform="rotate(180 45.657568488623646 31.011204081566753)" font-family="sans-serif">NEXT</text></g><g class="relationship" transform="translate(-12.518408153882973 143.4194665838936) rotate(359.29628314262277)"><path class="outline" fill="#68BDF6" stroke="none" d="M 30.745541741638416,10.826433531554594 L 32.03963696715102,5.996804400109253 A 276.9039255153799 276.9039255153799 0 0 0 86.62184088684955,14.904451359963389 L 86.31332583717067,19.894924129563606 A 281.9039255153799 281.9039255153799 0 0 1 30.745541741638416,10.826433531554594 Z M 113.88058926595413,20.24846381286011 L 113.70015646968896,15.251720472840361 A 276.9039255153799 276.9039255153799 0 0 0 168.49284578228975,7.74676497758627 L 167.7909575828986,4.830028281284139 L 179.77245383489017,7.603788826737238 L 170.36454764733276,15.524729501058623 L 169.66265944794162,12.607992804756492 A 281.9039255153799 281.9039255153799 0 0 1 113.88058926595413,20.24846381286011"/><text text-anchor="middle" pointer-events="none" font-size="8px" fill="#000000" x="100.12469196212402" y="20.909102788051825" font-family="sans-serif">NEXT</text></g><g class="relationship" transform="translate(17.659920656189172 -46.87004714663679) rotate(406.0122179105374)"><path class="outline" fill="#6DCE9E" stroke="none" d="M 25 2.5 L 89.50968973621835 2.5 L 89.50968973621835 -2.5 L 25 -2.5 Z M 152.86125223621835 2.5 L 217.3709419724367 2.5 L 217.3709419724367 5.5 L 228.3709419724367 0 L 217.3709419724367 -5.5 L 217.3709419724367 -2.5 L 152.86125223621835 -2.5 Z"/><text text-anchor="middle" pointer-events="none" font-size="8px" fill="#000000" x="121.18547098621835" y="3" font-family="sans-serif">NEXT_SIBLING</text></g><g class="relationship" transform="translate(43.74128488078486 238.06138290674218) rotate(327.9140113565497)"><path class="outline" fill="#FFD86E" stroke="none" d="M 32.5 2.5 L 57.47151578954528 2.5 L 57.47151578954528 -2.5 L 32.5 -2.5 Z M 114.58479703954528 2.5 L 139.55631282909056 2.5 L 139.55631282909056 5.5 L 150.55631282909056 0 L 139.55631282909056 -5.5 L 139.55631282909056 -2.5 L 114.58479703954528 -2.5 Z"/><text text-anchor="middle" pointer-events="none" font-size="8px" fill="#000000" x="86.02815641454528" y="3" font-family="sans-serif">NEXT_WORD</text></g><g class="relationship" transform="translate(-167.38045271263516 239.69529360710047) rotate(359.55658607532223)"><path class="outline" fill="#6DCE9E" stroke="none" d="M 26.89582562299426,-18.415063509461092 L 29.39582562299426,-14.0849364905389 A 148.3767267246004 148.3767267246004 0 0 1 69.05511974281625,-29.890062498881534 L 67.89155892014873,-34.75279076724625 A 153.3767267246004 153.3767267246004 0 0 0 26.89582562299426,-18.415063509461092 Z M 131.80093599077705,-36.34578719173298 L 130.88108499356065,-31.431128084234288 A 148.3767267246004 148.3767267246004 0 0 1 171.27855278714443,-17.62148601470561 L 169.9098536933675,-14.95190500063352 L 182.2075990835562,-14.827573515916889 L 174.92841703721626,-24.74036871889785 L 173.55971794343932,-22.07078770482576 A 153.3767267246004 153.3767267246004 0 0 0 131.80093599077705,-36.34578719173298"/><text text-anchor="middle" pointer-events="none" font-size="8px" fill="#000000" x="99.8246239786637" y="-33.41680061422686" font-family="sans-serif">NEXT_SIBLING</text></g><g class="relationship" transform="translate(-167.38045271263516 239.69529360710047) rotate(359.55658607532223)"><path class="outline" fill="#FFD86E" stroke="none" d="M 32.5 2.5 L 71.50738940966859 2.5 L 71.50738940966859 -2.5 L 32.5 -2.5 Z M 128.62067065966858 2.5 L 167.62806006933718 2.5 L 167.62806006933718 5.5 L 178.62806006933718 0 L 167.62806006933718 -5.5 L 167.62806006933718 -2.5 L 128.62067065966858 -2.5 Z"/><text text-anchor="middle" pointer-events="none" font-size="8px" fill="#000000" x="100.06403003466859" y="3" font-family="sans-serif">NEXT_WORD</text></g><g class="relationship" transform="translate(-167.38045271263516 239.69529360710047) rotate(359.55658607532223)"><path class="outline" fill="#68BDF6" stroke="none" d="M 26.89582562299426,18.415063509461092 L 29.39582562299426,14.0849364905389 A 148.3767267246004 148.3767267246004 0 0 0 86.48313217457127,32.974868710092395 L 85.90686063966729,37.94154880025921 A 153.3767267246004 153.3767267246004 0 0 1 26.89582562299426,18.415063509461092 Z M 113.6491397451434,38.63304906904291 L 113.3210276848984,33.643826436615896 A 148.3767267246004 148.3767267246004 0 0 0 171.27855278714443,17.62148601470561 L 169.9098536933675,14.95190500063352 L 182.2075990835562,14.827573515916889 L 174.92841703721626,24.74036871889785 L 173.55971794343932,22.07078770482576 A 153.3767267246004 153.3767267246004 0 0 1 113.6491397451434,38.63304906904291"/><text text-anchor="middle" pointer-events="none" font-size="8px" fill="#000000" x="99.82462397866368" y="39.41680061422686" font-family="sans-serif">NEXT</text></g><g class="relationship" transform="translate(43.74128488078486 238.06138290674218) rotate(236.7414650952055)"><path class="outline" fill="#FF756E" stroke="none" d="M 30.745541741638416,10.826433531554594 L 32.03963696715102,5.996804400109253 A 265.00511628494394 265.00511628494394 0 0 0 71.00755008265348,13.366045904224876 L 70.448684305949,18.334714643799742 A 270.00511628494394 270.00511628494394 0 0 1 30.745541741638416,10.826433531554594 Z M 128.44439009623926,18.589967323588183 L 127.92928167222738,13.616571772105061 A 265.00511628494394 265.00511628494394 0 0 0 166.9605513907906,6.590622933686133 L 166.20963143638303,3.6861231106404277 L 178.2361507039645,6.257666286729783 L 168.96300460254415,14.335955795141345 L 168.21208464813657,11.43145597209564 A 270.00511628494394 270.00511628494394 0 0 1 128.44439009623926,18.589967323588183"/><text text-anchor="middle" pointer-events="none" font-size="8px" fill="#000000" x="99.45066686623532" y="20.52404390199891" transform="rotate(180 99.45066686623532 17.52404390199891)" font-family="sans-serif">IS_CHILD_OF</text></g><g class="relationship" transform="translate(43.74128488078486 238.06138290674218) rotate(236.7414650952055)"><path class="outline" fill="#FB95AF" stroke="none" d="M 30.745541741638416,-10.826433531554594 L 32.03963696715102,-5.996804400109253 A 265.00511628494394 265.00511628494394 0 0 1 64.88832559745674,-12.605575025560512 L 64.21400498404984,-17.55989553500828 A 270.00511628494394 270.00511628494394 0 0 0 30.745541741638416,-10.826433531554594 Z M 134.68564806909433,-17.870057735837378 L 134.05496298381897,-12.909993590767186 A 265.00511628494394 265.00511628494394 0 0 1 166.9605513907906,-6.590622933686133 L 166.20963143638303,-3.6861231106404277 L 178.2361507039645,-6.257666286729783 L 168.96300460254415,-14.335955795141345 L 168.21208464813657,-11.43145597209564 A 270.00511628494394 270.00511628494394 0 0 0 134.68564806909433,-17.870057735837378"/><text text-anchor="middle" pointer-events="none" font-size="8px" fill="#000000" x="99.45066686623521" y="-14.524043901998908" transform="rotate(180 99.45066686623521 -17.52404390199891)" font-family="sans-serif">LAST_CHILD_OF</text></g><g class="relationship" transform="translate(43.74128488078486 238.06138290674218) rotate(278.7563024540093)"><path class="outline" fill="#68BDF6" stroke="none" d="M 32.5 2.5 L 70.93091484026057 2.5 L 70.93091484026057 -2.5 L 32.5 -2.5 Z M 98.26685234026057 2.5 L 136.69776718052114 2.5 L 136.69776718052114 5.5 L 147.69776718052114 0 L 136.69776718052114 -5.5 L 136.69776718052114 -2.5 L 98.26685234026057 -2.5 Z"/><text text-anchor="middle" pointer-events="none" font-size="8px" fill="#000000" x="84.59888359026057" y="3" font-family="sans-serif">NEXT</text></g></g><g class="layer nodes"><g class="node" transform="translate(17.659920656189172,-46.87004714663679)"><circle class="outline" cx="0" cy="0" r="25" fill="#68BDF6" stroke="#5CA8DB" stroke-width="2px"/><text text-anchor="middle" pointer-events="none" font-family="sans-serif" dy="1.5625" font-size="25" fill="#FFFFFF"/><text text-anchor="middle" pointer-events="none" y="5" font-size="10px" fill="#FFFFFF" font-family="sans-serif"> subst</text></g><g class="node" transform="translate(-67.28058748112932,68.77988552048916)"><circle class="outline" cx="0" cy="0" r="25" fill="#68BDF6" stroke="#5CA8DB" stroke-width="2px"/><text text-anchor="middle" pointer-events="none" font-family="sans-serif" dy="1.5625" font-size="25" fill="#FFFFFF"/><text text-anchor="middle" pointer-events="none" y="5" font-size="10px" fill="#FFFFFF" font-family="sans-serif"> del</text></g><g class="node" transform="translate(70.03142927011051,67.37644772754749)"><circle class="outline" cx="0" cy="0" r="25" fill="#68BDF6" stroke="#5CA8DB" stroke-width="2px"/><text text-anchor="middle" pointer-events="none" font-family="sans-serif" dy="1.5625" font-size="25" fill="#FFFFFF"/><text text-anchor="middle" pointer-events="none" y="5" font-size="10px" fill="#FFFFFF" font-family="sans-serif"> add</text></g><g class="node" transform="translate(-309.64233887323894,142.14219394907306)"><circle class="outline" cx="0" cy="0" r="32.5" fill="#FFD86E" stroke="#EDBA39" stroke-width="2px"/><text text-anchor="middle" pointer-events="none" font-family="sans-serif" dy="2.03125" font-size="32.5" fill="#604A0E"/><text text-anchor="middle" pointer-events="none" y="5" font-size="10px" fill="#604A0E" font-family="sans-serif"> u.</text></g><g class="node" transform="translate(-167.38045271263516,239.69529360710047)"><circle class="outline" cx="0" cy="0" r="32.5" fill="#FFD86E" stroke="#EDBA39" stroke-width="2px"/><text text-anchor="middle" pointer-events="none" font-family="sans-serif" dy="2.03125" font-size="32.5" fill="#604A0E"/><text text-anchor="middle" pointer-events="none" y="5" font-size="10px" fill="#604A0E" font-family="sans-serif"> ſeine</text></g><g class="node" transform="translate(-12.518408153882973,143.4194665838936)"><circle class="outline" cx="0" cy="0" r="32.5" fill="#FFD86E" stroke="#EDBA39" stroke-width="2px"/><text text-anchor="middle" pointer-events="none" font-family="sans-serif" dy="2.03125" font-size="32.5" fill="#604A0E"/><text text-anchor="middle" pointer-events="none" y="5" font-size="10px" fill="#604A0E" font-family="sans-serif"> dieſe</text></g><g class="node" transform="translate(198.83608394733636,140.82344293942347)"><circle class="outline" cx="0" cy="0" r="32.5" fill="#FFD86E" stroke="#EDBA39" stroke-width="2px"/><text text-anchor="middle" pointer-events="none" font-family="sans-serif" dy="2.03125" font-size="32.5" fill="#604A0E"/><text text-anchor="middle" pointer-events="none" y="5" font-size="10px" fill="#604A0E" font-family="sans-serif"> zum</text></g><g class="node" transform="translate(43.74128488078486,238.06138290674218)"><circle class="outline" cx="0" cy="0" r="32.5" fill="#FFD86E" stroke="#EDBA39" stroke-width="2px"/><text text-anchor="middle" pointer-events="none" font-family="sans-serif" dy="2.03125" font-size="32.5" fill="#604A0E"/><text text-anchor="middle" pointer-events="none" y="5" font-size="10px" fill="#604A0E" font-family="sans-serif"> Fehler</text></g></g></svg>