<svg xmlns="http://www.w3.org/2000/svg" width="666.368408203125" height="335.3625183105469" viewBox="-195.9638671875 9.784502983093262 666.368408203125 335.3625183105469"><title>Neo4j Graph Visualization</title><desc>Created using Neo4j (http://www.neo4j.com/)</desc><g class="layer relationships"><g class="relationship" transform="translate(-159.4638654239458 51.95316271181085) rotate(425.65505728442986)"><path class="outline" fill="#FFD86E" stroke="none" d="M 32.5 2.5 L 104.42872275367023 2.5 L 104.42872275367023 -2.5 L 32.5 -2.5 Z M 161.54200400367023 2.5 L 233.47072675734046 2.5 L 233.47072675734046 5.5 L 244.47072675734046 0 L 233.47072675734046 -5.5 L 233.47072675734046 -2.5 L 161.54200400367023 -2.5 Z"/><text text-anchor="middle" pointer-events="none" font-size="8px" fill="#000000" x="132.98536337867023" y="3" font-family="sans-serif">NEXT_WORD</text></g><g class="relationship" transform="translate(-45.288462265302535 304.2957092513325) rotate(310.80023414008184)"><path class="outline" fill="#DE9BF9" stroke="none" d="M 26.89582562299426,18.415063509461092 L 29.39582562299426,14.0849364905389 A 113.42053095908842 113.42053095908842 0 0 0 49.85757849208563,23.332021419150507 L 48.25960886948141,28.06979442819538 A 118.42053095908842 118.42053095908842 0 0 1 26.89582562299426,18.415063509461092 Z M 121.72180260280567,28.79766021985661 L 120.2180214927306,24.029154964225512 A 113.42053095908842 113.42053095908842 0 0 0 140.85898017856087,15.189317031176719 L 139.4107532496346,12.562029692050526 L 151.69922286279547,12.068557741052228 L 144.7209186556976,22.1954166021799 L 143.27269172677134,19.568129263053706 A 118.42053095908842 118.42053095908842 0 0 1 121.72180260280567,28.79766021985661"/><text text-anchor="middle" pointer-events="none" font-size="8px" fill="#000000" x="84.9576031039557" y="34.77471683984788" font-family="sans-serif">FIRST_CHILD_OF</text></g><g class="relationship" transform="translate(68.14150323409666 172.88691508438754) rotate(301.4893148805367)"><path class="outline" fill="#DE9BF9" stroke="none" d="M 20.40063509461097,14.665063509461095 L 22.90063509461097,10.334936490538901 A 89.82685517656313 89.82685517656313 0 0 0 30.1510667764445,14.092353638177912 L 28.054644952903097,18.631628419217208 A 94.82685517656313 94.82685517656313 0 0 1 20.40063509461097,14.665063509461095 Z M 101.15910683734134,21.313316634592 L 99.4009000460077,16.632642657598055 A 89.82685517656313 89.82685517656313 0 0 0 106.90714094583628,13.416543973159627 L 105.60152655514757,10.715549515033777 L 117.89879928453831,10.880119922405905 L 110.38877932100617,20.61919586149523 L 109.08316493031747,17.918201403369377 A 94.82685517656313 94.82685517656313 0 0 1 101.15910683734134,21.313316634592"/><text text-anchor="middle" pointer-events="none" font-size="8px" fill="#000000" x="64.42951656438079" y="27.807396422867015" font-family="sans-serif">FIRST_CHILD_OF</text></g><g class="relationship" transform="translate(225.8729261296804 174.4856551315427) rotate(235.17921248178857)"><path class="outline" fill="#FB95AF" stroke="none" d="M 23.501098044470403,8.88529069328569 L 24.79519326998301,4.055661561840347 A 180.94115671868326 180.94115671868326 0 0 0 34.11613274436533,6.2903663208710725 L 33.079605770416244,11.181747703699017 A 185.94115671868326 185.94115671868326 0 0 1 23.501098044470403,8.88529069328569 Z M 103.61192697435791,12.449321476523778 L 102.7518237872219,7.523854746610937 A 180.94115671868326 180.94115671868326 0 0 0 112.14704052411479,5.6255079627120175 L 111.47520614567998,2.701702468505344 L 123.42752265156824,5.598619820289988 L 113.93859886660758,13.422322613929813 L 113.26676448817277,10.49851711972314 A 185.94115671868326 185.94115671868326 0 0 1 103.61192697435791,12.449321476523778"/><text text-anchor="middle" pointer-events="none" font-size="8px" fill="#000000" x="68.33002455132615" y="15.691465603523312" transform="rotate(180 68.33002455132615 12.691465603523312)" font-family="sans-serif">LAST_CHILD_OF</text></g><g class="relationship" transform="translate(332.2265550136751 303.60957376808375) rotate(230.52323479061943)"><path class="outline" fill="#FB95AF" stroke="none" d="M 21.213203435596427,24.74873734152916 L 24.748737341529164,21.213203435596423 A 82.2745385154689 82.2745385154689 0 0 0 48.81089204584418,37.904770137501174 L 46.73766684066404,42.454686317894584 A 87.2745385154689 87.2745385154689 0 0 1 21.213203435596427,24.74873734152916 Z M 116.78305204840723,43.47585852797836 L 114.84334367644057,38.867438903885684 A 82.2745385154689 82.2745385154689 0 0 0 139.3818522645601,22.884407769294555 L 137.32327259319064,20.702149824727865 L 149.09894778744584,17.154830594745462 L 144.87139805487865,28.703762288139057 L 142.81281838350918,26.521504343572367 A 87.2745385154689 87.2745385154689 0 0 1 116.78305204840723,43.47585852797836"/><text text-anchor="middle" pointer-events="none" font-size="8px" fill="#000000" x="81.68984831898774" y="50.80185032983864" transform="rotate(180 81.68984831898774 47.80185032983864)" font-family="sans-serif">LAST_CHILD_OF</text></g><g class="relationship" transform="translate(-159.4638654239458 51.95316271181085) rotate(360.22909995858737)"><path class="outline" fill="#68BDF6" stroke="none" d="M 30.745541741638416,-10.826433531554594 L 32.03963696715102,-5.996804400109253 A 456.05613161463265 456.05613161463265 0 0 1 135.12737945879772,-21.291492756576815 L 134.9634931631231,-26.28880616300728 A 461.05613161463265 461.05613161463265 0 0 0 30.745541741638416,-10.826433531554594 Z M 162.44427202704617,-26.370605619411037 L 162.3101384398956,-21.372405125153307 A 456.05613161463265 456.05613161463265 0 0 1 265.4871059161733,-6.69168558063963 L 264.7279134717514,-3.7893370777315702 L 276.7617107971878,-6.3266037035159535 L 267.51161910129844,-14.431281588394459 L 266.75242665687654,-11.528933085486399 A 461.05613161463265 461.05613161463265 0 0 0 162.44427202704617,-26.370605619411037"/><text text-anchor="middle" pointer-events="none" font-size="8px" fill="#000000" x="148.71071449289357" y="-21.03450881824" font-family="sans-serif">NEXT</text></g><g class="relationship" transform="translate(225.8729261296804 174.4856551315427) rotate(235.17921248178857)"><path class="outline" fill="#FF756E" stroke="none" d="M 23.501098044470403,-8.88529069328569 L 24.79519326998301,-4.055661561840347 A 180.94115671868326 180.94115671868326 0 0 1 40.14297225599459,-7.461035059865111 L 39.27298670415544,-12.38476587496774 A 185.94115671868326 185.94115671868326 0 0 0 23.501098044470403,-8.88529069328569 Z M 97.37931917979571,-13.429025610418535 L 96.68681223398005,-8.477214413493016 A 180.94115671868326 180.94115671868326 0 0 1 112.14704052411479,-5.6255079627120175 L 111.47520614567998,-2.701702468505344 L 123.42752265156824,-5.598619820289988 L 113.93859886660758,-13.422322613929813 L 113.26676448817277,-10.49851711972314 A 185.94115671868326 185.94115671868326 0 0 0 97.37931917979571,-13.429025610418535"/><text text-anchor="middle" pointer-events="none" font-size="8px" fill="#000000" x="68.3300245513261" y="-9.691465603523312" transform="rotate(180 68.3300245513261 -12.691465603523312)" font-family="sans-serif">IS_CHILD_OF</text></g><g class="relationship" transform="translate(68.14150323409666 172.88691508438754) rotate(301.4893148805367)"><path class="outline" fill="#FF756E" stroke="none" d="M 25 2.5 L 35.91838696779354 2.5 L 35.91838696779354 -2.5 L 25 -2.5 Z M 93.48869946779354 2.5 L 104.40708643558708 2.5 L 104.40708643558708 5.5 L 115.40708643558708 0 L 104.40708643558708 -5.5 L 104.40708643558708 -2.5 L 93.48869946779354 -2.5 Z"/><text text-anchor="middle" pointer-events="none" font-size="8px" fill="#000000" x="64.70354321779354" y="3" font-family="sans-serif">IS_CHILD_OF</text></g><g class="relationship" transform="translate(-159.4638654239458 51.95316271181085) rotate(360.22909995858737)"><path class="outline" fill="#6DCE9E" stroke="none" d="M 30.745541741638416,10.826433531554594 L 32.03963696715102,5.996804400109253 A 456.05613161463265 456.05613161463265 0 0 0 117.24349238306645,20.353187162818642 L 116.88353496986937,25.34021339702724 A 461.05613161463265 461.05613161463265 0 0 1 30.745541741638416,10.826433531554594 Z M 180.5295569637704,25.529662539904052 L 180.19929449234073,20.540581792916214 A 456.05613161463265 456.05613161463265 0 0 0 265.4871059161733,6.69168558063963 L 264.7279134717514,3.7893370777315702 L 276.7617107971878,6.3266037035159535 L 267.51161910129844,14.431281588394459 L 266.75242665687654,11.528933085486399 A 461.05613161463265 461.05613161463265 0 0 1 180.5295569637704,25.529662539904052"/><text text-anchor="middle" pointer-events="none" font-size="8px" fill="#000000" x="148.7107144928936" y="27.03450881824" font-family="sans-serif">NEXT_SIBLING</text></g><g class="relationship" transform="translate(141.48167706396862 53.15651450068205) rotate(481.4893148805367)"><path class="outline" fill="#68BDF6" stroke="none" d="M 20.40063509461097,14.665063509461095 L 22.90063509461097,10.334936490538901 A 89.82685517656313 89.82685517656313 0 0 0 51.31673175443599,20.841533311066385 L 50.398446744010684,25.75648525789437 A 94.82685517656313 94.82685517656313 0 0 1 20.40063509461097,14.665063509461095 Z M 78.3533383923948,26.78195349284364 L 77.79762684370542,21.812930985885842 A 89.82685517656313 89.82685517656313 0 0 0 106.90714094583628,13.416543973159627 L 105.60152655514757,10.715549515033777 L 117.89879928453831,10.880119922405905 L 110.38877932100617,20.61919586149523 L 109.08316493031747,17.918201403369377 A 94.82685517656313 94.82685517656313 0 0 1 78.3533383923948,26.78195349284364"/><text text-anchor="middle" pointer-events="none" font-size="8px" fill="#000000" x="64.42951656438079" y="27.807396422867015" transform="rotate(180 64.42951656438079 24.807396422867015)" font-family="sans-serif">NEXT</text></g><g class="relationship" transform="translate(-45.288462265302535 304.2957092513325) rotate(310.80023414008184)"><path class="outline" fill="#FF756E" stroke="none" d="M 32.5 2.5 L 56.2614857610902 2.5 L 56.2614857610902 -2.5 L 32.5 -2.5 Z M 113.8317982610902 2.5 L 137.5932840221804 2.5 L 137.5932840221804 5.5 L 148.5932840221804 0 L 137.5932840221804 -5.5 L 137.5932840221804 -2.5 L 113.8317982610902 -2.5 Z"/><text text-anchor="middle" pointer-events="none" font-size="8px" fill="#000000" x="85.0466420110902" y="3" font-family="sans-serif">IS_CHILD_OF</text></g><g class="relationship" transform="translate(68.14150323409666 172.88691508438754) rotate(360.5807208155996)"><path class="outline" fill="#6DCE9E" stroke="none" d="M 25 2.5 L 41.693981236018445 2.5 L 41.693981236018445 -2.5 L 25 -2.5 Z M 105.04554373601844 2.5 L 121.73952497203689 2.5 L 121.73952497203689 5.5 L 132.7395249720369 0 L 121.73952497203689 -5.5 L 121.73952497203689 -2.5 L 105.04554373601844 -2.5 Z"/><text text-anchor="middle" pointer-events="none" font-size="8px" fill="#000000" x="73.36976248601844" y="3" font-family="sans-serif">NEXT_SIBLING</text></g><g class="relationship" transform="translate(332.2265550136751 303.60957376808375) rotate(230.52323479061943)"><path class="outline" fill="#FF756E" stroke="none" d="M 30.745541741638416,10.826433531554594 L 32.03963696715102,5.996804400109253 A 196.60834641246566 196.60834641246566 0 0 0 53.56853040415521,10.491950931217389 L 52.82194228680572,15.435897349113986 A 201.60834641246566 201.60834641246566 0 0 1 30.745541741638416,10.826433531554594 Z M 110.91144005863447,15.744228210526757 L 110.21737606992022,10.7926350144362 A 196.60834641246566 196.60834641246566 0 0 0 131.79277432151673,6.526279984317405 L 131.04712205748433,3.6204233634320273 L 143.06895881812343,6.213768866936498 L 133.7811803589364,14.275230973345078 L 133.035528094904,11.369374352459701 A 201.60834641246566 201.60834641246566 0 0 1 110.91144005863447,15.744228210526757"/><text text-anchor="middle" pointer-events="none" font-size="8px" fill="#000000" x="81.86879731071083" y="18.193266631814794" transform="rotate(180 81.86879731071083 15.193266631814794)" font-family="sans-serif">IS_CHILD_OF</text></g><g class="relationship" transform="translate(332.2265550136751 303.60957376808375) rotate(230.52323479061943)"><path class="outline" fill="#DE9BF9" stroke="none" d="M 30.745541741638416,-10.826433531554594 L 32.03963696715102,-5.996804400109253 A 196.60834641246566 196.60834641246566 0 0 1 46.00115173744438,-9.197604061843379 L 45.062115567792084,-14.108633594648552 A 201.60834641246566 201.60834641246566 0 0 0 30.745541741638416,-10.826433531554594 Z M 118.68491900976142,-14.499413051789872 L 117.79806838573538,-9.578691969401149 A 196.60834641246566 196.60834641246566 0 0 1 131.79277432151673,-6.526279984317405 L 131.04712205748433,-3.6204233634320273 L 143.06895881812343,-6.213768866936498 L 133.7811803589364,-14.275230973345078 L 133.035528094904,-11.369374352459701 A 201.60834641246566 201.60834641246566 0 0 0 118.68491900976142,-14.499413051789872"/><text text-anchor="middle" pointer-events="none" font-size="8px" fill="#000000" x="81.8687973107108" y="-12.193266631814794" transform="rotate(180 81.8687973107108 -15.193266631814794)" font-family="sans-serif">FIRST_CHILD_OF</text></g><g class="relationship" transform="translate(68.14150323409666 172.88691508438754) rotate(490.80023414008184)"><path class="outline" fill="#68BDF6" stroke="none" d="M 20.40063509461097,14.665063509461095 L 22.90063509461097,10.334936490538901 A 120.49190422826848 120.49190422826848 0 0 0 63.96508169812015,24.941209314005405 L 63.16911512951625,29.87744646609454 A 125.49190422826848 125.49190422826848 0 0 1 20.40063509461097,14.665063509461095 Z M 90.97026371141074,31.233673336463028 L 90.65854334383889,26.24339975554176 A 120.49190422826848 120.49190422826848 0 0 0 132.94970008080222,15.703473641209065 L 131.70970524817744,12.971731922989006 L 143.99941540812975,13.433277353434974 L 136.2563529678016,22.98811822312922 L 135.01635813517683,20.256376504909163 A 125.49190422826848 125.49190422826848 0 0 1 90.97026371141074,31.233673336463028"/><text text-anchor="middle" pointer-events="none" font-size="8px" fill="#000000" x="77.15378450826181" y="31.831703751567346" transform="rotate(180 77.15378450826181 28.831703751567346)" font-family="sans-serif">NEXT</text></g><g class="relationship" transform="translate(225.8729261296804 174.4856551315427) rotate(410.5232347906194)"><path class="outline" fill="#68BDF6" stroke="none" d="M 15.90990257669732,19.445436482630054 L 19.445436482630058,15.909902576697316 A 85.43132369979409 85.43132369979409 0 0 0 60.55781807145102,38.72432223668507 L 59.42844971512922,43.59510524516932 A 90.43132369979409 90.43132369979409 0 0 1 15.90990257669732,19.445436482630054 Z M 87.35515706069427,45.62055752976265 L 86.94044167462424,40.63778609726077 A 85.43132369979409 85.43132369979409 0 0 0 130.91459111870168,23.994473776787963 L 129.1215689304363,21.58925623311587 L 141.22790726905384,19.42440703954165 L 135.6959836207427,30.408387226580217 L 133.90296143247733,28.003169682908123 A 90.43132369979409 90.43132369979409 0 0 1 87.35515706069427,45.62055752976265"/><text text-anchor="middle" pointer-events="none" font-size="8px" fill="#000000" x="73.4937794489488" y="46.20179697505456" font-family="sans-serif">NEXT</text></g><g class="relationship" transform="translate(-45.288462265302535 304.2957092513325) rotate(359.87201267203864)"><path class="outline" fill="#6DCE9E" stroke="none" d="M 26.89582562299426,-18.415063509461092 L 29.39582562299426,-14.0849364905389 A 121.8174771921088 121.8174771921088 0 0 1 56.28321048441408,-25.55818164262027 L 54.88680355993877,-30.35922816408592 A 126.8174771921088 126.8174771921088 0 0 0 26.89582562299426,-18.415063509461092 Z M 118.78984803200345,-32.16485077539093 L 117.66676608605825,-27.292614436429943 A 121.8174771921088 121.8174771921088 0 0 1 145.15910334006455,-17.355904149929543 L 143.80820015969803,-14.677273791467297 L 156.10650063806492,-14.634784453970784 L 148.76151182104198,-24.4989184391622 L 147.41060864067546,-21.820288080699953 A 126.8174771921088 126.8174771921088 0 0 0 118.78984803200345,-32.16485077539093"/><text text-anchor="middle" pointer-events="none" font-size="8px" fill="#000000" x="86.79329340774923" y="-29.855787071927523" font-family="sans-serif">NEXT_SIBLING</text></g><g class="relationship" transform="translate(-45.288462265302535 304.2957092513325) rotate(359.87201267203864)"><path class="outline" fill="#FFD86E" stroke="none" d="M 32.5 2.5 L 58.50585746903627 2.5 L 58.50585746903627 -2.5 L 32.5 -2.5 Z M 115.61913871903627 2.5 L 141.62499618807254 2.5 L 141.62499618807254 5.5 L 152.62499618807254 0 L 141.62499618807254 -5.5 L 141.62499618807254 -2.5 L 115.61913871903627 -2.5 Z"/><text text-anchor="middle" pointer-events="none" font-size="8px" fill="#000000" x="87.06249809403627" y="3" font-family="sans-serif">NEXT_WORD</text></g><g class="relationship" transform="translate(-45.288462265302535 304.2957092513325) rotate(359.87201267203864)"><path class="outline" fill="#68BDF6" stroke="none" d="M 26.89582562299426,18.415063509461092 L 29.39582562299426,14.0849364905389 A 121.8174771921088 121.8174771921088 0 0 0 73.52386779733699,29.24405431412528 L 72.83510388560173,34.196387529276606 A 126.8174771921088 126.8174771921088 0 0 1 26.89582562299426,18.415063509461092 Z M 100.65351410725278,34.98241503268811 L 100.24548872631387,29.999091313671883 A 121.8174771921088 121.8174771921088 0 0 0 145.15910334006455,17.355904149929543 L 143.80820015969803,14.677273791467297 L 156.10650063806492,14.634784453970784 L 148.76151182104198,24.4989184391622 L 147.41060864067546,21.820288080699953 A 126.8174771921088 126.8174771921088 0 0 1 100.65351410725278,34.98241503268811"/><text text-anchor="middle" pointer-events="none" font-size="8px" fill="#000000" x="86.79329340774927" y="35.85578707192752" font-family="sans-serif">NEXT</text></g><g class="relationship" transform="translate(139.83607204871623 303.88217732808016) rotate(241.30782212145374)"><path class="outline" fill="#FF756E" stroke="none" d="M 30.745541741638416,10.826433531554594 L 32.03963696715102,5.996804400109253 A 161.59291198567627 161.59291198567627 0 0 0 44.718188090393454,8.852956260282753 L 43.816391975264054,13.770960303259699 A 166.59291198567627 166.59291198567627 0 0 1 30.745541741638416,10.826433531554594 Z M 101.96348312130593,14.115880540997011 L 101.12009420866413,9.187524309753883 A 161.59291198567627 161.59291198567627 0 0 0 113.83163650209382,6.481982856478566 L 113.08961120157164,3.5751979567336614 L 125.10820221826026,6.183544171018048 L 115.81037063681958,14.23340925579831 L 115.06834533629741,11.326624356053404 A 166.59291198567627 166.59291198567627 0 0 1 101.96348312130593,14.115880540997011"/><text text-anchor="middle" pointer-events="none" font-size="8px" fill="#000000" x="72.88960155576723" y="17.00006246691825" transform="rotate(180 72.88960155576723 14.000062466918251)" font-family="sans-serif">IS_CHILD_OF</text></g><g class="relationship" transform="translate(139.83607204871623 303.88217732808016) rotate(241.30782212145374)"><path class="outline" fill="#FB95AF" stroke="none" d="M 30.745541741638416,-10.826433531554594 L 32.03963696715102,-5.996804400109253 A 161.59291198567627 161.59291198567627 0 0 1 38.71134791576232,-7.633318343979994 L 37.623688444969034,-12.513584410045809 A 166.59291198567627 166.59291198567627 0 0 0 30.745541741638416,-10.826433531554594 Z M 108.17066748596203,-12.932059011317847 L 107.14098060029511,-8.039233149151329 A 161.59291198567627 161.59291198567627 0 0 1 113.83163650209382,-6.481982856478566 L 113.08961120157164,-3.5751979567336614 L 125.10820221826026,-6.183544171018048 L 115.81037063681958,-14.23340925579831 L 115.06834533629741,-11.326624356053404 A 166.59291198567627 166.59291198567627 0 0 0 108.17066748596203,-12.932059011317847"/><text text-anchor="middle" pointer-events="none" font-size="8px" fill="#000000" x="72.8896015557672" y="-11.000062466918251" transform="rotate(180 72.8896015557672 -14.000062466918251)" font-family="sans-serif">LAST_CHILD_OF</text></g><g class="relationship" transform="translate(139.83607204871623 303.88217732808016) rotate(303.6202729682796)"><path class="outline" fill="#68BDF6" stroke="none" d="M 32.5 2.5 L 62.27662600521468 2.5 L 62.27662600521468 -2.5 L 32.5 -2.5 Z M 89.61256350521468 2.5 L 119.38918951042936 2.5 L 119.38918951042936 5.5 L 130.38918951042936 0 L 119.38918951042936 -5.5 L 119.38918951042936 -2.5 L 89.61256350521468 -2.5 Z"/><text text-anchor="middle" pointer-events="none" font-size="8px" fill="#000000" x="75.94459475521468" y="3" font-family="sans-serif">NEXT</text></g><g class="relationship" transform="translate(139.83607204871623 303.88217732808016) rotate(359.9188160309459)"><path class="outline" fill="#FFD86E" stroke="none" d="M 32.5 2.5 L 62.13869742236986 2.5 L 62.13869742236986 -2.5 L 32.5 -2.5 Z M 119.25197867236986 2.5 L 148.89067609473972 2.5 L 148.89067609473972 5.5 L 159.89067609473972 0 L 148.89067609473972 -5.5 L 148.89067609473972 -2.5 L 119.25197867236986 -2.5 Z"/><text text-anchor="middle" pointer-events="none" font-size="8px" fill="#000000" x="90.69533804736986" y="3" font-family="sans-serif">NEXT_WORD</text></g><g class="relationship" transform="translate(332.2265550136751 303.60957376808375) rotate(291.5606743009143)"><path class="outline" fill="#68BDF6" stroke="none" d="M 30.745541741638416,-10.826433531554594 L 32.03963696715102,-5.996804400109253 A 404.88568777162476 404.88568777162476 0 0 1 119.24125456021979,-19.410653884978785 L 119.02402646321698,-24.405932851550347 A 409.88568777162476 409.88568777162476 0 0 0 30.745541741638416,-10.826433531554594 Z M 146.52120664358807,-24.678407457331218 L 146.40300975503135,-19.67980470300722 A 404.88568777162476 404.88568777162476 0 0 1 233.8533185338991,-7.996613215608965 L 233.13443744662732,-5.084018155810416 L 245.131901325887,-7.787878445444486 L 235.77033476662393,-15.763533375071763 L 235.05145367935214,-12.850938315273213 A 409.88568777162476 409.88568777162476 0 0 0 146.52120664358807,-24.678407457331218"/><text text-anchor="middle" pointer-events="none" font-size="8px" fill="#000000" x="132.7951026710634" y="-19.272950139949955" font-family="sans-serif">NEXT</text></g><g class="relationship" transform="translate(332.2265550136751 303.60957376808375) rotate(291.5606743009143)"><path class="outline" fill="#FFD86E" stroke="none" d="M 30.745541741638416,10.826433531554594 L 32.03963696715102,5.996804400109253 A 404.88568777162476 404.88568777162476 0 0 0 104.4729585898374,18.497806710732107 L 104.07335437512515,23.481812777299865 A 409.88568777162476 409.88568777162476 0 0 1 30.745541741638416,10.826433531554594 Z M 161.48725570231977,24.050737664428368 L 161.18649511972316,19.059791554525304 A 404.88568777162476 404.88568777162476 0 0 0 233.8533185338991,7.996613215608965 L 233.13443744662732,5.084018155810416 L 245.131901325887,7.787878445444486 L 235.77033476662393,15.763533375071763 L 235.05145367935214,12.850938315273213 A 409.88568777162476 409.88568777162476 0 0 1 161.48725570231977,24.050737664428368"/><text text-anchor="middle" pointer-events="none" font-size="8px" fill="#000000" x="132.79510267106352" y="25.272950139949955" font-family="sans-serif">NEXT_WORD</text></g><g class="relationship" transform="translate(141.48167706396862 53.15651450068205) rotate(358.65378261413525)"><path class="outline" fill="#6DCE9E" stroke="none" d="M 25 2.5 L 105.32600202158164 2.5 L 105.32600202158164 -2.5 L 25 -2.5 Z M 168.67756452158164 2.5 L 249.0035665431633 2.5 L 249.0035665431633 5.5 L 260.0035665431633 0 L 249.0035665431633 -5.5 L 249.0035665431633 -2.5 L 168.67756452158164 -2.5 Z"/><text text-anchor="middle" pointer-events="none" font-size="8px" fill="#000000" x="137.00178327158164" y="3" font-family="sans-serif">NEXT_SIBLING</text></g></g><g class="layer nodes"><g class="node" transform="translate(141.48167706396862,53.15651450068205)"><circle class="outline" cx="0" cy="0" r="25" fill="#68BDF6" stroke="#5CA8DB" stroke-width="2px"/><text text-anchor="middle" pointer-events="none" font-family="sans-serif" dy="1.5625" font-size="25" fill="#FFFFFF"/><text text-anchor="middle" pointer-events="none" y="5" font-size="10px" fill="#FFFFFF" font-family="sans-serif"> subst</text></g><g class="node" transform="translate(68.14150323409666,172.88691508438754)"><circle class="outline" cx="0" cy="0" r="25" fill="#68BDF6" stroke="#5CA8DB" stroke-width="2px"/><text text-anchor="middle" pointer-events="none" font-family="sans-serif" dy="1.5625" font-size="25" fill="#FFFFFF"/><text text-anchor="middle" pointer-events="none" y="5" font-size="10px" fill="#FFFFFF" font-family="sans-serif"> del</text></g><g class="node" transform="translate(225.8729261296804,174.4856551315427)"><circle class="outline" cx="0" cy="0" r="25" fill="#68BDF6" stroke="#5CA8DB" stroke-width="2px"/><text text-anchor="middle" pointer-events="none" font-family="sans-serif" dy="1.5625" font-size="25" fill="#FFFFFF"/><text text-anchor="middle" pointer-events="none" y="5" font-size="10px" fill="#FFFFFF" font-family="sans-serif"> add</text></g><g class="node" transform="translate(-159.4638654239458,51.95316271181085)"><circle class="outline" cx="0" cy="0" r="32.5" fill="#FFD86E" stroke="#EDBA39" stroke-width="2px"/><text text-anchor="middle" pointer-events="none" font-family="sans-serif" dy="2.03125" font-size="32.5" fill="#604A0E"/><text text-anchor="middle" pointer-events="none" y="5" font-size="10px" fill="#604A0E" font-family="sans-serif"> u.</text></g><g class="node" transform="translate(-45.288462265302535,304.2957092513325)"><circle class="outline" cx="0" cy="0" r="32.5" fill="#FFD86E" stroke="#EDBA39" stroke-width="2px"/><text text-anchor="middle" pointer-events="none" font-family="sans-serif" dy="2.03125" font-size="32.5" fill="#604A0E"/><text text-anchor="middle" pointer-events="none" y="5" font-size="10px" fill="#604A0E" font-family="sans-serif"> ſeine</text></g><g class="node" transform="translate(332.2265550136751,303.60957376808375)"><circle class="outline" cx="0" cy="0" r="32.5" fill="#FFD86E" stroke="#EDBA39" stroke-width="2px"/><text text-anchor="middle" pointer-events="none" font-family="sans-serif" dy="2.03125" font-size="32.5" fill="#604A0E"/><text text-anchor="middle" pointer-events="none" y="5" font-size="10px" fill="#604A0E" font-family="sans-serif"> dieſe</text></g><g class="node" transform="translate(139.83607204871623,303.88217732808016)"><circle class="outline" cx="0" cy="0" r="32.5" fill="#FFD86E" stroke="#EDBA39" stroke-width="2px"/><text text-anchor="middle" pointer-events="none" font-family="sans-serif" dy="2.03125" font-size="32.5" fill="#604A0E"/><text text-anchor="middle" pointer-events="none" y="5" font-size="10px" fill="#604A0E" font-family="sans-serif"> Fehler</text></g><g class="node" transform="translate(433.9045077768982,46.28450472856355)"><circle class="outline" cx="0" cy="0" r="32.5" fill="#FFD86E" stroke="#EDBA39" stroke-width="2px"/><text text-anchor="middle" pointer-events="none" font-family="sans-serif" dy="2.03125" font-size="32.5" fill="#604A0E"/><text text-anchor="middle" pointer-events="none" y="5" font-size="10px" fill="#604A0E" font-family="sans-serif"> zum</text></g></g></svg>