<svg xmlns="http://www.w3.org/2000/svg" width="354.0948486328125" height="148.0543975830078" viewBox="-135.8733673095703 5.804302215576172 354.0948486328125 148.0543975830078"><title>Neo4j Graph Visualization</title><desc>Created using Neo4j (http://www.neo4j.com/)</desc><g class="layer relationships"><g class="relationship" transform="translate(-106.87336415398468 124.85870019189389) rotate(359.4685028151897)"><path class="outline" fill="#F16667" stroke="none" d="M 25 6.5 L 252.10760820493715 6.5 L 252.10760820493715 9.5 L 271.10760820493715 0 L 252.10760820493715 -9.5 L 252.10760820493715 -6.5 L 25 -6.5 Z"/><text text-anchor="middle" pointer-events="none" font-size="8px" fill="#FFFFFF" x="138.55380410246858" y="3" font-family="sans-serif">TRANSITIVE_RELATION</text></g><g class="relationship" transform="translate(-106.87336415398468 124.85870019189389) rotate(326.1194198775031)"><path class="outline" fill="#FFC454" stroke="none" d="M 25 6.5 L 117.5430532150078 6.5 L 117.5430532150078 9.5 L 136.5430532150078 0 L 117.5430532150078 -9.5 L 117.5430532150078 -6.5 L 25 -6.5 Z"/><text text-anchor="middle" pointer-events="none" font-size="8px" fill="#604A0E" x="71.2715266075039" y="3" font-family="sans-serif">DIRECT_RELATION</text></g><g class="relationship" transform="translate(27.239885398681288 34.804303650408) rotate(388.3245408275319)"><path class="outline" fill="#FFC454" stroke="none" d="M 25 6.5 L 140.01268185866522 6.5 L 140.01268185866522 9.5 L 159.01268185866522 0 L 140.01268185866522 -9.5 L 140.01268185866522 -6.5 L 25 -6.5 Z"/><text text-anchor="middle" pointer-events="none" font-size="8px" fill="#604A0E" x="82.50634092933261" y="3" font-family="sans-serif">DIRECT_RELATION</text></g></g><g class="layer nodes"><g class="node" transform="translate(-106.87336415398468,124.85870019189389)"><circle class="outline" cx="0" cy="0" r="25" fill="#4C8EDA" stroke="#2870c2" stroke-width="2px"/><text text-anchor="middle" pointer-events="none" font-family="sans-serif" dy="1.5625" font-size="25" fill="#FFFFFF"/><text text-anchor="middle" pointer-events="none" y="5" font-size="10px" fill="#FFFFFF" font-family="sans-serif"> Person A</text></g><g class="node" transform="translate(27.239885398681288,34.804303650408)"><circle class="outline" cx="0" cy="0" r="25" fill="#4C8EDA" stroke="#2870c2" stroke-width="2px"/><text text-anchor="middle" pointer-events="none" font-family="sans-serif" dy="1.5625" font-size="25" fill="#FFFFFF"/><text text-anchor="middle" pointer-events="none" y="5" font-size="10px" fill="#FFFFFF" font-family="sans-serif"> Person B</text></g><g class="node" transform="translate(189.22150394239512,122.11193412322017)"><circle class="outline" cx="0" cy="0" r="25" fill="#4C8EDA" stroke="#2870c2" stroke-width="2px"/><text text-anchor="middle" pointer-events="none" font-family="sans-serif" dy="1.5625" font-size="25" fill="#FFFFFF"/><text text-anchor="middle" pointer-events="none" y="5" font-size="10px" fill="#FFFFFF" font-family="sans-serif"> Person C</text></g></g></svg>