<svg xmlns="http://www.w3.org/2000/svg" width="486.3147277832031" height="253.54832458496094" viewBox="-149.27774047851562 -93.74513244628906 486.3147277832031 253.54832458496094"><title>Neo4j Graph Visualization</title><desc>Created using Neo4j (http://www.neo4j.com/)</desc><g class="layer relationships"><g class="relationship" transform="translate(-21.3752045498965 -47.65701873927517) rotate(401.26683876738326)"><path class="outline" fill="#6DCE9E" stroke="none" d="M 40 1.5 L 106.03004329470136 1.5 L 106.03004329470136 -1.5 L 40 -1.5 Z M 131.03004329470136 1.5 L 197.06008658940272 1.5 L 197.06008658940272 4.5 L 206.06008658940272 0 L 197.06008658940272 -4.5 L 197.06008658940272 -1.5 L 131.03004329470136 -1.5 Z"/><text text-anchor="middle" pointer-events="none" font-size="8px" fill="#000000" x="118.53004329470136" y="3" font-family="sans-serif">KIND</text></g><g class="relationship" transform="translate(189.39369351089186 -49.74513470346909) rotate(458.92633552254995)"><path class="outline" fill="#6DCE9E" stroke="none" d="M 40 1.5 L 66.19822616180171 1.5 L 66.19822616180171 -1.5 L 40 -1.5 Z M 91.19822616180171 1.5 L 117.39645232360343 1.5 L 117.39645232360343 4.5 L 126.39645232360343 0 L 117.39645232360343 -4.5 L 117.39645232360343 -1.5 L 91.19822616180171 -1.5 Z"/><text text-anchor="middle" pointer-events="none" font-size="8px" fill="#000000" x="78.69822616180171" y="3" transform="rotate(180 78.69822616180171 0)" font-family="sans-serif">KIND</text></g><g class="relationship" transform="translate(-21.3752045498965 -47.65701873927517) rotate(436.29551544646273)"><path class="outline" fill="#6DCE9E" stroke="none" d="M 40 1.5 L 66.16087891364572 1.5 L 66.16087891364572 -1.5 L 40 -1.5 Z M 91.16087891364572 1.5 L 117.32175782729144 1.5 L 117.32175782729144 4.5 L 126.32175782729144 0 L 117.32175782729144 -4.5 L 117.32175782729144 -1.5 L 91.16087891364572 -1.5 Z"/><text text-anchor="middle" pointer-events="none" font-size="8px" fill="#000000" x="78.66087891364572" y="3" font-family="sans-serif">KIND</text></g><g class="relationship" transform="translate(189.39369351089186 -49.74513470346909) rotate(496.31487191446723)"><path class="outline" fill="#6DCE9E" stroke="none" d="M 40 1.5 L 101.48562197832231 1.5 L 101.48562197832231 -1.5 L 40 -1.5 Z M 126.48562197832231 1.5 L 187.97124395664463 1.5 L 187.97124395664463 4.5 L 196.97124395664463 0 L 187.97124395664463 -4.5 L 187.97124395664463 -1.5 L 126.48562197832231 -1.5 Z"/><text text-anchor="middle" pointer-events="none" font-size="8px" fill="#000000" x="113.98562197832231" y="3" transform="rotate(180 113.98562197832231 0)" font-family="sans-serif">KIND</text></g><g class="relationship" transform="translate(-21.3752045498965 -47.65701873927517) rotate(359.43238153764196)"><path class="outline" fill="#DE9BF9" stroke="none" d="M 38.24880448390895,11.801650543534432 L 39.025261619216515,8.903873064667227 A 249.07080093447695 249.07080093447695 0 0 0 71.61040112673179,15.34218994628307 L 71.22642443536138,18.31751545796817 A 252.07080093447695 252.07080093447695 0 0 1 38.24880448390895,11.801650543534432 Z M 130.43926590086897,18.945970746676267 L 130.11852580735996,15.963165725824922 A 249.07080093447695 249.07080093447695 0 0 0 162.83297566519357,10.217905810762947 L 162.1181976145845,7.304301112392304 L 171.93117878561003,9.530374008121036 L 164.26253176641174,16.04511520750423 L 163.54775371580266,13.13151050913359 A 252.07080093447695 252.07080093447695 0 0 1 130.43926590086897,18.945970746676267"/><text text-anchor="middle" pointer-events="none" font-size="8px" fill="#000000" x="100.83024592329808" y="21.8766430563046" font-family="sans-serif">EHEPARTNER</text></g><g class="relationship" transform="translate(189.39369351089186 -49.74513470346909) rotate(539.432381537642)"><path class="outline" fill="#DE9BF9" stroke="none" d="M 38.24880448390895,11.801650543534432 L 39.025261619216515,8.903873064667227 A 249.07080093447695 249.07080093447695 0 0 0 71.61040112673179,15.34218994628307 L 71.22642443536138,18.31751545796817 A 252.07080093447695 252.07080093447695 0 0 1 38.24880448390895,11.801650543534432 Z M 130.43926590086897,18.945970746676267 L 130.11852580735996,15.963165725824922 A 249.07080093447695 249.07080093447695 0 0 0 162.83297566519357,10.217905810762947 L 162.1181976145845,7.304301112392304 L 171.93117878561003,9.530374008121036 L 164.26253176641174,16.04511520750423 L 163.54775371580266,13.13151050913359 A 252.07080093447695 252.07080093447695 0 0 1 130.43926590086897,18.945970746676267"/><text text-anchor="middle" pointer-events="none" font-size="8px" fill="#000000" x="100.83024592329808" y="21.8766430563046" transform="rotate(180 100.83024592329808 18.8766430563046)" font-family="sans-serif">EHEPARTNER</text></g><g class="relationship" transform="translate(-21.3752045498965 -47.65701873927517) rotate(387.4695370101198)"><path class="outline" fill="#6DCE9E" stroke="none" d="M 40 1.5 L 160.18229261670302 1.5 L 160.18229261670302 -1.5 L 40 -1.5 Z M 185.18229261670302 1.5 L 305.36458523340605 1.5 L 305.36458523340605 4.5 L 314.36458523340605 0 L 305.36458523340605 -4.5 L 305.36458523340605 -1.5 L 185.18229261670302 -1.5 Z"/><text text-anchor="middle" pointer-events="none" font-size="8px" fill="#000000" x="172.68229261670302" y="3" font-family="sans-serif">KIND</text></g><g class="relationship" transform="translate(-21.3752045498965 -47.65701873927517) rotate(477.1928885744305)"><path class="outline" fill="#6DCE9E" stroke="none" d="M 40 1.5 L 74.79959069350532 1.5 L 74.79959069350532 -1.5 L 40 -1.5 Z M 99.79959069350532 1.5 L 134.59918138701065 1.5 L 134.59918138701065 4.5 L 143.59918138701065 0 L 134.59918138701065 -4.5 L 134.59918138701065 -1.5 L 99.79959069350532 -1.5 Z"/><text text-anchor="middle" pointer-events="none" font-size="8px" fill="#000000" x="87.29959069350532" y="3" transform="rotate(180 87.29959069350532 0)" font-family="sans-serif">KIND</text></g><g class="relationship" transform="translate(189.39369351089186 -49.74513470346909) rotate(417.9509405923551)"><path class="outline" fill="#6DCE9E" stroke="none" d="M 40 1.5 L 80.65779370896716 1.5 L 80.65779370896716 -1.5 L 40 -1.5 Z M 105.65779370896716 1.5 L 146.31558741793432 1.5 L 146.31558741793432 4.5 L 155.31558741793432 0 L 146.31558741793432 -4.5 L 146.31558741793432 -1.5 L 105.65779370896716 -1.5 Z"/><text text-anchor="middle" pointer-events="none" font-size="8px" fill="#000000" x="93.15779370896716" y="3" font-family="sans-serif">KIND</text></g><g class="relationship" transform="translate(189.39369351089186 -49.74513470346909) rotate(510.6951571023729)"><path class="outline" fill="#6DCE9E" stroke="none" d="M 40 1.5 L 151.95757186220447 1.5 L 151.95757186220447 -1.5 L 40 -1.5 Z M 176.95757186220447 1.5 L 288.91514372440895 1.5 L 288.91514372440895 4.5 L 297.91514372440895 0 L 288.91514372440895 -4.5 L 288.91514372440895 -1.5 L 176.95757186220447 -1.5 Z"/><text text-anchor="middle" pointer-events="none" font-size="8px" fill="#000000" x="164.45757186220447" y="3" transform="rotate(180 164.45757186220447 0)" font-family="sans-serif">KIND</text></g></g><g class="layer nodes"><g class="node" transform="translate(-21.3752045498965,-47.65701873927517)"><circle class="outline" cx="0" cy="0" r="40" fill="#68BDF6" stroke="#5CA8DB" stroke-width="2px"/><text text-anchor="middle" pointer-events="none" font-family="sans-serif" dy="2.5" font-size="40" fill="#FFFFFF"/><text text-anchor="middle" pointer-events="none" y="5" font-size="40" fill="#FFFFFF" dy="2.5" font-family="sans-serif"/><text text-anchor="middle" pointer-events="none" font-family="sans-serif" dy="2.5" font-size="40" fill="#FFFFFF"/><text text-anchor="middle" pointer-events="none" y="-5" font-size="10px" fill="#FFFFFF" font-family="sans-serif"> Willibraht</text><text text-anchor="middle" pointer-events="none" y="5" font-size="10px" fill="#FFFFFF" font-family="sans-serif"> &lt;Mancipium</text><text text-anchor="middle" pointer-events="none" y="15" font-size="10px" fill="#FFFFFF" font-family="sans-serif"> (Saalegau)&gt;</text></g><g class="node" transform="translate(163.57487494937178,114.63603196098957)"><circle class="outline" cx="0" cy="0" r="40" fill="#68BDF6" stroke="#5CA8DB" stroke-width="2px"/><text text-anchor="middle" pointer-events="none" font-family="sans-serif" dy="2.5" font-size="40" fill="#FFFFFF"/><text text-anchor="middle" pointer-events="none" y="5" font-size="40" fill="#FFFFFF" dy="2.5" font-family="sans-serif"/><text text-anchor="middle" pointer-events="none" font-family="sans-serif" dy="2.5" font-size="40" fill="#FFFFFF"/><text text-anchor="middle" pointer-events="none" y="-5" font-size="10px" fill="#FFFFFF" font-family="sans-serif"> Regindeo</text><text text-anchor="middle" pointer-events="none" y="5" font-size="10px" fill="#FFFFFF" font-family="sans-serif"> &lt;Mancipium</text><text text-anchor="middle" pointer-events="none" y="15" font-size="10px" fill="#FFFFFF" font-family="sans-serif"> (Saalegau)&gt;</text></g><g class="node" transform="translate(189.39369351089186,-49.74513470346909)"><circle class="outline" cx="0" cy="0" r="40" fill="#68BDF6" stroke="#5CA8DB" stroke-width="2px"/><text text-anchor="middle" pointer-events="none" font-family="sans-serif" dy="2.5" font-size="40" fill="#FFFFFF"/><text text-anchor="middle" pointer-events="none" font-family="sans-serif" dy="2.5" font-size="40" fill="#FFFFFF"/><text text-anchor="middle" pointer-events="none" y="0" font-size="40" fill="#FFFFFF" dy="2.5" font-family="sans-serif"/><text text-anchor="middle" pointer-events="none" y="-5" font-size="10px" fill="#FFFFFF" font-family="sans-serif"> Wingdeo</text><text text-anchor="middle" pointer-events="none" y="5" font-size="10px" fill="#FFFFFF" font-family="sans-serif"> &lt;Mancipium</text><text text-anchor="middle" pointer-events="none" y="15" font-size="10px" fill="#FFFFFF" font-family="sans-serif"> (Saalegau)&gt;</text></g><g class="node" transform="translate(18.02877977024724,113.9296550505459)"><circle class="outline" cx="0" cy="0" r="40" fill="#68BDF6" stroke="#5CA8DB" stroke-width="2px"/><text text-anchor="middle" pointer-events="none" font-family="sans-serif" dy="2.5" font-size="40" fill="#FFFFFF"/><text text-anchor="middle" pointer-events="none" font-family="sans-serif" dy="2.5" font-size="40" fill="#FFFFFF"/><text text-anchor="middle" pointer-events="none" y="0" font-size="40" fill="#FFFFFF" dy="2.5" font-family="sans-serif"/><text text-anchor="middle" pointer-events="none" y="-5" font-size="10px" fill="#FFFFFF" font-family="sans-serif"> Ostarhilt</text><text text-anchor="middle" pointer-events="none" y="5" font-size="10px" fill="#FFFFFF" font-family="sans-serif"> &lt;Mancipium</text><text text-anchor="middle" pointer-events="none" y="15" font-size="10px" fill="#FFFFFF" font-family="sans-serif"> (Saalegau)&gt;</text></g><g class="node" transform="translate(293.0369743219088,115.80319368175333)"><circle class="outline" cx="0" cy="0" r="40" fill="#68BDF6" stroke="#5CA8DB" stroke-width="2px"/><text text-anchor="middle" pointer-events="none" font-family="sans-serif" dy="2.5" font-size="40" fill="#FFFFFF"/><text text-anchor="middle" pointer-events="none" font-family="sans-serif" dy="2.5" font-size="40" fill="#FFFFFF"/><text text-anchor="middle" pointer-events="none" y="0" font-size="40" fill="#FFFFFF" dy="2.5" font-family="sans-serif"/><text text-anchor="middle" pointer-events="none" y="-5" font-size="10px" fill="#FFFFFF" font-family="sans-serif"> Liuto</text><text text-anchor="middle" pointer-events="none" y="5" font-size="10px" fill="#FFFFFF" font-family="sans-serif"> &lt;Mancipium</text><text text-anchor="middle" pointer-events="none" y="15" font-size="10px" fill="#FFFFFF" font-family="sans-serif"> (Saalegau)&gt;</text></g><g class="node" transform="translate(-105.27774117179771,115.64951436455064)"><circle class="outline" cx="0" cy="0" r="40" fill="#68BDF6" stroke="#5CA8DB" stroke-width="2px"/><text text-anchor="middle" pointer-events="none" font-family="sans-serif" dy="2.5" font-size="40" fill="#FFFFFF"/><text text-anchor="middle" pointer-events="none" font-family="sans-serif" dy="2.5" font-size="40" fill="#FFFFFF"/><text text-anchor="middle" pointer-events="none" y="0" font-size="40" fill="#FFFFFF" dy="2.5" font-family="sans-serif"/><text text-anchor="middle" pointer-events="none" y="-5" font-size="10px" fill="#FFFFFF" font-family="sans-serif"> Arndeo</text><text text-anchor="middle" pointer-events="none" y="5" font-size="10px" fill="#FFFFFF" font-family="sans-serif"> &lt;Mancipium</text><text text-anchor="middle" pointer-events="none" y="15" font-size="10px" fill="#FFFFFF" font-family="sans-serif"> (Saalegau)&gt;</text></g></g></svg>