<svg xmlns="http://www.w3.org/2000/svg" width="240.20596313476562" height="293.59100341796875" viewBox="10.282729148864746 -74.48162078857422 240.20596313476562 293.59100341796875"><title>Neo4j Graph Visualization</title><desc>Created using Neo4j (http://www.neo4j.com/)</desc><g class="layer relationships"><g class="relationship" transform="translate(104.42838448900514 -9.341237264306884) rotate(478.957336683005)"><path class="outline" fill="#FB95AF" stroke="none" d="M 7.919364866996621 23.759917089572923 L 18.27212667109745 62.39695014113566 A 18.916697508022974 18.916697508022974 0 1 1 -18.27212667109745 62.39695014113566 L -10.248736272919308 32.45324952617454 L -4.453181315184898 34.006163796789664 L -6.4704761275630185 24.148145657226706 L -13.146513751786513 31.67679239086698 L -7.350958794052103 33.2297066614821 L -15.374349192230246 63.17340727644323 A 15.916697508022974 15.916697508022974 0 1 0 15.374349192230246 63.17340727644323 L 5.021587388129416 24.536374224880486 Z"/><text text-anchor="middle" pointer-events="none" font-size="8px" fill="#000000" x="0" y="95.20964923467838" transform="rotate(180 0 92.20964923467838)" font-family="sans-serif">EHEPART…</text></g><g class="relationship" transform="translate(107.4395677759615 156.1091487116824) rotate(322.55704152553784)"><path class="outline" fill="#FFD86E" stroke="none" d="M 25 1.5 L 49.323058781996 1.5 L 49.323058781996 -1.5 L 25 -1.5 Z M 85.323058781996 1.5 L 109.646117563992 1.5 L 109.646117563992 4.5 L 118.646117563992 0 L 109.646117563992 -4.5 L 109.646117563992 -1.5 L 85.323058781996 -1.5 Z"/><text text-anchor="middle" pointer-events="none" font-size="8px" fill="#000000" x="67.323058781996" y="3" font-family="sans-serif">QUELLE</text></g><g class="relationship" transform="translate(104.42838448900514 -9.341237264306884) rotate(238.957336683005)"><path class="outline" fill="#6DCE9E" stroke="none" d="M 7.919364866996621 23.759917089572923 L 18.27212667109745 62.39695014113566 A 18.916697508022974 18.916697508022974 0 1 1 -18.27212667109745 62.39695014113566 L -10.248736272919308 32.45324952617454 L -4.453181315184898 34.006163796789664 L -6.4704761275630185 24.148145657226706 L -13.146513751786513 31.67679239086698 L -7.350958794052103 33.2297066614821 L -15.374349192230246 63.17340727644323 A 15.916697508022974 15.916697508022974 0 1 0 15.374349192230246 63.17340727644323 L 5.021587388129416 24.536374224880486 Z"/><text text-anchor="middle" pointer-events="none" font-size="8px" fill="#000000" x="0" y="95.20964923467838" transform="rotate(180 0 92.20964923467838)" font-family="sans-serif">KIND</text></g><g class="relationship" transform="translate(107.4395677759615 156.1091487116824) rotate(268.95733668300505)"><path class="outline" fill="#FFD86E" stroke="none" d="M 25 1.5 L 62.73889267507674 1.5 L 62.73889267507674 -1.5 L 25 -1.5 Z M 93.73889267507674 1.5 L 131.47778535015348 1.5 L 131.47778535015348 4.5 L 140.47778535015348 0 L 131.47778535015348 -4.5 L 131.47778535015348 -1.5 L 93.73889267507674 -1.5 Z"/><text text-anchor="middle" pointer-events="none" font-size="8px" fill="#000000" x="78.23889267507674" y="3" transform="rotate(180 78.23889267507674 0)" font-family="sans-serif">BELEG</text></g></g><g class="layer nodes"><g class="node selected" transform="translate(107.4395677759615,156.1091487116824)"><circle class="outline" cx="0" cy="0" r="25" fill="#FFD86E" stroke="#EDBA39" stroke-width="2px"/><text text-anchor="middle" pointer-events="none" font-family="sans-serif" dy="1.5625" font-size="25" fill="#604A0E"/><text text-anchor="middle" pointer-events="none" y="5" font-size="10px" fill="#604A0E" font-family="sans-serif"> Beleg</text></g><g class="node" transform="translate(221.48869664155765,68.77643264143265)"><circle class="outline" cx="0" cy="0" r="25" fill="#FF756E" stroke="#E06760" stroke-width="2px"/><text text-anchor="middle" pointer-events="none" font-family="sans-serif" dy="1.5625" font-size="25" fill="#FFFFFF"/><text text-anchor="middle" pointer-events="none" y="5" font-size="10px" fill="#FFFFFF" font-family="sans-serif"> Quelle</text></g><g class="node" transform="translate(104.42838448900514,-9.341237264306884)"><circle class="outline" cx="0" cy="0" r="25" fill="#68BDF6" stroke="#5CA8DB" stroke-width="2px"/><text text-anchor="middle" pointer-events="none" font-family="sans-serif" dy="1.5625" font-size="25" fill="#FFFFFF"/><text text-anchor="middle" pointer-events="none" y="5" font-size="10px" fill="#FFFFFF" font-family="sans-serif"> Person</text></g></g></svg>