<svg xmlns="http://www.w3.org/2000/svg" width="314.542236328125" height="326.70220947265625" viewBox="-175.7322235107422 -61.41010665893555 314.542236328125 326.70220947265625"><title>Neo4j Graph Visualization</title><desc>Created using Neo4j (http://www.neo4j.com/)</desc><g class="layer relationships"><g class="relationship" transform="translate(-0.5266622775902476 236.29211484765884) rotate(226.60419541629443)"><path class="outline" fill="#FFC454" stroke="none" d="M 25 6.5 L 168.80678942461512 6.5 L 168.80678942461512 9.5 L 187.80678942461512 0 L 168.80678942461512 -9.5 L 168.80678942461512 -6.5 L 25 -6.5 Z"/><text text-anchor="middle" pointer-events="none" font-size="8px" fill="#604A0E" x="96.90339471230756" y="3" transform="rotate(180 96.90339471230756 0)" font-family="sans-serif">RELATION</text></g><g class="relationship" transform="translate(-146.7322272437089 81.66138569542812) rotate(319.27131455350127)"><path class="outline" fill="#FFC454" stroke="none" d="M 25 6.5 L 130.82813401867205 6.5 L 130.82813401867205 9.5 L 149.82813401867205 0 L 130.82813401867205 -9.5 L 130.82813401867205 -6.5 L 25 -6.5 Z"/><text text-anchor="middle" pointer-events="none" font-size="8px" fill="#604A0E" x="77.91406700933602" y="3" font-family="sans-serif">RELATION</text></g><g class="relationship" transform="translate(-14.246109822441316 -32.41010563824757) rotate(398.7968329790982)"><path class="outline" fill="#FFC454" stroke="none" d="M 25 6.5 L 115.17437548686922 6.5 L 115.17437548686922 9.5 L 134.17437548686922 0 L 115.17437548686922 -9.5 L 115.17437548686922 -6.5 L 25 -6.5 Z"/><text text-anchor="middle" pointer-events="none" font-size="8px" fill="#604A0E" x="70.08718774343461" y="3" font-family="sans-serif">RELATION</text></g><g class="relationship" transform="translate(109.8100369316291 67.3223076693997) rotate(483.1443976065435)"><path class="outline" fill="#FFC454" stroke="none" d="M 25 6.5 L 157.80431841326842 6.5 L 157.80431841326842 9.5 L 176.80431841326842 0 L 157.80431841326842 -9.5 L 157.80431841326842 -6.5 L 25 -6.5 Z"/><text text-anchor="middle" pointer-events="none" font-size="8px" fill="#604A0E" x="91.40215920663421" y="3" transform="rotate(180 91.40215920663421 0)" font-family="sans-serif">RELATION</text></g></g><g class="layer nodes"><g class="node" transform="translate(-0.5266622775902476,236.29211484765884)"><circle class="outline" cx="0" cy="0" r="25" fill="#4C8EDA" stroke="#2870c2" stroke-width="2px"/><text text-anchor="middle" pointer-events="none" font-family="sans-serif" dy="1.5625" font-size="25" fill="#FFFFFF"/><text text-anchor="middle" pointer-events="none" y="5" font-size="10px" fill="#FFFFFF" font-family="sans-serif"> Node A</text></g><g class="node" transform="translate(-146.7322272437089,81.66138569542812)"><circle class="outline" cx="0" cy="0" r="25" fill="#4C8EDA" stroke="#2870c2" stroke-width="2px"/><text text-anchor="middle" pointer-events="none" font-family="sans-serif" dy="1.5625" font-size="25" fill="#FFFFFF"/><text text-anchor="middle" pointer-events="none" y="5" font-size="10px" fill="#FFFFFF" font-family="sans-serif"> Node B</text></g><g class="node" transform="translate(-14.246109822441316,-32.41010563824757)"><circle class="outline" cx="0" cy="0" r="25" fill="#4C8EDA" stroke="#2870c2" stroke-width="2px"/><text text-anchor="middle" pointer-events="none" font-family="sans-serif" dy="1.5625" font-size="25" fill="#FFFFFF"/><text text-anchor="middle" pointer-events="none" y="5" font-size="10px" fill="#FFFFFF" font-family="sans-serif"> Node C</text></g><g class="node" transform="translate(109.8100369316291,67.3223076693997)"><circle class="outline" cx="0" cy="0" r="25" fill="#4C8EDA" stroke="#2870c2" stroke-width="2px"/><text text-anchor="middle" pointer-events="none" font-family="sans-serif" dy="1.5625" font-size="25" fill="#FFFFFF"/><text text-anchor="middle" pointer-events="none" y="5" font-size="10px" fill="#FFFFFF" font-family="sans-serif"> Node D</text></g></g></svg>