<svg xmlns="http://www.w3.org/2000/svg" width="250.04281616210938" height="349.5010986328125" viewBox="-9.558128356933594 -83.50732421875 250.04281616210938 349.5010986328125"><title>Neo4j Graph Visualization</title><desc>Created using Neo4j (http://www.neo4j.com/)</desc><g class="layer relationships"><g class="relationship" transform="translate(29.157445953015426 229.49376402075134) rotate(269.7028757354633)"><path class="outline" fill="#FFC454" stroke="none" d="M 32.5 6.5 L 110.60720278168131 6.5 L 110.60720278168131 9.5 L 129.6072027816813 0 L 110.60720278168131 -9.5 L 110.60720278168131 -6.5 L 32.5 -6.5 Z"/><text text-anchor="middle" pointer-events="none" font-size="8px" fill="#604A0E" x="71.55360139084065" y="3" transform="rotate(180 71.55360139084065 0)" font-family="sans-serif">RELATION: 90</text></g><g class="relationship" transform="translate(29.157445953015426 229.49376402075134) rotate(359.4704546035407)"><path class="outline" fill="#FFC454" stroke="none" d="M 32.5 6.5 L 123.33468426154528 6.5 L 123.33468426154528 9.5 L 142.33468426154528 0 L 123.33468426154528 -9.5 L 123.33468426154528 -6.5 L 32.5 -6.5 Z"/><text text-anchor="middle" pointer-events="none" font-size="8px" fill="#604A0E" x="77.91734213077264" y="3" font-family="sans-serif">RELATION: 30</text></g><g class="relationship" transform="translate(203.9846630514951 227.87791055112643) rotate(222.41464567012423)"><path class="outline" fill="#FFC454" stroke="none" d="M 32.5 6.5 L 186.4411135487383 6.5 L 186.4411135487383 9.5 L 205.4411135487383 0 L 186.4411135487383 -9.5 L 186.4411135487383 -6.5 L 32.5 -6.5 Z"/><text text-anchor="middle" pointer-events="none" font-size="8px" fill="#604A0E" x="109.47055677436914" y="3" transform="rotate(180 109.47055677436914 0)" font-family="sans-serif">RELATION: 50</text></g><g class="relationship" transform="translate(28.316794723057882 67.38874096714355) rotate(360.71241726365065)"><path class="outline" fill="#FFC454" stroke="none" d="M 32.5 6.5 L 120.12534986078097 6.5 L 120.12534986078097 9.5 L 139.12534986078097 0 L 120.12534986078097 -9.5 L 120.12534986078097 -6.5 L 32.5 -6.5 Z"/><text text-anchor="middle" pointer-events="none" font-size="8px" fill="#604A0E" x="76.31267493039049" y="3" font-family="sans-serif">RELATION: 10</text></g><g class="relationship" transform="translate(199.92887768402164 69.52268019654062) rotate(213.9655645720208)"><path class="outline" fill="#FFC454" stroke="none" d="M 32.5 6.5 L 157.0755147151625 6.5 L 157.0755147151625 9.5 L 176.0755147151625 0 L 157.0755147151625 -9.5 L 157.0755147151625 -6.5 L 32.5 -6.5 Z"/><text text-anchor="middle" pointer-events="none" font-size="8px" fill="#604A0E" x="94.78775735758126" y="3" transform="rotate(180 94.78775735758126 0)" font-family="sans-serif">RELATION: 70</text></g></g><g class="layer nodes"><g class="node" transform="translate(29.157445953015426,229.49376402075134)"><circle class="outline" cx="0" cy="0" r="32.5" fill="#4C8EDA" stroke="#2870c2" stroke-width="2px"/><text text-anchor="middle" pointer-events="none" font-family="sans-serif" dy="2.03125" font-size="32.5" fill="#FFFFFF"/><text text-anchor="middle" pointer-events="none" y="5" font-size="10px" fill="#FFFFFF" font-family="sans-serif"> Node D</text></g><g class="node" transform="translate(203.9846630514951,227.87791055112643)"><circle class="outline" cx="0" cy="0" r="32.5" fill="#4C8EDA" stroke="#2870c2" stroke-width="2px"/><text text-anchor="middle" pointer-events="none" font-family="sans-serif" dy="2.03125" font-size="32.5" fill="#FFFFFF"/><text text-anchor="middle" pointer-events="none" y="5" font-size="10px" fill="#FFFFFF" font-family="sans-serif"> Node B</text></g><g class="node" transform="translate(28.316794723057882,67.38874096714355)"><circle class="outline" cx="0" cy="0" r="32.5" fill="#4C8EDA" stroke="#2870c2" stroke-width="2px"/><text text-anchor="middle" pointer-events="none" font-family="sans-serif" dy="2.03125" font-size="32.5" fill="#FFFFFF"/><text text-anchor="middle" pointer-events="none" y="5" font-size="10px" fill="#FFFFFF" font-family="sans-serif"> Node C</text></g><g class="node" transform="translate(199.92887768402164,69.52268019654062)"><circle class="outline" cx="0" cy="0" r="32.5" fill="#4C8EDA" stroke="#2870c2" stroke-width="2px"/><text text-anchor="middle" pointer-events="none" font-family="sans-serif" dy="2.03125" font-size="32.5" fill="#FFFFFF"/><text text-anchor="middle" pointer-events="none" y="5" font-size="10px" fill="#FFFFFF" font-family="sans-serif"> Node A</text></g><g class="node" transform="translate(26.94187214923693,-47.00732132582843)"><circle class="outline" cx="0" cy="0" r="32.5" fill="#4C8EDA" stroke="#2870c2" stroke-width="2px"/><text text-anchor="middle" pointer-events="none" font-family="sans-serif" dy="2.03125" font-size="32.5" fill="#FFFFFF"/><text text-anchor="middle" pointer-events="none" y="5" font-size="10px" fill="#FFFFFF" font-family="sans-serif"> Node E</text></g></g></svg>