<svg xmlns="http://www.w3.org/2000/svg" width="259.7401123046875" height="305.0462341308594" viewBox="-89.51251983642578 -55.787696838378906 259.7401123046875 305.0462341308594"><title>Neo4j Graph Visualization</title><desc>Created using Neo4j (http://www.neo4j.com/)</desc><g class="layer relationships"><g class="relationship" transform="translate(136.37373792232478 86.88739544811251) rotate(210.00060173035422)"><path class="outline" fill="#FFC454" stroke="none" d="M 25 6.5 L 183.346046987643 6.5 L 183.346046987643 9.5 L 202.346046987643 0 L 183.346046987643 -9.5 L 183.346046987643 -6.5 L 25 -6.5 Z"/><text text-anchor="middle" pointer-events="none" font-size="8px" fill="#604A0E" x="104.1730234938215" y="3" transform="rotate(180 104.1730234938215 0)" font-family="sans-serif">70</text></g><g class="relationship" transform="translate(-53.4880084362686 220.2585239634253) rotate(359.88566823209464)"><path class="outline" fill="#FFC454" stroke="none" d="M 25 6.5 L 150.7159945443255 6.5 L 150.7159945443255 9.5 L 169.7159945443255 0 L 150.7159945443255 -9.5 L 150.7159945443255 -6.5 L 25 -6.5 Z"/><text text-anchor="middle" pointer-events="none" font-size="8px" fill="#604A0E" x="87.85799727216275" y="3" font-family="sans-serif">30</text></g><g class="relationship" transform="translate(-53.4880084362686 220.2585239634253) rotate(269.2814807268668)"><path class="outline" fill="#FFC454" stroke="none" d="M 25 6.5 L 91.20381538462058 6.5 L 91.20381538462058 9.5 L 110.20381538462058 0 L 91.20381538462058 -9.5 L 91.20381538462058 -6.5 L 25 -6.5 Z"/><text text-anchor="middle" pointer-events="none" font-size="8px" fill="#604A0E" x="58.10190769231029" y="3" transform="rotate(180 58.10190769231029 0)" font-family="sans-serif">90</text></g><g class="relationship" transform="translate(141.2275984399614 219.86997511548864) rotate(214.46333697247735)"><path class="outline" fill="#FFC454" stroke="none" d="M 25 6.5 L 194.22175758274298 6.5 L 194.22175758274298 9.5 L 213.22175758274298 0 L 194.22175758274298 -9.5 L 194.22175758274298 -6.5 L 25 -6.5 Z"/><text text-anchor="middle" pointer-events="none" font-size="8px" fill="#604A0E" x="109.61087879137149" y="3" transform="rotate(180 109.61087879137149 0)" font-family="sans-serif">50</text></g><g class="relationship" transform="translate(-55.18349110028955 85.06533984124195) rotate(360.5449700260373)"><path class="outline" fill="#FFC454" stroke="none" d="M 25 6.5 L 147.56589434828123 6.5 L 147.56589434828123 9.5 L 166.56589434828123 0 L 147.56589434828123 -9.5 L 147.56589434828123 -6.5 L 25 -6.5 Z"/><text text-anchor="middle" pointer-events="none" font-size="8px" fill="#604A0E" x="86.28294717414062" y="3" font-family="sans-serif">10</text></g></g><g class="layer nodes"><g class="node" transform="translate(136.37373792232478,86.88739544811251)"><circle class="outline" cx="0" cy="0" r="25" fill="#4C8EDA" stroke="#2870c2" stroke-width="2px"/><text text-anchor="middle" pointer-events="none" font-family="sans-serif" dy="1.5625" font-size="25" fill="#FFFFFF"/><text text-anchor="middle" pointer-events="none" y="5" font-size="10px" fill="#FFFFFF" font-family="sans-serif"> Node A</text></g><g class="node" transform="translate(-60.51252039400012,-26.787695786093053)"><circle class="outline" cx="0" cy="0" r="25" fill="#4C8EDA" stroke="#2870c2" stroke-width="2px"/><text text-anchor="middle" pointer-events="none" font-family="sans-serif" dy="1.5625" font-size="25" fill="#FFFFFF"/><text text-anchor="middle" pointer-events="none" y="5" font-size="10px" fill="#FFFFFF" font-family="sans-serif"> Node E</text></g><g class="node" transform="translate(-53.4880084362686,220.2585239634253)"><circle class="outline" cx="0" cy="0" r="25" fill="#4C8EDA" stroke="#2870c2" stroke-width="2px"/><text text-anchor="middle" pointer-events="none" font-family="sans-serif" dy="1.5625" font-size="25" fill="#FFFFFF"/><text text-anchor="middle" pointer-events="none" y="5" font-size="10px" fill="#FFFFFF" font-family="sans-serif"> Node D</text></g><g class="node" transform="translate(141.2275984399614,219.86997511548864)"><circle class="outline" cx="0" cy="0" r="25" fill="#4C8EDA" stroke="#2870c2" stroke-width="2px"/><text text-anchor="middle" pointer-events="none" font-family="sans-serif" dy="1.5625" font-size="25" fill="#FFFFFF"/><text text-anchor="middle" pointer-events="none" y="5" font-size="10px" fill="#FFFFFF" font-family="sans-serif"> Node B</text></g><g class="node" transform="translate(-55.18349110028955,85.06533984124195)"><circle class="outline" cx="0" cy="0" r="25" fill="#4C8EDA" stroke="#2870c2" stroke-width="2px"/><text text-anchor="middle" pointer-events="none" font-family="sans-serif" dy="1.5625" font-size="25" fill="#FFFFFF"/><text text-anchor="middle" pointer-events="none" y="5" font-size="10px" fill="#FFFFFF" font-family="sans-serif"> Node C</text></g></g></svg>