<svg xmlns="http://www.w3.org/2000/svg" width="682.0098266601562" height="470.2268981933594" viewBox="-126.17302703857422 -188.03366088867188 682.0098266601562 470.2268981933594"><title>Neo4j Graph Visualization</title><desc>Created using Neo4j (http://www.neo4j.com/)</desc><g class="layer relationships"><g class="relationship" transform="translate(79.14812235380074 147.98275581125094) rotate(260.65334165452185)"><path class="outline" fill="#A5ABB6" stroke="none" d="M 40 0.5 L 59.88137939584762 0.5 L 59.88137939584762 -0.5 L 40 -0.5 Z M 112.88137939584762 0.5 L 132.76275879169523 0.5 L 132.76275879169523 3.5 L 139.76275879169523 0 L 132.76275879169523 -3.5 L 132.76275879169523 -0.5 L 112.88137939584762 -0.5 Z"/><text text-anchor="middle" pointer-events="none" font-size="8px" fill="#000000" x="86.38137939584762" y="3" transform="rotate(180 86.38137939584762 0)" font-family="sans-serif">BELEGSEITE</text></g><g class="relationship" transform="translate(192.11040613180546 -6.270911118310757) rotate(183.40846312125063)"><path class="outline" fill="#A5ABB6" stroke="none" d="M 40 0.5 L 47.484286175175754 0.5 L 47.484286175175754 -0.5 L 40 -0.5 Z M 100.48428617517575 0.5 L 107.96857235035151 0.5 L 107.96857235035151 3.5 L 114.96857235035151 0 L 107.96857235035151 -3.5 L 107.96857235035151 -0.5 L 100.48428617517575 -0.5 Z"/><text text-anchor="middle" pointer-events="none" font-size="8px" fill="#000000" x="73.98428617517575" y="3" transform="rotate(180 73.98428617517575 0)" font-family="sans-serif">BELEGSEITE</text></g><g class="relationship" transform="translate(52.389430217639884 -14.592577741574658) rotate(182.71947693944674)"><path class="outline" fill="#A5ABB6" stroke="none" d="M 25 0.5 L 55.361314060160424 0.5 L 55.361314060160424 -0.5 L 25 -0.5 Z M 72.36131406016042 0.5 L 102.72262812032085 0.5 L 102.72262812032085 3.5 L 109.72262812032085 0 L 102.72262812032085 -3.5 L 102.72262812032085 -0.5 L 72.36131406016042 -0.5 Z"/><text text-anchor="middle" pointer-events="none" font-size="8px" fill="#000000" x="63.861314060160424" y="3" transform="rotate(180 63.861314060160424 0)" font-family="sans-serif">LIT</text></g><g class="relationship" transform="translate(79.14812235380074 147.98275581125094) rotate(538.948091080246)"><path class="outline" fill="#A5ABB6" stroke="none" d="M 40 0.5 L 61.33704582546437 0.5 L 61.33704582546437 -0.5 L 40 -0.5 Z M 102.33704582546437 0.5 L 123.67409165092874 0.5 L 123.67409165092874 3.5 L 130.67409165092874 0 L 123.67409165092874 -3.5 L 123.67409165092874 -0.5 L 102.33704582546437 -0.5 Z"/><text text-anchor="middle" pointer-events="none" font-size="8px" fill="#000000" x="81.83704582546437" y="3" transform="rotate(180 81.83704582546437 0)" font-family="sans-serif">HAT_ORT</text></g><g class="relationship" transform="translate(79.14812235380074 147.98275581125094) rotate(507.5238927580403)"><path class="outline" fill="#A5ABB6" stroke="none" d="M 40 0.5 L 64.18233290301488 0.5 L 64.18233290301488 -0.5 L 40 -0.5 Z M 117.18233290301488 0.5 L 141.36466580602976 0.5 L 141.36466580602976 3.5 L 148.36466580602976 0 L 141.36466580602976 -3.5 L 141.36466580602976 -0.5 L 117.18233290301488 -0.5 Z"/><text text-anchor="middle" pointer-events="none" font-size="8px" fill="#000000" x="90.68233290301488" y="3" transform="rotate(180 90.68233290301488 0)" font-family="sans-serif">HAT_DATUM</text></g><g class="relationship" transform="translate(79.14812235380074 147.98275581125094) rotate(360.77715222834394)"><path class="outline" fill="#A5ABB6" stroke="none" d="M 40 0.5 L 52.573906165143384 0.5 L 52.573906165143384 -0.5 L 40 -0.5 Z M 147.5739061651434 0.5 L 160.14781233028677 0.5 L 160.14781233028677 3.5 L 167.14781233028677 0 L 160.14781233028677 -3.5 L 160.14781233028677 -0.5 L 147.5739061651434 -0.5 Z"/><text text-anchor="middle" pointer-events="none" font-size="8px" fill="#000000" x="100.07390616514338" y="3" font-family="sans-serif">HERRSCHERHANDELN</text></g><g class="relationship" transform="translate(192.11040613180546 -6.270911118310757) rotate(421.0944842405721)"><path class="outline" fill="#A5ABB6" stroke="none" d="M 40 0.5 L 42.399504705055065 0.5 L 42.399504705055065 -0.5 L 40 -0.5 Z M 137.39950470505505 0.5 L 139.79900941011013 0.5 L 139.79900941011013 3.5 L 146.79900941011013 0 L 139.79900941011013 -3.5 L 139.79900941011013 -0.5 L 137.39950470505505 -0.5 Z"/><text text-anchor="middle" pointer-events="none" font-size="8px" fill="#000000" x="89.89950470505507" y="3" font-family="sans-serif">HERRSCHERHANDELN</text></g><g class="relationship" transform="translate(192.11040613180546 -6.270911118310757) rotate(212.27169431788383)"><path class="outline" fill="#A5ABB6" stroke="none" d="M 40 0.5 L 108.96085584943155 0.5 L 108.96085584943155 -0.5 L 40 -0.5 Z M 149.96085584943154 0.5 L 218.9217116988631 0.5 L 218.9217116988631 3.5 L 225.9217116988631 0 L 218.9217116988631 -3.5 L 218.9217116988631 -0.5 L 149.96085584943154 -0.5 Z"/><text text-anchor="middle" pointer-events="none" font-size="8px" fill="#000000" x="129.46085584943154" y="3" transform="rotate(180 129.46085584943154 0)" font-family="sans-serif">HAT_ORT</text></g><g class="relationship" transform="translate(192.11040613180546 -6.270911118310757) rotate(259.9448355614588)"><path class="outline" fill="#A5ABB6" stroke="none" d="M 40 0.5 L 47.51438412590545 0.5 L 47.51438412590545 -0.5 L 40 -0.5 Z M 100.51438412590545 0.5 L 108.0287682518109 0.5 L 108.0287682518109 3.5 L 115.0287682518109 0 L 108.0287682518109 -3.5 L 108.0287682518109 -0.5 L 100.51438412590545 -0.5 Z"/><text text-anchor="middle" pointer-events="none" font-size="8px" fill="#000000" x="74.01438412590545" y="3" transform="rotate(180 74.01438412590545 0)" font-family="sans-serif">HAT_DATUM</text></g><g class="relationship" transform="translate(330.15904682881626 101.57401918331465) rotate(217.99729677974528)"><path class="outline" fill="#A5ABB6" stroke="none" d="M 25 0.5 L 48.08989124044912 0.5 L 48.08989124044912 -0.5 L 25 -0.5 Z M 105.08989124044912 0.5 L 128.17978248089824 0.5 L 128.17978248089824 3.5 L 135.17978248089824 0 L 128.17978248089824 -3.5 L 128.17978248089824 -0.5 L 105.08989124044912 -0.5 Z"/><text text-anchor="middle" pointer-events="none" font-size="8px" fill="#000000" x="76.58989124044912" y="3" transform="rotate(180 76.58989124044912 0)" font-family="sans-serif">GENANNT_IN</text></g><g class="relationship" transform="translate(355.7152542233441 39.934192515619515) rotate(195.77068338230976)"><path class="outline" fill="#A5ABB6" stroke="none" d="M 25 0.5 L 45.50214397425172 0.5 L 45.50214397425172 -0.5 L 25 -0.5 Z M 102.50214397425172 0.5 L 123.00428794850345 0.5 L 123.00428794850345 3.5 L 130.00428794850345 0 L 123.00428794850345 -3.5 L 123.00428794850345 -0.5 L 102.50214397425172 -0.5 Z"/><text text-anchor="middle" pointer-events="none" font-size="8px" fill="#000000" x="74.00214397425172" y="3" transform="rotate(180 74.00214397425172 0)" font-family="sans-serif">GENANNT_IN</text></g><g class="relationship" transform="translate(351.04243371245394 -26.835320492812954) rotate(532.6273912255363)"><path class="outline" fill="#A5ABB6" stroke="none" d="M 25 0.5 L 40.62846610883382 0.5 L 40.62846610883382 -0.5 L 25 -0.5 Z M 97.62846610883382 0.5 L 113.25693221766764 0.5 L 113.25693221766764 3.5 L 120.25693221766764 0 L 113.25693221766764 -3.5 L 113.25693221766764 -0.5 L 97.62846610883382 -0.5 Z"/><text text-anchor="middle" pointer-events="none" font-size="8px" fill="#000000" x="69.12846610883382" y="3" transform="rotate(180 69.12846610883382 0)" font-family="sans-serif">GENANNT_IN</text></g><g class="relationship" transform="translate(333.93815843855015 -109.81234043916857) rotate(503.868666279812)"><path class="outline" fill="#A5ABB6" stroke="none" d="M 25 0.5 L 48.30082418489805 0.5 L 48.30082418489805 -0.5 L 25 -0.5 Z M 105.30082418489805 0.5 L 128.6016483697961 0.5 L 128.6016483697961 3.5 L 135.6016483697961 0 L 128.6016483697961 -3.5 L 128.6016483697961 -0.5 L 105.30082418489805 -0.5 Z"/><text text-anchor="middle" pointer-events="none" font-size="8px" fill="#000000" x="76.80082418489805" y="3" transform="rotate(180 76.80082418489805 0)" font-family="sans-serif">GENANNT_IN</text></g><g class="relationship" transform="translate(360.88779642545217 238.19322367946342) rotate(310.4713834511509)"><path class="outline" fill="#A5ABB6" stroke="none" d="M 40 0.5 L 77.43920226562817 0.5 L 77.43920226562817 -0.5 L 40 -0.5 Z M 130.43920226562818 0.5 L 167.87840453125634 0.5 L 167.87840453125634 3.5 L 174.87840453125634 0 L 167.87840453125634 -3.5 L 167.87840453125634 -0.5 L 130.43920226562818 -0.5 Z"/><text text-anchor="middle" pointer-events="none" font-size="8px" fill="#000000" x="103.93920226562817" y="3" font-family="sans-serif">BELEGSEITE</text></g><g class="relationship" transform="translate(507.05683435131584 -27.39894016013386) rotate(458.2361653531288)"><path class="outline" fill="#A5ABB6" stroke="none" d="M 40 0.5 L 41.86092893604755 0.5 L 41.86092893604755 -0.5 L 40 -0.5 Z M 80.86092893604754 0.5 L 82.7218578720951 0.5 L 82.7218578720951 3.5 L 89.7218578720951 0 L 82.7218578720951 -3.5 L 82.7218578720951 -0.5 L 80.86092893604754 -0.5 Z"/><text text-anchor="middle" pointer-events="none" font-size="8px" fill="#000000" x="61.36092893604755" y="3" transform="rotate(180 61.36092893604755 0)" font-family="sans-serif">BELEG…</text></g><g class="relationship" transform="translate(490.62250873648156 86.13967712583977) rotate(436.73311821234074)"><path class="outline" fill="#A5ABB6" stroke="none" d="M 25 0.5 L 46.81190722615412 0.5 L 46.81190722615412 -0.5 L 25 -0.5 Z M 63.81190722615412 0.5 L 85.62381445230824 0.5 L 85.62381445230824 3.5 L 92.62381445230824 0 L 85.62381445230824 -3.5 L 85.62381445230824 -0.5 L 63.81190722615412 -0.5 Z"/><text text-anchor="middle" pointer-events="none" font-size="8px" fill="#000000" x="55.31190722615412" y="3" font-family="sans-serif">LIT</text></g><g class="relationship" transform="translate(355.7152542233441 39.934192515619515) rotate(336.01531932682224)"><path class="outline" fill="#A5ABB6" stroke="none" d="M 25 0.5 L 43.32213567573872 0.5 L 43.32213567573872 -0.5 L 25 -0.5 Z M 100.32213567573872 0.5 L 118.64427135147744 0.5 L 118.64427135147744 3.5 L 125.64427135147744 0 L 118.64427135147744 -3.5 L 118.64427135147744 -0.5 L 100.32213567573872 -0.5 Z"/><text text-anchor="middle" pointer-events="none" font-size="8px" fill="#000000" x="71.82213567573872" y="3" font-family="sans-serif">GENANNT_IN</text></g><g class="relationship" transform="translate(333.93815843855015 -109.81234043916857) rotate(385.4568524528473)"><path class="outline" fill="#A5ABB6" stroke="none" d="M 25 0.5 L 56.3671535189994 0.5 L 56.3671535189994 -0.5 L 25 -0.5 Z M 113.3671535189994 0.5 L 144.7343070379988 0.5 L 144.7343070379988 3.5 L 151.7343070379988 0 L 144.7343070379988 -3.5 L 144.7343070379988 -0.5 L 113.3671535189994 -0.5 Z"/><text text-anchor="middle" pointer-events="none" font-size="8px" fill="#000000" x="84.8671535189994" y="3" font-family="sans-serif">GENANNT_IN</text></g><g class="relationship" transform="translate(351.04243371245394 -26.835320492812954) rotate(359.7930134168912)"><path class="outline" fill="#A5ABB6" stroke="none" d="M 25 0.5 L 38.50770935271831 0.5 L 38.50770935271831 -0.5 L 25 -0.5 Z M 95.50770935271831 0.5 L 109.01541870543662 0.5 L 109.01541870543662 3.5 L 116.01541870543662 0 L 109.01541870543662 -3.5 L 109.01541870543662 -0.5 L 95.50770935271831 -0.5 Z"/><text text-anchor="middle" pointer-events="none" font-size="8px" fill="#000000" x="67.00770935271831" y="3" font-family="sans-serif">GENANNT_IN</text></g></g><g class="layer nodes"><g class="node" transform="translate(490.62250873648156,86.13967712583977)"><circle class="outline" cx="0" cy="0" r="25" fill="#FB95AF" stroke="#E0849B" stroke-width="2px"/><text text-anchor="middle" pointer-events="none" font-family="sans-serif" dy="1.5625" font-size="25" fill="#FFFFFF"/><text text-anchor="middle" pointer-events="none" font-family="sans-serif" dy="1.5625" font-size="25" fill="#FFFFFF"/><text class="caption" text-anchor="middle" pointer-events="none" y="0" font-size="10px" fill="#FFFFFF" font-family="sans-serif"> Milbradt</text><text class="caption" text-anchor="middle" pointer-events="none" y="10" font-size="10px" fill="#FFFFFF" font-family="sans-serif"> Kamm…</text></g><g class="node" transform="translate(52.389430217639884,-14.592577741574658)"><circle class="outline" cx="0" cy="0" r="25" fill="#FB95AF" stroke="#E0849B" stroke-width="2px"/><text text-anchor="middle" pointer-events="none" font-family="sans-serif" dy="1.5625" font-size="25" fill="#FFFFFF"/><text text-anchor="middle" pointer-events="none" font-family="sans-serif" dy="1.5625" font-size="25" fill="#FFFFFF"/><text text-anchor="middle" pointer-events="none" font-family="sans-serif" dy="1.5625" font-size="25" fill="#FFFFFF"/><text class="caption" text-anchor="middle" pointer-events="none" y="-5" font-size="10px" fill="#FFFFFF" font-family="sans-serif"> Baader</text><text class="caption" text-anchor="middle" pointer-events="none" y="5" font-size="10px" fill="#FFFFFF" font-family="sans-serif"> Handel</text><text class="caption" text-anchor="middle" pointer-events="none" y="15" font-size="10px" fill="#FFFFFF" font-family="sans-serif"> S. 97</text></g><g class="node" transform="translate(79.14812235380074,147.98275581125094)"><circle class="outline" cx="0" cy="0" r="40" fill="#FFD86E" stroke="#EDBA39" stroke-width="2px"/><text text-anchor="middle" pointer-events="none" font-family="sans-serif" dy="2.5" font-size="40" fill="#604A0E"/><text text-anchor="middle" pointer-events="none" font-family="sans-serif" dy="2.5" font-size="40" fill="#604A0E"/><text class="caption" text-anchor="middle" pointer-events="none" y="0" font-size="10px" fill="#604A0E" font-family="sans-serif"> K.F. gewährt</text><text class="caption" text-anchor="middle" pointer-events="none" y="10" font-size="10px" fill="#604A0E" font-family="sans-serif"> Bürgermeiste…</text></g><g class="node" transform="translate(192.11040613180546,-6.270911118310757)"><circle class="outline" cx="0" cy="0" r="40" fill="#FFD86E" stroke="#EDBA39" stroke-width="2px"/><text text-anchor="middle" pointer-events="none" font-family="sans-serif" dy="2.5" font-size="40" fill="#604A0E"/><text text-anchor="middle" pointer-events="none" font-family="sans-serif" dy="2.5" font-size="40" fill="#604A0E"/><text class="caption" text-anchor="middle" pointer-events="none" y="0" font-size="10px" fill="#604A0E" font-family="sans-serif"> K. F. gewährt</text><text class="caption" text-anchor="middle" pointer-events="none" y="10" font-size="10px" fill="#604A0E" font-family="sans-serif"> Bürgermeiste…</text></g><g class="node" transform="translate(-89.67302735283332,-21.340473597956304)"><circle class="outline" cx="0" cy="0" r="32.5" fill="#A5ABB6" stroke="#9AA1AC" stroke-width="2px"/><text text-anchor="middle" pointer-events="none" font-family="sans-serif" dy="2.03125" font-size="32.5" fill="#FFFFFF"/><text class="caption" text-anchor="middle" pointer-events="none" y="5" font-size="10px" fill="#FFFFFF" font-family="sans-serif"> BAADER</text></g><g class="node" transform="translate(-76.49973405017278,150.84065857198382)"><circle class="outline" cx="0" cy="0" r="25" fill="#FF756E" stroke="#E06760" stroke-width="2px"/><text text-anchor="middle" pointer-events="none" font-family="sans-serif" dy="1.5625" font-size="25" fill="#FFFFFF"/><text class="caption" text-anchor="middle" pointer-events="none" y="5" font-size="10px" fill="#FFFFFF" font-family="sans-serif"> Graz</text></g><g class="node" transform="translate(-73.43210052199925,245.09765129231516)"><circle class="outline" cx="0" cy="0" r="32.5" fill="#6DCE9E" stroke="#60B58B" stroke-width="2px"/><text text-anchor="middle" pointer-events="none" font-family="sans-serif" dy="2.03125" font-size="32.5" fill="#FFFFFF"/><text class="caption" text-anchor="middle" pointer-events="none" y="5" font-size="10px" fill="#FFFFFF" font-family="sans-serif"> 1456-04-19</text></g><g class="node" transform="translate(278.7775695192797,150.69066878522997)"><circle class="outline" cx="0" cy="0" r="32.5" fill="#DE9BF9" stroke="#BF85D6" stroke-width="2px"/><text text-anchor="middle" pointer-events="none" font-family="sans-serif" dy="2.03125" font-size="32.5" fill="#FFFFFF"/><text class="caption" text-anchor="middle" pointer-events="none" y="5" font-size="10px" fill="#FFFFFF" font-family="sans-serif"> gewähren</text></g><g class="node" transform="translate(-20.05035349557025,-140.2467204132065)"><circle class="outline" cx="0" cy="0" r="25" fill="#FF756E" stroke="#E06760" stroke-width="2px"/><text text-anchor="middle" pointer-events="none" font-family="sans-serif" dy="1.5625" font-size="25" fill="#FFFFFF"/><text text-anchor="middle" pointer-events="none" font-family="sans-serif" dy="1.5625" font-size="25" fill="#FFFFFF"/><text class="caption" text-anchor="middle" pointer-events="none" y="0" font-size="10px" fill="#FFFFFF" font-family="sans-serif"> Wiener</text><text class="caption" text-anchor="middle" pointer-events="none" y="10" font-size="10px" fill="#FFFFFF" font-family="sans-serif"> Neusta…</text></g><g class="node" transform="translate(166.35243332886455,-151.53365341302128)"><circle class="outline" cx="0" cy="0" r="32.5" fill="#6DCE9E" stroke="#60B58B" stroke-width="2px"/><text text-anchor="middle" pointer-events="none" font-family="sans-serif" dy="2.03125" font-size="32.5" fill="#FFFFFF"/><text class="caption" text-anchor="middle" pointer-events="none" y="5" font-size="10px" fill="#FFFFFF" font-family="sans-serif"> 1452-12-20</text></g><g class="node" transform="translate(330.15904682881626,101.57401918331465)"><circle class="outline" cx="0" cy="0" r="25" fill="#68BDF6" stroke="#5CA8DB" stroke-width="2px"/><text text-anchor="middle" pointer-events="none" font-family="sans-serif" dy="1.5625" font-size="25" fill="#FFFFFF"/><text text-anchor="middle" pointer-events="none" font-family="sans-serif" dy="1.5625" font-size="25" fill="#FFFFFF"/><text text-anchor="middle" pointer-events="none" font-family="sans-serif" dy="1.5625" font-size="25" fill="#FFFFFF"/><text class="caption" text-anchor="middle" pointer-events="none" y="-5" font-size="10px" fill="#FFFFFF" font-family="sans-serif"> Gyner,</text><text class="caption" text-anchor="middle" pointer-events="none" y="5" font-size="10px" fill="#FFFFFF" font-family="sans-serif"> Erhard,</text><text class="caption" text-anchor="middle" pointer-events="none" y="15" font-size="10px" fill="#FFFFFF" font-family="sans-serif"> Gesa…</text></g><g class="node" transform="translate(355.7152542233441,39.934192515619515)"><circle class="outline" cx="0" cy="0" r="25" fill="#68BDF6" stroke="#5CA8DB" stroke-width="2px"/><text text-anchor="middle" pointer-events="none" font-family="sans-serif" dy="1.5625" font-size="25" fill="#FFFFFF"/><text class="caption" text-anchor="middle" pointer-events="none" y="5" font-size="10px" fill="#FFFFFF" font-family="sans-serif"> Nürnberg</text></g><g class="node" transform="translate(351.04243371245394,-26.835320492812954)"><circle class="outline" cx="0" cy="0" r="25" fill="#68BDF6" stroke="#5CA8DB" stroke-width="2px"/><text text-anchor="middle" pointer-events="none" font-family="sans-serif" dy="1.5625" font-size="25" fill="#FFFFFF"/><text text-anchor="middle" pointer-events="none" font-family="sans-serif" dy="1.5625" font-size="25" fill="#FFFFFF"/><text text-anchor="middle" pointer-events="none" font-family="sans-serif" dy="1.5625" font-size="25" fill="#FFFFFF"/><text class="caption" text-anchor="middle" pointer-events="none" y="-5" font-size="10px" fill="#FFFFFF" font-family="sans-serif"> Weltzli</text><text class="caption" text-anchor="middle" pointer-events="none" y="5" font-size="10px" fill="#FFFFFF" font-family="sans-serif"> // Ulrich,</text><text class="caption" text-anchor="middle" pointer-events="none" y="15" font-size="10px" fill="#FFFFFF" font-family="sans-serif"> Bürger</text></g><g class="node" transform="translate(333.93815843855015,-109.81234043916857)"><circle class="outline" cx="0" cy="0" r="25" fill="#68BDF6" stroke="#5CA8DB" stroke-width="2px"/><text text-anchor="middle" pointer-events="none" font-family="sans-serif" dy="1.5625" font-size="25" fill="#FFFFFF"/><text text-anchor="middle" pointer-events="none" font-family="sans-serif" dy="1.5625" font-size="25" fill="#FFFFFF"/><text text-anchor="middle" pointer-events="none" font-family="sans-serif" dy="1.5625" font-size="25" fill="#FFFFFF"/><text class="caption" text-anchor="middle" pointer-events="none" y="-5" font-size="10px" fill="#FFFFFF" font-family="sans-serif"> Wiener</text><text class="caption" text-anchor="middle" pointer-events="none" y="5" font-size="10px" fill="#FFFFFF" font-family="sans-serif"> Neustadt</text><text class="caption" text-anchor="middle" pointer-events="none" y="15" font-size="10px" fill="#FFFFFF" font-family="sans-serif"> (Nied…</text></g><g class="node" transform="translate(360.88779642545217,238.19322367946342)"><circle class="outline" cx="0" cy="0" r="40" fill="#FFD86E" stroke="#EDBA39" stroke-width="2px"/><text text-anchor="middle" pointer-events="none" font-family="sans-serif" dy="2.5" font-size="40" fill="#604A0E"/><text text-anchor="middle" pointer-events="none" font-family="sans-serif" dy="2.5" font-size="40" fill="#604A0E"/><text text-anchor="middle" pointer-events="none" font-family="sans-serif" dy="2.5" font-size="40" fill="#604A0E"/><text text-anchor="middle" pointer-events="none" font-family="sans-serif" dy="2.5" font-size="40" fill="#604A0E"/><text text-anchor="middle" pointer-events="none" font-family="sans-serif" dy="2.5" font-size="40" fill="#604A0E"/><text text-anchor="middle" pointer-events="none" font-family="sans-serif" dy="2.5" font-size="40" fill="#604A0E"/><text text-anchor="middle" pointer-events="none" font-family="sans-serif" dy="2.5" font-size="40" fill="#604A0E"/><text class="caption" text-anchor="middle" pointer-events="none" y="-25" font-size="10px" fill="#604A0E" font-family="sans-serif"> K.F.</text><text class="caption" text-anchor="middle" pointer-events="none" y="-15" font-size="10px" fill="#604A0E" font-family="sans-serif"> bekennt,</text><text class="caption" text-anchor="middle" pointer-events="none" y="-5" font-size="10px" fill="#604A0E" font-family="sans-serif"> dass ihm Mgf.</text><text class="caption" text-anchor="middle" pointer-events="none" y="5" font-size="10px" fill="#604A0E" font-family="sans-serif"> Albrecht von</text><text class="caption" text-anchor="middle" pointer-events="none" y="15" font-size="10px" fill="#604A0E" font-family="sans-serif"> Brandenburg</text><text class="caption" text-anchor="middle" pointer-events="none" y="25" font-size="10px" fill="#604A0E" font-family="sans-serif"> im eigenen</text><text class="caption" text-anchor="middle" pointer-events="none" y="35" font-size="10px" fill="#604A0E" font-family="sans-serif"> und im</text></g><g class="node" transform="translate(507.05683435131584,-27.39894016013386)"><circle class="outline" cx="0" cy="0" r="40" fill="#FFD86E" stroke="#EDBA39" stroke-width="2px"/><text text-anchor="middle" pointer-events="none" font-family="sans-serif" dy="2.5" font-size="40" fill="#604A0E"/><text text-anchor="middle" pointer-events="none" font-family="sans-serif" dy="2.5" font-size="40" fill="#604A0E"/><text text-anchor="middle" pointer-events="none" font-family="sans-serif" dy="2.5" font-size="40" fill="#604A0E"/><text text-anchor="middle" pointer-events="none" font-family="sans-serif" dy="2.5" font-size="40" fill="#604A0E"/><text text-anchor="middle" pointer-events="none" font-family="sans-serif" dy="2.5" font-size="40" fill="#604A0E"/><text text-anchor="middle" pointer-events="none" font-family="sans-serif" dy="2.5" font-size="40" fill="#604A0E"/><text class="caption" text-anchor="middle" pointer-events="none" y="-20" font-size="10px" fill="#604A0E" font-family="sans-serif"> K. F.</text><text class="caption" text-anchor="middle" pointer-events="none" y="-10" font-size="10px" fill="#604A0E" font-family="sans-serif"> beurkundet</text><text class="caption" text-anchor="middle" pointer-events="none" y="0" font-size="10px" fill="#604A0E" font-family="sans-serif"> die</text><text class="caption" text-anchor="middle" pointer-events="none" y="10" font-size="10px" fill="#604A0E" font-family="sans-serif"> Verschiebung</text><text class="caption" text-anchor="middle" pointer-events="none" y="20" font-size="10px" fill="#604A0E" font-family="sans-serif"> der</text><text class="caption" text-anchor="middle" pointer-events="none" y="30" font-size="10px" fill="#604A0E" font-family="sans-serif"> Gerichts…</text></g><g class="node" transform="translate(519.3368200832961,207.924147675142)"><circle class="outline" cx="0" cy="0" r="32.5" fill="#A5ABB6" stroke="#9AA1AC" stroke-width="2px"/><text text-anchor="middle" pointer-events="none" font-family="sans-serif" dy="2.03125" font-size="32.5" fill="#FFFFFF"/><text class="caption" text-anchor="middle" pointer-events="none" y="5" font-size="10px" fill="#FFFFFF" font-family="sans-serif"> MILBRADT</text></g></g></svg>