<svg xmlns="http://www.w3.org/2000/svg" width="413.61163330078125" height="235.89605712890625" viewBox="28.843505859375 -41.573333740234375 413.61163330078125 235.89605712890625"><title>Neo4j Graph Visualization</title><desc>Created using Neo4j (http://www.neo4j.com/)</desc><g class="layer relationships"><g class="relationship" transform="translate(398.4551435119795 9.03487843806684) rotate(517.0843685051495)"><path class="outline" fill="#A5ABB6" stroke="none" d="M 40 0.5 L 44.02870871433775 0.5 L 44.02870871433775 -0.5 L 40 -0.5 Z M 130.5620415390448 0.5 L 134.59075025338254 0.5 L 134.59075025338254 3.5 L 141.59075025338254 0 L 134.59075025338254 -3.5 L 134.59075025338254 -0.5 L 130.5620415390448 -0.5 Z"/><text text-anchor="middle" pointer-events="none" font-size="8px" fill="#000000" x="87.29537512669127" y="3" transform="rotate(180 87.29537512669127 0)" font-family="sans-serif">KOMMENTIERT_VON</text></g><g class="relationship" transform="translate(75.40284768484224 150.3227192733299) rotate(335.62741578499504)"><path class="outline" fill="#A5ABB6" stroke="none" d="M 40 0.5 L 54.25097667243031 0.5 L 54.25097667243031 -0.5 L 40 -0.5 Z M 109.78430949713734 0.5 L 124.03528616956766 0.5 L 124.03528616956766 3.5 L 131.03528616956766 0 L 124.03528616956766 -3.5 L 124.03528616956766 -0.5 L 109.78430949713734 -0.5 Z"/><text text-anchor="middle" pointer-events="none" font-size="8px" fill="#000000" x="82.01764308478383" y="3" font-family="sans-serif">AUTOR_VON</text></g><g class="relationship" transform="translate(72.84350288261693 2.4266670398894234) rotate(386.0238577957639)"><path class="outline" fill="#A5ABB6" stroke="none" d="M 40 0.5 L 56.8427044481424 0.5 L 56.8427044481424 -0.5 L 40 -0.5 Z M 112.37603727284943 0.5 L 129.21874172099183 0.5 L 129.21874172099183 3.5 L 136.21874172099183 0 L 129.21874172099183 -3.5 L 129.21874172099183 -0.5 L 112.37603727284943 -0.5 Z"/><text text-anchor="middle" pointer-events="none" font-size="8px" fill="#000000" x="84.60937086049591" y="3" font-family="sans-serif">AUTOR_VON</text></g><g class="relationship" transform="translate(231.1956787109375 79.74182301959539) rotate(382.3581239585452)"><path class="outline" fill="#A5ABB6" stroke="none" d="M 40 0.5 L 54.26462692859536 0.5 L 54.26462692859536 -0.5 L 40 -0.5 Z M 117.46462769153482 0.5 L 131.72925462013018 0.5 L 131.72925462013018 3.5 L 138.72925462013018 0 L 131.72925462013018 -3.5 L 131.72925462013018 -0.5 L 117.46462769153482 -0.5 Z"/><text text-anchor="middle" pointer-events="none" font-size="8px" fill="#000000" x="85.86462731006509" y="3" font-family="sans-serif">GEDRUCKT_IN</text></g></g><g class="layer nodes"><g class="node" transform="translate(231.1956787109375,79.74182301959539)"><circle class="outline" cx="0" cy="0" r="40" fill="#68BDF6" stroke="#5CA8DB" stroke-width="2px"/><text text-anchor="middle" pointer-events="none" font-family="sans-serif" dy="2.5" font-size="40" fill="#FFFFFF"/><text text-anchor="middle" pointer-events="none" font-family="sans-serif" dy="2.5" font-size="40" fill="#FFFFFF"/><text text-anchor="middle" pointer-events="none" y="0" font-size="10px" fill="#FFFFFF" font-family="sans-serif"> Beʾur millot</text><text text-anchor="middle" pointer-events="none" y="10" font-size="10px" fill="#FFFFFF" font-family="sans-serif"> ha-higgajon</text></g><g class="node" transform="translate(398.4551435119795,9.03487843806684)"><circle class="outline" cx="0" cy="0" r="40" fill="#FF756E" stroke="#E06760" stroke-width="2px"/><text text-anchor="middle" pointer-events="none" font-family="sans-serif" dy="2.5" font-size="40" fill="#FFFFFF"/><text text-anchor="middle" pointer-events="none" font-family="sans-serif" dy="2.5" font-size="40" fill="#FFFFFF"/><text text-anchor="middle" pointer-events="none" y="0" font-size="10px" fill="#FFFFFF" font-family="sans-serif"> Mendelssohn,</text><text text-anchor="middle" pointer-events="none" y="10" font-size="10px" fill="#FFFFFF" font-family="sans-serif"> Moses</text></g><g class="node" transform="translate(75.40284768484224,150.3227192733299)"><circle class="outline" cx="0" cy="0" r="40" fill="#FF756E" stroke="#E06760" stroke-width="2px"/><text text-anchor="middle" pointer-events="none" font-family="sans-serif" dy="2.5" font-size="40" fill="#FFFFFF"/><text text-anchor="middle" pointer-events="none" font-family="sans-serif" dy="2.5" font-size="40" fill="#FFFFFF"/><text text-anchor="middle" pointer-events="none" y="0" font-size="10px" fill="#FFFFFF" font-family="sans-serif"> [1] Mose ben</text><text text-anchor="middle" pointer-events="none" y="10" font-size="10px" fill="#FFFFFF" font-family="sans-serif"> Maimon</text></g><g class="node" transform="translate(72.84350288261693,2.4266670398894234)"><circle class="outline" cx="0" cy="0" r="40" fill="#FF756E" stroke="#E06760" stroke-width="2px"/><text text-anchor="middle" pointer-events="none" font-family="sans-serif" dy="2.5" font-size="40" fill="#FFFFFF"/><text text-anchor="middle" pointer-events="none" font-family="sans-serif" dy="2.5" font-size="40" fill="#FFFFFF"/><text text-anchor="middle" pointer-events="none" y="0" font-size="10px" fill="#FFFFFF" font-family="sans-serif"> [2] Nieto, David</text><text text-anchor="middle" pointer-events="none" y="10" font-size="10px" fill="#FFFFFF" font-family="sans-serif"> ben Pinchas</text></g><g class="node" transform="translate(396.48883675241495,147.72945690799068)"><circle class="outline" cx="0" cy="0" r="40" fill="#DE9BF9" stroke="#BF85D6" stroke-width="2px"/><text text-anchor="middle" pointer-events="none" font-family="sans-serif" dy="2.5" font-size="40" fill="#FFFFFF"/><text text-anchor="middle" pointer-events="none" y="5" font-size="10px" fill="#FFFFFF" font-family="sans-serif"> Berlin</text></g></g></svg>